<svg width="357" height="328" viewBox="0 0 357 328" fill="none" xmlns="http://www.w3.org/2000/svg">
<g clip-path="url(#clip0_0_372)">
<rect width="357" height="327.488" fill="url(#paint0_linear_0_372)"/>
<path d="M33.3199 34.196L26.1799 26.6561L33.3199 19.1163" stroke="white" stroke-width="1.904" stroke-miterlimit="10" stroke-linecap="round" stroke-linejoin="round"/>
<path d="M143.334 33.2321H140.807V28.1448H135.369V33.2321H132.842V21.1582H135.369V26.0614H140.807V21.1582H143.334V33.2321ZM149.158 25.8773C148.087 25.8773 147.317 26.6889 147.233 27.8101H151.04C150.99 26.6638 150.246 25.8773 149.158 25.8773ZM151.074 30.4876H153.316C153.049 32.2447 151.442 33.4245 149.225 33.4245C146.464 33.4245 144.807 31.659 144.807 28.7891C144.807 25.9275 146.48 24.07 149.133 24.07C151.743 24.07 153.392 25.8355 153.392 28.5632V29.3078H147.208V29.4585C147.208 30.7386 148.02 31.6172 149.267 31.6172C150.162 31.6172 150.848 31.1737 151.074 30.4876ZM154.714 33.2321V21.1582H157.157V33.2321H154.714ZM164.043 24.1202C166.319 24.1202 167.716 25.8522 167.716 28.7472C167.716 31.6339 166.327 33.3743 164.085 33.3743C162.78 33.3743 161.776 32.7384 161.299 31.726H161.248V36.1606H158.805V24.2624H161.215V25.8271H161.265C161.75 24.7728 162.746 24.1202 164.043 24.1202ZM163.223 31.408C164.445 31.408 165.214 30.3788 165.214 28.7472C165.214 27.124 164.445 26.0781 163.223 26.0781C162.027 26.0781 161.24 27.1407 161.24 28.7472C161.24 30.3705 162.027 31.408 163.223 31.408ZM177.924 33.4412C174.41 33.4412 172.209 31.0901 172.209 27.1909C172.209 23.3002 174.427 20.949 177.924 20.949C180.828 20.949 183.037 22.7898 183.229 25.4924H180.769C180.535 24.0114 179.397 23.0408 177.924 23.0408C176.016 23.0408 174.786 24.639 174.786 27.1826C174.786 29.7597 176 31.3494 177.933 31.3494C179.43 31.3494 180.51 30.4709 180.777 29.0401H183.237C182.953 31.7343 180.886 33.4412 177.924 33.4412ZM188.617 25.8773C187.546 25.8773 186.777 26.6889 186.693 27.8101H190.5C190.45 26.6638 189.705 25.8773 188.617 25.8773ZM190.534 30.4876H192.776C192.508 32.2447 190.902 33.4245 188.684 33.4245C185.923 33.4245 184.267 31.659 184.267 28.7891C184.267 25.9275 185.94 24.07 188.592 24.07C191.203 24.07 192.851 25.8355 192.851 28.5632V29.3078H186.668V29.4585C186.668 30.7386 187.48 31.6172 188.726 31.6172C189.622 31.6172 190.308 31.1737 190.534 30.4876ZM194.115 33.2321V24.2624H196.474V25.8606H196.524C197.001 24.7477 197.947 24.0951 199.327 24.0951C201.319 24.0951 202.44 25.3502 202.44 27.4503V33.2321H199.997V27.9607C199.997 26.7893 199.445 26.1199 198.348 26.1199C197.252 26.1199 196.558 26.9232 196.558 28.0862V33.2321H194.115ZM204.641 22.1957H207.084V24.2624H208.741V26.1032H207.084V30.3956C207.084 31.0817 207.419 31.408 208.138 31.408C208.356 31.408 208.582 31.3913 208.732 31.3662V33.1651C208.481 33.2237 208.063 33.2655 207.569 33.2655C205.461 33.2655 204.641 32.5627 204.641 30.8139V26.1032H203.377V24.2624H204.641V22.1957ZM213.97 25.8773C212.899 25.8773 212.129 26.6889 212.046 27.8101H215.853C215.802 26.6638 215.058 25.8773 213.97 25.8773ZM215.886 30.4876H218.129C217.861 32.2447 216.254 33.4245 214.037 33.4245C211.276 33.4245 209.619 31.659 209.619 28.7891C209.619 25.9275 211.293 24.07 213.945 24.07C216.555 24.07 218.204 25.8355 218.204 28.5632V29.3078H212.02V29.4585C212.02 30.7386 212.832 31.6172 214.079 31.6172C214.974 31.6172 215.66 31.1737 215.886 30.4876ZM219.467 33.2321V24.2624H221.827V25.8773H221.877C222.195 24.7394 222.956 24.1202 224.011 24.1202C224.295 24.1202 224.538 24.162 224.705 24.2122V26.3626C224.504 26.2789 224.17 26.2204 223.818 26.2204C222.613 26.2204 221.91 26.9567 221.91 28.2201V33.2321H219.467Z" fill="white"/>
<path d="M26.437 154.056C26.2237 153.665 25.9305 153.367 25.5573 153.163C25.1841 152.959 24.7487 152.856 24.2512 152.856C23.7003 152.856 23.2116 152.981 22.7851 153.23C22.3586 153.478 22.0254 153.834 21.7855 154.296C21.5456 154.758 21.4256 155.291 21.4256 155.895C21.4256 156.517 21.5456 157.059 21.7855 157.521C22.0343 157.983 22.3764 158.339 22.8117 158.588C23.2471 158.836 23.7536 158.961 24.3311 158.961C25.042 158.961 25.624 158.774 26.0771 158.401C26.5303 158.019 26.8279 157.49 26.9701 156.815H23.7714V155.389H28.8093V157.015C28.6849 157.663 28.4184 158.263 28.0097 158.814C27.6009 159.365 27.0723 159.809 26.4236 160.147C25.7839 160.476 25.0642 160.64 24.2645 160.64C23.3671 160.64 22.5541 160.44 21.8255 160.04C21.1058 159.632 20.5371 159.067 20.1195 158.348C19.7108 157.628 19.5064 156.81 19.5064 155.895C19.5064 154.98 19.7108 154.163 20.1195 153.443C20.5371 152.714 21.1058 152.15 21.8255 151.75C22.5541 151.342 23.3626 151.137 24.2512 151.137C25.2996 151.137 26.2104 151.395 26.9834 151.91C27.7564 152.417 28.2896 153.132 28.5828 154.056H26.437ZM37.0538 156.708C37.0538 156.975 37.036 157.215 37.0004 157.428H31.6026C31.647 157.961 31.8336 158.379 32.1624 158.681C32.4911 158.983 32.8954 159.134 33.3752 159.134C34.0683 159.134 34.5614 158.836 34.8546 158.241H36.8672C36.6539 158.952 36.2452 159.538 35.641 160C35.0368 160.453 34.2949 160.68 33.4152 160.68C32.7044 160.68 32.0646 160.525 31.496 160.214C30.9362 159.894 30.4964 159.445 30.1765 158.867C29.8655 158.29 29.71 157.623 29.71 156.868C29.71 156.104 29.8655 155.433 30.1765 154.856C30.4875 154.278 30.9229 153.834 31.4827 153.523C32.0424 153.212 32.6866 153.056 33.4152 153.056C34.1172 153.056 34.7436 153.207 35.2945 153.51C35.8542 153.812 36.2852 154.243 36.5873 154.802C36.8983 155.353 37.0538 155.989 37.0538 156.708ZM35.1212 156.175C35.1123 155.695 34.939 155.313 34.6014 155.029C34.2638 154.736 33.8506 154.589 33.3619 154.589C32.8999 154.589 32.5089 154.731 32.189 155.016C31.878 155.291 31.687 155.678 31.6159 156.175H35.1212ZM40.5882 154.709V158.281C40.5882 158.53 40.6459 158.712 40.7614 158.827C40.8858 158.934 41.0902 158.987 41.3745 158.987H42.2408V160.56H41.068C39.4953 160.56 38.7089 159.796 38.7089 158.268V154.709H37.8293V153.176H38.7089V151.35H40.5882V153.176H42.2408V154.709H40.5882ZM49.5843 160.68C48.9801 160.68 48.4381 160.573 47.9583 160.36C47.4784 160.138 47.0964 159.84 46.812 159.467C46.5366 159.094 46.3855 158.681 46.3589 158.228H48.2381C48.2737 158.512 48.4114 158.747 48.6513 158.934C48.9001 159.121 49.2066 159.214 49.5709 159.214C49.9264 159.214 50.2018 159.143 50.3973 159.001C50.6016 158.859 50.7038 158.676 50.7038 158.454C50.7038 158.214 50.5794 158.037 50.3306 157.921C50.0907 157.797 49.7042 157.663 49.1711 157.521C48.6202 157.388 48.1671 157.25 47.8116 157.108C47.4651 156.966 47.163 156.748 46.9053 156.455C46.6565 156.162 46.5322 155.766 46.5322 155.269C46.5322 154.86 46.6477 154.487 46.8787 154.149C47.1186 153.812 47.4562 153.545 47.8916 153.35C48.3359 153.154 48.8557 153.056 49.451 153.056C50.3306 153.056 51.0326 153.279 51.5568 153.723C52.081 154.158 52.3698 154.749 52.4231 155.495H50.6372C50.6105 155.202 50.4861 154.971 50.264 154.802C50.0507 154.625 49.762 154.536 49.3977 154.536C49.06 154.536 48.7979 154.598 48.6113 154.722C48.4336 154.847 48.3448 155.02 48.3448 155.242C48.3448 155.491 48.4692 155.682 48.7179 155.815C48.9667 155.94 49.3532 156.069 49.8775 156.202C50.4106 156.335 50.8504 156.473 51.197 156.615C51.5435 156.757 51.8411 156.979 52.0899 157.281C52.3476 157.575 52.4809 157.966 52.4898 158.454C52.4898 158.881 52.3698 159.263 52.1299 159.6C51.8989 159.938 51.5613 160.205 51.117 160.4C50.6816 160.587 50.1707 160.68 49.5843 160.68ZM56.1939 154.709V158.281C56.1939 158.53 56.2517 158.712 56.3672 158.827C56.4916 158.934 56.6959 158.987 56.9803 158.987H57.8466V160.56H56.6737C55.101 160.56 54.3147 159.796 54.3147 158.268V154.709H53.435V153.176H54.3147V151.35H56.1939V153.176H57.8466V154.709H56.1939ZM58.7088 156.842C58.7088 156.095 58.8555 155.433 59.1487 154.856C59.4508 154.278 59.8551 153.834 60.3615 153.523C60.8769 153.212 61.45 153.056 62.0808 153.056C62.6317 153.056 63.1115 153.167 63.5203 153.39C63.9379 153.612 64.2711 153.892 64.5199 154.229V153.176H66.3991V160.56H64.5199V159.48C64.28 159.827 63.9468 160.116 63.5203 160.347C63.1026 160.569 62.6184 160.68 62.0675 160.68C61.4455 160.68 60.8769 160.52 60.3615 160.2C59.8551 159.88 59.4508 159.432 59.1487 158.854C58.8555 158.268 58.7088 157.597 58.7088 156.842ZM64.5199 156.868C64.5199 156.415 64.431 156.029 64.2533 155.709C64.0756 155.38 63.8357 155.131 63.5336 154.962C63.2315 154.785 62.9072 154.696 62.5606 154.696C62.2141 154.696 61.8942 154.78 61.601 154.949C61.3078 155.118 61.0679 155.367 60.8813 155.695C60.7036 156.015 60.6148 156.397 60.6148 156.842C60.6148 157.286 60.7036 157.677 60.8813 158.014C61.0679 158.343 61.3078 158.596 61.601 158.774C61.9031 158.952 62.223 159.041 62.5606 159.041C62.9072 159.041 63.2315 158.956 63.5336 158.787C63.8357 158.61 64.0756 158.361 64.2533 158.041C64.431 157.712 64.5199 157.321 64.5199 156.868ZM70.0874 154.323C70.3273 153.932 70.6383 153.625 71.0204 153.403C71.4113 153.181 71.8556 153.07 72.3532 153.07V155.029H71.86C71.2736 155.029 70.8293 155.167 70.5272 155.442C70.234 155.718 70.0874 156.197 70.0874 156.882V160.56H68.2215V153.176H70.0874V154.323ZM75.7824 154.709V158.281C75.7824 158.53 75.8402 158.712 75.9557 158.827C76.0801 158.934 76.2845 158.987 76.5688 158.987H77.4351V160.56H76.2622C74.6895 160.56 73.9032 159.796 73.9032 158.268V154.709H73.0235V153.176H73.9032V151.35H75.7824V153.176H77.4351V154.709H75.7824ZM85.6411 156.708C85.6411 156.975 85.6233 157.215 85.5878 157.428H80.1899C80.2344 157.961 80.421 158.379 80.7497 158.681C81.0785 158.983 81.4828 159.134 81.9626 159.134C82.6556 159.134 83.1488 158.836 83.442 158.241H85.4545C85.2413 158.952 84.8325 159.538 84.2283 160C83.6241 160.453 82.8822 160.68 82.0026 160.68C81.2917 160.68 80.652 160.525 80.0833 160.214C79.5235 159.894 79.0837 159.445 78.7638 158.867C78.4529 158.29 78.2974 157.623 78.2974 156.868C78.2974 156.104 78.4529 155.433 78.7638 154.856C79.0748 154.278 79.5102 153.834 80.07 153.523C80.6298 153.212 81.274 153.056 82.0026 153.056C82.7045 153.056 83.3309 153.207 83.8818 153.51C84.4416 153.812 84.8725 154.243 85.1746 154.802C85.4856 155.353 85.6411 155.989 85.6411 156.708ZM83.7085 156.175C83.6997 155.695 83.5264 155.313 83.1887 155.029C82.8511 154.736 82.4379 154.589 81.9492 154.589C81.4872 154.589 81.0962 154.731 80.7764 155.016C80.4654 155.291 80.2744 155.678 80.2033 156.175H83.7085ZM86.5232 156.842C86.5232 156.095 86.6699 155.433 86.9631 154.856C87.2652 154.278 87.6739 153.834 88.1892 153.523C88.7046 153.212 89.2777 153.056 89.9086 153.056C90.3884 153.056 90.846 153.163 91.2813 153.376C91.7167 153.581 92.0633 153.856 92.3209 154.203V150.697H94.2135V160.56H92.3209V159.467C92.0899 159.831 91.7656 160.125 91.348 160.347C90.9304 160.569 90.4461 160.68 89.8952 160.68C89.2733 160.68 88.7046 160.52 88.1892 160.2C87.6739 159.88 87.2652 159.432 86.9631 158.854C86.6699 158.268 86.5232 157.597 86.5232 156.842ZM92.3343 156.868C92.3343 156.415 92.2454 156.029 92.0677 155.709C91.89 155.38 91.6501 155.131 91.348 154.962C91.0459 154.785 90.7216 154.696 90.375 154.696C90.0285 154.696 89.7086 154.78 89.4154 154.949C89.1222 155.118 88.8823 155.367 88.6957 155.695C88.518 156.015 88.4291 156.397 88.4291 156.842C88.4291 157.286 88.518 157.677 88.6957 158.014C88.8823 158.343 89.1222 158.596 89.4154 158.774C89.7175 158.952 90.0374 159.041 90.375 159.041C90.7216 159.041 91.0459 158.956 91.348 158.787C91.6501 158.61 91.89 158.361 92.0677 158.041C92.2454 157.712 92.3343 157.321 92.3343 156.868Z" fill="white"/>
<path fill-rule="evenodd" clip-rule="evenodd" d="M323.959 149.743C324.331 149.371 324.933 149.371 325.305 149.743L331.017 155.455C331.389 155.827 331.389 156.429 331.017 156.801L325.305 162.513C324.933 162.885 324.331 162.885 323.959 162.513C323.587 162.141 323.587 161.539 323.959 161.167L328.998 156.128L323.959 151.089C323.587 150.717 323.587 150.115 323.959 149.743Z" fill="#5CE1FE"/>
<path d="M27.6764 196.953V206.256H25.8105V202.298H21.8254V206.256H19.9595V196.953H21.8254V200.778H25.8105V196.953H27.6764ZM32.7916 206.376C32.0808 206.376 31.4411 206.22 30.8724 205.909C30.3038 205.59 29.855 205.141 29.5263 204.563C29.2064 203.986 29.0465 203.319 29.0465 202.564C29.0465 201.809 29.2109 201.142 29.5396 200.565C29.8773 199.987 30.3349 199.543 30.9124 199.232C31.4899 198.912 32.1341 198.752 32.845 198.752C33.5558 198.752 34.2 198.912 34.7775 199.232C35.3551 199.543 35.8082 199.987 36.137 200.565C36.4746 201.142 36.6434 201.809 36.6434 202.564C36.6434 203.319 36.4702 203.986 36.1236 204.563C35.786 205.141 35.324 205.59 34.7375 205.909C34.16 206.22 33.5114 206.376 32.7916 206.376ZM32.7916 204.75C33.1293 204.75 33.4447 204.67 33.7379 204.51C34.04 204.341 34.2799 204.092 34.4576 203.764C34.6354 203.435 34.7242 203.035 34.7242 202.564C34.7242 201.862 34.5376 201.325 34.1644 200.951C33.8001 200.569 33.3514 200.378 32.8183 200.378C32.2852 200.378 31.8365 200.569 31.4722 200.951C31.1168 201.325 30.9391 201.862 30.9391 202.564C30.9391 203.266 31.1123 203.808 31.4588 204.19C31.8143 204.563 32.2585 204.75 32.7916 204.75ZM48.2481 198.872L46.0889 206.256H44.0764L42.7303 201.098L41.3842 206.256H39.3583L37.1858 198.872H39.0784L40.3846 204.497L41.7973 198.872H43.7699L45.156 204.483L46.4621 198.872H48.2481ZM54.6059 200.405V203.977C54.6059 204.226 54.6637 204.408 54.7792 204.523C54.9036 204.63 55.108 204.683 55.3923 204.683H56.2586V206.256H55.0858C53.5131 206.256 52.7267 205.492 52.7267 203.964V200.405H51.8471V198.872H52.7267V197.046H54.6059V198.872H56.2586V200.405H54.6059ZM60.8794 206.376C60.1685 206.376 59.5288 206.22 58.9601 205.909C58.3915 205.59 57.9428 205.141 57.614 204.563C57.2941 203.986 57.1342 203.319 57.1342 202.564C57.1342 201.809 57.2986 201.142 57.6273 200.565C57.965 199.987 58.4226 199.543 59.0001 199.232C59.5777 198.912 60.2219 198.752 60.9327 198.752C61.6435 198.752 62.2877 198.912 62.8652 199.232C63.4428 199.543 63.8959 199.987 64.2247 200.565C64.5623 201.142 64.7312 201.809 64.7312 202.564C64.7312 203.319 64.5579 203.986 64.2114 204.563C63.8737 205.141 63.4117 205.59 62.8253 205.909C62.2477 206.22 61.5991 206.376 60.8794 206.376ZM60.8794 204.75C61.217 204.75 61.5324 204.67 61.8257 204.51C62.1278 204.341 62.3677 204.092 62.5454 203.764C62.7231 203.435 62.8119 203.035 62.8119 202.564C62.8119 201.862 62.6253 201.325 62.2522 200.951C61.8879 200.569 61.4392 200.378 60.906 200.378C60.3729 200.378 59.9242 200.569 59.5599 200.951C59.2045 201.325 59.0268 201.862 59.0268 202.564C59.0268 203.266 59.2 203.808 59.5466 204.19C59.902 204.563 60.3463 204.75 60.8794 204.75ZM71.4482 200.405V203.977C71.4482 204.226 71.5059 204.408 71.6214 204.523C71.7458 204.63 71.9502 204.683 72.2345 204.683H73.1008V206.256H71.928C70.3553 206.256 69.5689 205.492 69.5689 203.964V200.405H68.6893V198.872H69.5689V197.046H71.4482V198.872H73.1008V200.405H71.4482ZM76.3088 200.018C76.5487 199.628 76.8597 199.321 77.2418 199.099C77.6327 198.877 78.077 198.766 78.5746 198.766V200.725H78.0815C77.495 200.725 77.0508 200.863 76.7487 201.138C76.4554 201.413 76.3088 201.893 76.3088 202.577V206.256H74.4429V198.872H76.3088V200.018ZM79.3516 202.537C79.3516 201.791 79.4982 201.129 79.7914 200.552C80.0935 199.974 80.4978 199.53 81.0042 199.219C81.5196 198.908 82.0927 198.752 82.7236 198.752C83.2745 198.752 83.7543 198.863 84.163 199.086C84.5806 199.308 84.9138 199.588 85.1626 199.925V198.872H87.0418V206.256H85.1626V205.176C84.9227 205.523 84.5895 205.812 84.163 206.043C83.7454 206.265 83.2611 206.376 82.7102 206.376C82.0883 206.376 81.5196 206.216 81.0042 205.896C80.4978 205.576 80.0935 205.128 79.7914 204.55C79.4982 203.964 79.3516 203.293 79.3516 202.537ZM85.1626 202.564C85.1626 202.111 85.0737 201.724 84.896 201.405C84.7183 201.076 84.4784 200.827 84.1763 200.658C83.8742 200.481 83.5499 200.392 83.2034 200.392C82.8568 200.392 82.537 200.476 82.2438 200.645C81.9505 200.814 81.7106 201.063 81.524 201.391C81.3463 201.711 81.2575 202.093 81.2575 202.537C81.2575 202.982 81.3463 203.373 81.524 203.71C81.7106 204.039 81.9505 204.292 82.2438 204.47C82.5459 204.648 82.8657 204.737 83.2034 204.737C83.5499 204.737 83.8742 204.652 84.1763 204.483C84.4784 204.306 84.7183 204.057 84.896 203.737C85.0737 203.408 85.1626 203.017 85.1626 202.564ZM92.9559 198.766C93.8356 198.766 94.5464 199.046 95.0884 199.605C95.6304 200.156 95.9014 200.929 95.9014 201.924V206.256H94.0355V202.178C94.0355 201.591 93.8889 201.142 93.5957 200.831C93.3025 200.512 92.9026 200.352 92.3961 200.352C91.8808 200.352 91.4721 200.512 91.17 200.831C90.8768 201.142 90.7301 201.591 90.7301 202.178V206.256H88.8642V198.872H90.7301V199.792C90.9789 199.472 91.2944 199.223 91.6764 199.046C92.0674 198.859 92.4939 198.766 92.9559 198.766ZM100.501 206.376C99.8971 206.376 99.3551 206.269 98.8753 206.056C98.3955 205.834 98.0135 205.536 97.7291 205.163C97.4537 204.79 97.3026 204.377 97.276 203.924H99.1552C99.1908 204.208 99.3285 204.443 99.5684 204.63C99.8172 204.817 100.124 204.91 100.488 204.91C100.843 204.91 101.119 204.839 101.314 204.697C101.519 204.554 101.621 204.372 101.621 204.15C101.621 203.91 101.497 203.733 101.248 203.617C101.008 203.493 100.621 203.359 100.088 203.217C99.5373 203.084 99.0841 202.946 98.7287 202.804C98.3822 202.662 98.0801 202.444 97.8224 202.151C97.5736 201.858 97.4492 201.462 97.4492 200.965C97.4492 200.556 97.5647 200.183 97.7958 199.845C98.0357 199.508 98.3733 199.241 98.8087 199.046C99.253 198.85 99.7728 198.752 100.368 198.752C101.248 198.752 101.95 198.974 102.474 199.419C102.998 199.854 103.287 200.445 103.34 201.191H101.554C101.528 200.898 101.403 200.667 101.181 200.498C100.968 200.321 100.679 200.232 100.315 200.232C99.9771 200.232 99.715 200.294 99.5284 200.418C99.3507 200.543 99.2618 200.716 99.2618 200.938C99.2618 201.187 99.3862 201.378 99.635 201.511C99.8838 201.636 100.27 201.764 100.795 201.898C101.328 202.031 101.768 202.169 102.114 202.311C102.461 202.453 102.758 202.675 103.007 202.977C103.265 203.271 103.398 203.661 103.407 204.15C103.407 204.577 103.287 204.959 103.047 205.296C102.816 205.634 102.478 205.901 102.034 206.096C101.599 206.283 101.088 206.376 100.501 206.376ZM108.324 200.405H107.031V206.256H105.138V200.405H104.299V198.872H105.138V198.499C105.138 197.593 105.396 196.926 105.911 196.5C106.427 196.073 107.204 195.873 108.244 195.9V197.473C107.791 197.464 107.475 197.539 107.298 197.699C107.12 197.859 107.031 198.148 107.031 198.566V198.872H108.324V200.405ZM116.397 202.404C116.397 202.671 116.379 202.911 116.344 203.124H110.946C110.99 203.657 111.177 204.075 111.506 204.377C111.834 204.679 112.239 204.83 112.718 204.83C113.411 204.83 113.905 204.532 114.198 203.937H116.21C115.997 204.648 115.588 205.234 114.984 205.696C114.38 206.149 113.638 206.376 112.758 206.376C112.048 206.376 111.408 206.22 110.839 205.909C110.279 205.59 109.84 205.141 109.52 204.563C109.209 203.986 109.053 203.319 109.053 202.564C109.053 201.8 109.209 201.129 109.52 200.552C109.831 199.974 110.266 199.53 110.826 199.219C111.386 198.908 112.03 198.752 112.758 198.752C113.46 198.752 114.087 198.903 114.638 199.205C115.197 199.508 115.628 199.939 115.93 200.498C116.241 201.049 116.397 201.684 116.397 202.404ZM114.464 201.871C114.456 201.391 114.282 201.009 113.945 200.725C113.607 200.432 113.194 200.285 112.705 200.285C112.243 200.285 111.852 200.427 111.532 200.712C111.221 200.987 111.03 201.373 110.959 201.871H114.464ZM119.625 200.018C119.865 199.628 120.176 199.321 120.558 199.099C120.949 198.877 121.393 198.766 121.891 198.766V200.725H121.397C120.811 200.725 120.367 200.863 120.065 201.138C119.771 201.413 119.625 201.893 119.625 202.577V206.256H117.759V198.872H119.625V200.018Z" fill="white"/>
<path fill-rule="evenodd" clip-rule="evenodd" d="M323.959 195.439C324.33 195.067 324.933 195.067 325.305 195.439L331.017 201.151C331.389 201.523 331.389 202.125 331.017 202.497L325.305 208.209C324.933 208.581 324.33 208.581 323.959 208.209C323.587 207.837 323.587 207.235 323.959 206.863L328.998 201.824L323.959 196.785C323.587 196.413 323.587 195.811 323.959 195.439Z" fill="#5CE1FE"/>
<path d="M27.6764 242.649V251.952H25.8105V247.994H21.8254V251.952H19.9595V242.649H21.8254V246.474H25.8105V242.649H27.6764ZM32.7916 252.072C32.0808 252.072 31.4411 251.916 30.8724 251.605C30.3038 251.286 29.855 250.837 29.5263 250.259C29.2064 249.682 29.0465 249.015 29.0465 248.26C29.0465 247.505 29.2109 246.839 29.5396 246.261C29.8773 245.683 30.3349 245.239 30.9124 244.928C31.4899 244.608 32.1341 244.448 32.845 244.448C33.5558 244.448 34.2 244.608 34.7775 244.928C35.3551 245.239 35.8082 245.683 36.137 246.261C36.4746 246.839 36.6434 247.505 36.6434 248.26C36.6434 249.015 36.4702 249.682 36.1236 250.259C35.786 250.837 35.324 251.286 34.7375 251.605C34.16 251.916 33.5114 252.072 32.7916 252.072ZM32.7916 250.446C33.1293 250.446 33.4447 250.366 33.7379 250.206C34.04 250.037 34.2799 249.788 34.4576 249.46C34.6354 249.131 34.7242 248.731 34.7242 248.26C34.7242 247.558 34.5376 247.021 34.1644 246.647C33.8001 246.265 33.3514 246.074 32.8183 246.074C32.2852 246.074 31.8365 246.265 31.4722 246.647C31.1168 247.021 30.9391 247.558 30.9391 248.26C30.9391 248.962 31.1123 249.504 31.4588 249.886C31.8143 250.259 32.2585 250.446 32.7916 250.446ZM48.2481 244.568L46.0889 251.952H44.0764L42.7303 246.794L41.3842 251.952H39.3583L37.1858 244.568H39.0784L40.3846 250.193L41.7973 244.568H43.7699L45.156 250.179L46.4621 244.568H48.2481ZM54.6059 246.101V249.673C54.6059 249.922 54.6637 250.104 54.7792 250.219C54.9036 250.326 55.108 250.379 55.3923 250.379H56.2586V251.952H55.0858C53.5131 251.952 52.7267 251.188 52.7267 249.66V246.101H51.8471V244.568H52.7267V242.742H54.6059V244.568H56.2586V246.101H54.6059ZM60.8794 252.072C60.1685 252.072 59.5288 251.916 58.9601 251.605C58.3915 251.286 57.9428 250.837 57.614 250.259C57.2941 249.682 57.1342 249.015 57.1342 248.26C57.1342 247.505 57.2986 246.839 57.6273 246.261C57.965 245.683 58.4226 245.239 59.0001 244.928C59.5777 244.608 60.2219 244.448 60.9327 244.448C61.6435 244.448 62.2877 244.608 62.8652 244.928C63.4428 245.239 63.8959 245.683 64.2247 246.261C64.5623 246.839 64.7312 247.505 64.7312 248.26C64.7312 249.015 64.5579 249.682 64.2114 250.259C63.8737 250.837 63.4117 251.286 62.8253 251.605C62.2477 251.916 61.5991 252.072 60.8794 252.072ZM60.8794 250.446C61.217 250.446 61.5324 250.366 61.8257 250.206C62.1278 250.037 62.3677 249.788 62.5454 249.46C62.7231 249.131 62.8119 248.731 62.8119 248.26C62.8119 247.558 62.6253 247.021 62.2522 246.647C61.8879 246.265 61.4392 246.074 60.906 246.074C60.3729 246.074 59.9242 246.265 59.5599 246.647C59.2045 247.021 59.0268 247.558 59.0268 248.26C59.0268 248.962 59.2 249.504 59.5466 249.886C59.902 250.259 60.3463 250.446 60.8794 250.446ZM68.7959 248.26C68.7959 247.496 68.9514 246.83 69.2624 246.261C69.5734 245.683 70.0043 245.239 70.5552 244.928C71.1061 244.608 71.7369 244.448 72.4478 244.448C73.363 244.448 74.1182 244.679 74.7135 245.141C75.3177 245.595 75.722 246.234 75.9264 247.061H73.9139C73.8072 246.741 73.6251 246.492 73.3674 246.314C73.1186 246.128 72.8076 246.034 72.4344 246.034C71.9013 246.034 71.4793 246.23 71.1683 246.621C70.8573 247.003 70.7018 247.549 70.7018 248.26C70.7018 248.962 70.8573 249.509 71.1683 249.9C71.4793 250.282 71.9013 250.473 72.4344 250.473C73.1897 250.473 73.6828 250.135 73.9139 249.46H75.9264C75.722 250.259 75.3177 250.895 74.7135 251.366C74.1093 251.837 73.3541 252.072 72.4478 252.072C71.7369 252.072 71.1061 251.916 70.5552 251.605C70.0043 251.286 69.5734 250.841 69.2624 250.273C68.9514 249.695 68.7959 249.024 68.7959 248.26ZM80.572 252.072C79.8612 252.072 79.2215 251.916 78.6528 251.605C78.0841 251.286 77.6354 250.837 77.3067 250.259C76.9868 249.682 76.8269 249.015 76.8269 248.26C76.8269 247.505 76.9912 246.839 77.32 246.261C77.6576 245.683 78.1152 245.239 78.6928 244.928C79.2703 244.608 79.9145 244.448 80.6253 244.448C81.3362 244.448 81.9804 244.608 82.5579 244.928C83.1354 245.239 83.5886 245.683 83.9174 246.261C84.255 246.839 84.4238 247.505 84.4238 248.26C84.4238 249.015 84.2506 249.682 83.904 250.259C83.5664 250.837 83.1043 251.286 82.5179 251.605C81.9404 251.916 81.2917 252.072 80.572 252.072ZM80.572 250.446C80.9097 250.446 81.2251 250.366 81.5183 250.206C81.8204 250.037 82.0603 249.788 82.238 249.46C82.4157 249.131 82.5046 248.731 82.5046 248.26C82.5046 247.558 82.318 247.021 81.9448 246.647C81.5805 246.265 81.1318 246.074 80.5987 246.074C80.0656 246.074 79.6169 246.265 79.2526 246.647C78.8971 247.021 78.7194 247.558 78.7194 248.26C78.7194 248.962 78.8927 249.504 79.2392 249.886C79.5946 250.259 80.0389 250.446 80.572 250.446ZM89.8842 244.462C90.7639 244.462 91.4747 244.742 92.0167 245.301C92.5587 245.852 92.8297 246.625 92.8297 247.62V251.952H90.9638V247.874C90.9638 247.287 90.8172 246.839 90.524 246.528C90.2308 246.208 89.8309 246.048 89.3245 246.048C88.8091 246.048 88.4004 246.208 88.0983 246.528C87.8051 246.839 87.6585 247.287 87.6585 247.874V251.952H85.7925V244.568H87.6585V245.488C87.9073 245.168 88.2227 244.919 88.6048 244.742C88.9957 244.555 89.4222 244.462 89.8842 244.462ZM97.6829 250.233L99.5488 244.568H101.535L98.8024 251.952H96.5367L93.8178 244.568H95.817L97.6829 250.233ZM109.447 248.1C109.447 248.367 109.429 248.607 109.393 248.82H103.995C104.04 249.353 104.226 249.771 104.555 250.073C104.884 250.375 105.288 250.526 105.768 250.526C106.461 250.526 106.954 250.228 107.248 249.633H109.26C109.047 250.344 108.638 250.93 108.034 251.392C107.43 251.845 106.688 252.072 105.808 252.072C105.097 252.072 104.458 251.916 103.889 251.605C103.329 251.286 102.889 250.837 102.569 250.259C102.258 249.682 102.103 249.015 102.103 248.26C102.103 247.496 102.258 246.825 102.569 246.248C102.88 245.67 103.316 245.226 103.876 244.915C104.435 244.604 105.079 244.448 105.808 244.448C106.51 244.448 107.136 244.599 107.687 244.902C108.247 245.204 108.678 245.635 108.98 246.194C109.291 246.745 109.447 247.381 109.447 248.1ZM107.514 247.567C107.505 247.087 107.332 246.705 106.994 246.421C106.657 246.128 106.243 245.981 105.755 245.981C105.293 245.981 104.902 246.123 104.582 246.408C104.271 246.683 104.08 247.07 104.009 247.567H107.514ZM112.674 245.715C112.914 245.324 113.225 245.017 113.607 244.795C113.998 244.573 114.443 244.462 114.94 244.462V246.421H114.447C113.861 246.421 113.416 246.559 113.114 246.834C112.821 247.11 112.674 247.589 112.674 248.273V251.952H110.809V244.568H112.674V245.715ZM118.37 246.101V249.673C118.37 249.922 118.427 250.104 118.543 250.219C118.667 250.326 118.872 250.379 119.156 250.379H120.022V251.952H118.849C117.277 251.952 116.49 251.188 116.49 249.66V246.101H115.611V244.568H116.49V242.742H118.37V244.568H120.022V246.101H118.37ZM126.406 245.648C126.646 245.292 126.975 245.004 127.392 244.782C127.819 244.559 128.303 244.448 128.845 244.448C129.476 244.448 130.045 244.604 130.551 244.915C131.066 245.226 131.471 245.67 131.764 246.248C132.066 246.816 132.217 247.478 132.217 248.234C132.217 248.989 132.066 249.66 131.764 250.246C131.471 250.824 131.066 251.272 130.551 251.592C130.045 251.912 129.476 252.072 128.845 252.072C128.294 252.072 127.81 251.965 127.392 251.752C126.984 251.53 126.655 251.246 126.406 250.899V251.952H124.54V242.089H126.406V245.648ZM130.311 248.234C130.311 247.789 130.218 247.407 130.031 247.087C129.854 246.759 129.614 246.51 129.311 246.341C129.018 246.172 128.698 246.088 128.352 246.088C128.014 246.088 127.694 246.177 127.392 246.354C127.099 246.523 126.859 246.772 126.673 247.101C126.495 247.429 126.406 247.816 126.406 248.26C126.406 248.704 126.495 249.091 126.673 249.42C126.859 249.748 127.099 250.002 127.392 250.179C127.694 250.348 128.014 250.433 128.352 250.433C128.698 250.433 129.018 250.344 129.311 250.166C129.614 249.988 129.854 249.735 130.031 249.406C130.218 249.078 130.311 248.687 130.311 248.234ZM133.093 248.234C133.093 247.487 133.24 246.825 133.533 246.248C133.835 245.67 134.239 245.226 134.746 244.915C135.261 244.604 135.834 244.448 136.465 244.448C137.016 244.448 137.496 244.559 137.905 244.782C138.322 245.004 138.655 245.284 138.904 245.621V244.568H140.783V251.952H138.904V250.872C138.664 251.219 138.331 251.508 137.905 251.739C137.487 251.961 137.003 252.072 136.452 252.072C135.83 252.072 135.261 251.912 134.746 251.592C134.239 251.272 133.835 250.824 133.533 250.246C133.24 249.66 133.093 248.989 133.093 248.234ZM138.904 248.26C138.904 247.807 138.815 247.421 138.638 247.101C138.46 246.772 138.22 246.523 137.918 246.354C137.616 246.177 137.291 246.088 136.945 246.088C136.598 246.088 136.278 246.172 135.985 246.341C135.692 246.51 135.452 246.759 135.266 247.087C135.088 247.407 134.999 247.789 134.999 248.234C134.999 248.678 135.088 249.069 135.266 249.406C135.452 249.735 135.692 249.988 135.985 250.166C136.287 250.344 136.607 250.433 136.945 250.433C137.291 250.433 137.616 250.348 137.918 250.179C138.22 250.002 138.46 249.753 138.638 249.433C138.815 249.104 138.904 248.713 138.904 248.26ZM144.472 242.089V251.952H142.606V242.089H144.472ZM145.835 248.234C145.835 247.487 145.982 246.825 146.275 246.248C146.577 245.67 146.982 245.226 147.488 244.915C148.003 244.604 148.577 244.448 149.207 244.448C149.758 244.448 150.238 244.559 150.647 244.782C151.064 245.004 151.398 245.284 151.646 245.621V244.568H153.526V251.952H151.646V250.872C151.407 251.219 151.073 251.508 150.647 251.739C150.229 251.961 149.745 252.072 149.194 252.072C148.572 252.072 148.003 251.912 147.488 251.592C146.982 251.272 146.577 250.824 146.275 250.246C145.982 249.66 145.835 248.989 145.835 248.234ZM151.646 248.26C151.646 247.807 151.558 247.421 151.38 247.101C151.202 246.772 150.962 246.523 150.66 246.354C150.358 246.177 150.034 246.088 149.687 246.088C149.341 246.088 149.021 246.172 148.728 246.341C148.434 246.51 148.194 246.759 148.008 247.087C147.83 247.407 147.741 247.789 147.741 248.234C147.741 248.678 147.83 249.069 148.008 249.406C148.194 249.735 148.434 249.988 148.728 250.166C149.03 250.344 149.35 250.433 149.687 250.433C150.034 250.433 150.358 250.348 150.66 250.179C150.962 250.002 151.202 249.753 151.38 249.433C151.558 249.104 151.646 248.713 151.646 248.26ZM159.44 244.462C160.319 244.462 161.03 244.742 161.572 245.301C162.114 245.852 162.385 246.625 162.385 247.62V251.952H160.519V247.874C160.519 247.287 160.373 246.839 160.079 246.528C159.786 246.208 159.386 246.048 158.88 246.048C158.365 246.048 157.956 246.208 157.654 246.528C157.361 246.839 157.214 247.287 157.214 247.874V251.952H155.348V244.568H157.214V245.488C157.463 245.168 157.778 244.919 158.16 244.742C158.551 244.555 158.978 244.462 159.44 244.462ZM163.68 248.26C163.68 247.496 163.835 246.83 164.146 246.261C164.457 245.683 164.888 245.239 165.439 244.928C165.99 244.608 166.621 244.448 167.332 244.448C168.247 244.448 169.002 244.679 169.597 245.141C170.202 245.595 170.606 246.234 170.81 247.061H168.798C168.691 246.741 168.509 246.492 168.251 246.314C168.003 246.128 167.692 246.034 167.318 246.034C166.785 246.034 166.363 246.23 166.052 246.621C165.741 247.003 165.586 247.549 165.586 248.26C165.586 248.962 165.741 249.509 166.052 249.9C166.363 250.282 166.785 250.473 167.318 250.473C168.074 250.473 168.567 250.135 168.798 249.46H170.81C170.606 250.259 170.202 250.895 169.597 251.366C168.993 251.837 168.238 252.072 167.332 252.072C166.621 252.072 165.99 251.916 165.439 251.605C164.888 251.286 164.457 250.841 164.146 250.273C163.835 249.695 163.68 249.024 163.68 248.26ZM179.041 248.1C179.041 248.367 179.023 248.607 178.988 248.82H173.59C173.634 249.353 173.821 249.771 174.15 250.073C174.479 250.375 174.883 250.526 175.363 250.526C176.056 250.526 176.549 250.228 176.842 249.633H178.855C178.641 250.344 178.233 250.93 177.628 251.392C177.024 251.845 176.282 252.072 175.403 252.072C174.692 252.072 174.052 251.916 173.483 251.605C172.924 251.286 172.484 250.837 172.164 250.259C171.853 249.682 171.697 249.015 171.697 248.26C171.697 247.496 171.853 246.825 172.164 246.248C172.475 245.67 172.91 245.226 173.47 244.915C174.03 244.604 174.674 244.448 175.403 244.448C176.105 244.448 176.731 244.599 177.282 244.902C177.842 245.204 178.273 245.635 178.575 246.194C178.886 246.745 179.041 247.381 179.041 248.1ZM177.109 247.567C177.1 247.087 176.926 246.705 176.589 246.421C176.251 246.128 175.838 245.981 175.349 245.981C174.887 245.981 174.496 246.123 174.176 246.408C173.865 246.683 173.674 247.07 173.603 247.567H177.109Z" fill="white"/>
<path fill-rule="evenodd" clip-rule="evenodd" d="M323.959 241.135C324.33 240.763 324.933 240.763 325.305 241.135L331.017 246.847C331.389 247.219 331.389 247.821 331.017 248.193L325.305 253.905C324.933 254.277 324.33 254.277 323.959 253.905C323.587 253.533 323.587 252.931 323.959 252.559L328.998 247.52L323.959 242.481C323.587 242.109 323.587 241.507 323.959 241.135Z" fill="#5CE1FE"/>
<path d="M19.5063 292.983C19.5063 292.068 19.7107 291.251 20.1194 290.531C20.537 289.802 21.1013 289.238 21.8121 288.838C22.5318 288.429 23.3359 288.225 24.2244 288.225C25.264 288.225 26.1748 288.492 26.9567 289.025C27.7386 289.558 28.285 290.295 28.596 291.237H26.4502C26.237 290.793 25.9349 290.46 25.5439 290.238C25.1619 290.016 24.7176 289.904 24.2111 289.904C23.6691 289.904 23.1849 290.033 22.7584 290.291C22.3408 290.54 22.012 290.895 21.7721 291.357C21.5411 291.819 21.4256 292.361 21.4256 292.983C21.4256 293.596 21.5411 294.138 21.7721 294.609C22.012 295.071 22.3408 295.431 22.7584 295.689C23.1849 295.938 23.6691 296.062 24.2111 296.062C24.7176 296.062 25.1619 295.951 25.5439 295.729C25.9349 295.498 26.237 295.16 26.4502 294.716H28.596C28.285 295.667 27.7386 296.409 26.9567 296.942C26.1837 297.466 25.2729 297.728 24.2244 297.728C23.3359 297.728 22.5318 297.528 21.8121 297.128C21.1013 296.719 20.537 296.155 20.1194 295.436C19.7107 294.716 19.5063 293.898 19.5063 292.983ZM32.0557 287.785V297.648H30.1898V287.785H32.0557ZM37.1779 297.768C36.4671 297.768 35.8273 297.612 35.2587 297.301C34.69 296.982 34.2413 296.533 33.9126 295.955C33.5927 295.378 33.4327 294.711 33.4327 293.956C33.4327 293.201 33.5971 292.534 33.9259 291.957C34.2635 291.379 34.7211 290.935 35.2987 290.624C35.8762 290.304 36.5204 290.144 37.2312 290.144C37.9421 290.144 38.5862 290.304 39.1638 290.624C39.7413 290.935 40.1945 291.379 40.5232 291.957C40.8609 292.534 41.0297 293.201 41.0297 293.956C41.0297 294.711 40.8564 295.378 40.5099 295.955C40.1723 296.533 39.7102 296.982 39.1238 297.301C38.5463 297.612 37.8976 297.768 37.1779 297.768ZM37.1779 296.142C37.5156 296.142 37.831 296.062 38.1242 295.902C38.4263 295.733 38.6662 295.484 38.8439 295.156C39.0216 294.827 39.1105 294.427 39.1105 293.956C39.1105 293.254 38.9239 292.717 38.5507 292.343C38.1864 291.961 37.7377 291.77 37.2046 291.77C36.6715 291.77 36.2227 291.961 35.8584 292.343C35.503 292.717 35.3253 293.254 35.3253 293.956C35.3253 294.658 35.4986 295.2 35.8451 295.582C36.2005 295.955 36.6448 296.142 37.1779 296.142ZM45.224 297.768C44.6198 297.768 44.0778 297.661 43.598 297.448C43.1181 297.226 42.7361 296.928 42.4517 296.555C42.1763 296.182 42.0252 295.769 41.9986 295.316H43.8778C43.9134 295.6 44.0511 295.835 44.291 296.022C44.5398 296.209 44.8463 296.302 45.2106 296.302C45.5661 296.302 45.8415 296.231 46.037 296.089C46.2413 295.946 46.3435 295.764 46.3435 295.542C46.3435 295.302 46.2191 295.125 45.9703 295.009C45.7304 294.885 45.3439 294.751 44.8108 294.609C44.2599 294.476 43.8068 294.338 43.4513 294.196C43.1048 294.054 42.8027 293.836 42.545 293.543C42.2963 293.25 42.1719 292.854 42.1719 292.357C42.1719 291.948 42.2874 291.575 42.5184 291.237C42.7583 290.9 43.0959 290.633 43.5313 290.438C43.9756 290.242 44.4954 290.144 45.0907 290.144C45.9703 290.144 46.6723 290.366 47.1965 290.811C47.7207 291.246 48.0095 291.837 48.0628 292.583H46.2769C46.2502 292.29 46.1258 292.059 45.9037 291.89C45.6904 291.713 45.4017 291.624 45.0374 291.624C44.6997 291.624 44.4376 291.686 44.251 291.81C44.0733 291.935 43.9845 292.108 43.9845 292.33C43.9845 292.579 44.1089 292.77 44.3576 292.903C44.6064 293.028 44.993 293.156 45.5172 293.29C46.0503 293.423 46.4901 293.561 46.8367 293.703C47.1832 293.845 47.4808 294.067 47.7296 294.369C47.9873 294.663 48.1206 295.053 48.1295 295.542C48.1295 295.969 48.0095 296.351 47.7696 296.688C47.5386 297.026 47.201 297.293 46.7567 297.488C46.3213 297.675 45.8104 297.768 45.224 297.768ZM56.5251 293.796C56.5251 294.063 56.5073 294.303 56.4718 294.516H51.0739C51.1183 295.049 51.3049 295.467 51.6337 295.769C51.9625 296.071 52.3667 296.222 52.8465 296.222C53.5396 296.222 54.0327 295.924 54.326 295.329H56.3385C56.1252 296.04 55.7165 296.626 55.1123 297.088C54.5081 297.541 53.7662 297.768 52.8865 297.768C52.1757 297.768 51.536 297.612 50.9673 297.301C50.4075 296.982 49.9677 296.533 49.6478 295.955C49.3368 295.378 49.1813 294.711 49.1813 293.956C49.1813 293.192 49.3368 292.521 49.6478 291.944C49.9588 291.366 50.3942 290.922 50.954 290.611C51.5137 290.3 52.1579 290.144 52.8865 290.144C53.5885 290.144 54.2149 290.295 54.7658 290.597C55.3256 290.9 55.7565 291.331 56.0586 291.89C56.3696 292.441 56.5251 293.077 56.5251 293.796ZM54.5925 293.263C54.5836 292.783 54.4104 292.401 54.0727 292.117C53.7351 291.824 53.3219 291.677 52.8332 291.677C52.3712 291.677 51.9802 291.819 51.6604 292.104C51.3494 292.379 51.1583 292.766 51.0873 293.263H54.5925ZM66.7672 295.875H63.062L62.449 297.648H60.4897L63.8351 288.332H66.0075L69.3529 297.648H67.3803L66.7672 295.875ZM66.2608 294.383L64.9146 290.491L63.5685 294.383H66.2608ZM70.1235 293.956C70.1235 293.192 70.279 292.526 70.59 291.957C70.901 291.379 71.3319 290.935 71.8828 290.624C72.4337 290.304 73.0645 290.144 73.7754 290.144C74.6906 290.144 75.4458 290.375 76.0411 290.837C76.6453 291.291 77.0496 291.93 77.254 292.757H75.2414C75.1348 292.437 74.9527 292.188 74.695 292.01C74.4462 291.824 74.1352 291.73 73.762 291.73C73.2289 291.73 72.8069 291.926 72.4959 292.317C72.1849 292.699 72.0294 293.245 72.0294 293.956C72.0294 294.658 72.1849 295.205 72.4959 295.595C72.8069 295.978 73.2289 296.169 73.762 296.169C74.5173 296.169 75.0104 295.831 75.2414 295.156H77.254C77.0496 295.955 76.6453 296.591 76.0411 297.062C75.4369 297.533 74.6817 297.768 73.7754 297.768C73.0645 297.768 72.4337 297.612 71.8828 297.301C71.3319 296.982 70.901 296.537 70.59 295.969C70.279 295.391 70.1235 294.72 70.1235 293.956ZM78.1411 293.956C78.1411 293.192 78.2966 292.526 78.6076 291.957C78.9186 291.379 79.3495 290.935 79.9004 290.624C80.4513 290.304 81.0822 290.144 81.793 290.144C82.7082 290.144 83.4634 290.375 84.0588 290.837C84.663 291.291 85.0672 291.93 85.2716 292.757H83.2591C83.1525 292.437 82.9703 292.188 82.7126 292.01C82.4638 291.824 82.1529 291.73 81.7797 291.73C81.2465 291.73 80.8245 291.926 80.5135 292.317C80.2025 292.699 80.047 293.245 80.047 293.956C80.047 294.658 80.2025 295.205 80.5135 295.595C80.8245 295.978 81.2465 296.169 81.7797 296.169C82.5349 296.169 83.0281 295.831 83.2591 295.156H85.2716C85.0672 295.955 84.663 296.591 84.0588 297.062C83.4546 297.533 82.6993 297.768 81.793 297.768C81.0822 297.768 80.4513 297.612 79.9004 297.301C79.3495 296.982 78.9186 296.537 78.6076 295.969C78.2966 295.391 78.1411 294.72 78.1411 293.956ZM89.9172 297.768C89.2064 297.768 88.5667 297.612 87.998 297.301C87.4294 296.982 86.9806 296.533 86.6519 295.955C86.332 295.378 86.1721 294.711 86.1721 293.956C86.1721 293.201 86.3365 292.534 86.6652 291.957C87.0029 291.379 87.4605 290.935 88.038 290.624C88.6155 290.304 89.2597 290.144 89.9706 290.144C90.6814 290.144 91.3256 290.304 91.9031 290.624C92.4807 290.935 92.9338 291.379 93.2626 291.957C93.6002 292.534 93.769 293.201 93.769 293.956C93.769 294.711 93.5958 295.378 93.2492 295.955C92.9116 296.533 92.4496 296.982 91.8631 297.301C91.2856 297.612 90.637 297.768 89.9172 297.768ZM89.9172 296.142C90.2549 296.142 90.5703 296.062 90.8635 295.902C91.1656 295.733 91.4055 295.484 91.5832 295.156C91.761 294.827 91.8498 294.427 91.8498 293.956C91.8498 293.254 91.6632 292.717 91.29 292.343C90.9257 291.961 90.477 291.77 89.9439 291.77C89.4108 291.77 88.9621 291.961 88.5978 292.343C88.2424 292.717 88.0647 293.254 88.0647 293.956C88.0647 294.658 88.2379 295.2 88.5844 295.582C88.9399 295.955 89.3841 296.142 89.9172 296.142ZM102.108 290.264V297.648H100.229V296.715C99.9892 297.035 99.6737 297.288 99.2828 297.475C98.9007 297.652 98.4831 297.741 98.0299 297.741C97.4524 297.741 96.9415 297.621 96.4972 297.381C96.053 297.133 95.702 296.773 95.4443 296.302C95.1955 295.822 95.0711 295.253 95.0711 294.596V290.264H96.937V294.329C96.937 294.916 97.0837 295.369 97.3769 295.689C97.6701 296 98.0699 296.155 98.5764 296.155C99.0917 296.155 99.496 296 99.7892 295.689C100.082 295.369 100.229 294.916 100.229 294.329V290.264H102.108ZM108.041 290.158C108.921 290.158 109.632 290.438 110.174 290.997C110.716 291.548 110.987 292.321 110.987 293.316V297.648H109.121V293.57C109.121 292.983 108.974 292.534 108.681 292.224C108.388 291.904 107.988 291.744 107.481 291.744C106.966 291.744 106.557 291.904 106.255 292.224C105.962 292.534 105.815 292.983 105.815 293.57V297.648H103.949V290.264H105.815V291.184C106.064 290.864 106.379 290.615 106.762 290.438C107.153 290.251 107.579 290.158 108.041 290.158ZM114.933 291.797V295.369C114.933 295.618 114.991 295.8 115.107 295.915C115.231 296.022 115.435 296.075 115.72 296.075H116.586V297.648H115.413C113.84 297.648 113.054 296.884 113.054 295.356V291.797H112.174V290.264H113.054V288.438H114.933V290.264H116.586V291.797H114.933Z" fill="white"/>
<path fill-rule="evenodd" clip-rule="evenodd" d="M323.959 286.831C324.33 286.459 324.933 286.459 325.305 286.831L331.017 292.543C331.389 292.915 331.389 293.517 331.017 293.889L325.305 299.601C324.933 299.973 324.33 299.973 323.959 299.601C323.587 299.229 323.587 298.627 323.959 298.255L328.998 293.216L323.959 288.177C323.587 287.805 323.587 287.203 323.959 286.831Z" fill="#5CE1FE"/>
<line x1="19.0399" y1="121.38" x2="337.96" y2="121.38" stroke="#E6E9ED" stroke-width="0.952"/>
<path fill-rule="evenodd" clip-rule="evenodd" d="M29.512 79.9681C25.8315 79.9681 22.848 82.9517 22.848 86.6321C22.848 90.3125 25.8315 93.2961 29.512 93.2961C31.3074 93.2961 32.937 92.5861 34.1353 91.4315C34.1603 91.3989 34.1878 91.3676 34.2176 91.3377C34.2475 91.3079 34.2788 91.2804 34.3114 91.2554C35.4659 90.0571 36.176 88.4275 36.176 86.6321C36.176 82.9517 33.1924 79.9681 29.512 79.9681ZM36.2063 91.9801C37.3788 90.5144 38.08 88.6551 38.08 86.6321C38.08 81.9001 34.2439 78.0641 29.512 78.0641C24.78 78.0641 20.944 81.9001 20.944 86.6321C20.944 91.3641 24.78 95.2001 29.512 95.2001C31.535 95.2001 33.3942 94.499 34.86 93.3265L38.3588 96.8253C38.7306 97.197 39.3334 97.197 39.7051 96.8253C40.0769 96.4535 40.0769 95.8507 39.7051 95.4789L36.2063 91.9801Z" fill="white"/>
<path d="M57.1199 81.952V83.6733H52.6874V86.3998H56.0841V88.0905H52.6874V92.584H50.5549V81.952H57.1199ZM59.7135 83.1401C59.3378 83.1401 59.023 83.0234 58.7691 82.7898C58.5254 82.5461 58.4036 82.2465 58.4036 81.8911C58.4036 81.5357 58.5254 81.2412 58.7691 81.0077C59.023 80.7639 59.3378 80.6421 59.7135 80.6421C60.0892 80.6421 60.399 80.7639 60.6427 81.0077C60.8965 81.2412 61.0235 81.5357 61.0235 81.8911C61.0235 82.2465 60.8965 82.5461 60.6427 82.7898C60.399 83.0234 60.0892 83.1401 59.7135 83.1401ZM60.7645 84.1455V92.584H58.632V84.1455H60.7645ZM67.5476 84.0236C68.553 84.0236 69.3653 84.3435 69.9848 84.9832C70.6042 85.6128 70.9139 86.4963 70.9139 87.6336V92.584H68.7814V87.923C68.7814 87.2528 68.6139 86.74 68.2788 86.3846C67.9437 86.019 67.4867 85.8362 66.9079 85.8362C66.3189 85.8362 65.8518 86.019 65.5066 86.3846C65.1715 86.74 65.0039 87.2528 65.0039 87.923V92.584H62.8714V84.1455H65.0039V85.1965C65.2882 84.8309 65.6487 84.5466 66.0854 84.3435C66.5322 84.1302 67.0196 84.0236 67.5476 84.0236ZM72.3934 88.3343C72.3934 87.4813 72.561 86.7247 72.8961 86.0647C73.2414 85.4046 73.7085 84.8969 74.2974 84.5415C74.8864 84.1861 75.5414 84.0084 76.2624 84.0084C76.8107 84.0084 77.3337 84.1302 77.8313 84.3739C78.3288 84.6075 78.7249 84.9223 79.0194 85.3183V81.3123H81.1823V92.584H79.0194V91.335C78.7553 91.7513 78.3847 92.0864 77.9074 92.3403C77.4302 92.5941 76.8767 92.7211 76.2471 92.7211C75.5363 92.7211 74.8864 92.5383 74.2974 92.1727C73.7085 91.8072 73.2414 91.2943 72.8961 90.6343C72.561 89.9641 72.3934 89.1974 72.3934 88.3343ZM79.0346 88.3647C79.0346 87.8468 78.9331 87.4051 78.73 87.0395C78.5269 86.6638 78.2527 86.3795 77.9074 86.1865C77.5622 85.9834 77.1915 85.8819 76.7955 85.8819C76.3995 85.8819 76.0339 85.9784 75.6988 86.1713C75.3637 86.3642 75.0895 86.6486 74.8763 87.0243C74.6732 87.3899 74.5716 87.8265 74.5716 88.3343C74.5716 88.842 74.6732 89.2888 74.8763 89.6747C75.0895 90.0504 75.3637 90.3398 75.6988 90.5429C76.044 90.746 76.4096 90.8475 76.7955 90.8475C77.1915 90.8475 77.5622 90.7511 77.9074 90.5581C78.2527 90.355 78.5269 90.0707 78.73 89.7051C78.9331 89.3294 79.0346 88.8826 79.0346 88.3647ZM94.9675 84.1455L89.7429 96.5748H87.4734L89.3012 92.3707L85.9197 84.1455H88.3111L90.4893 90.0402L92.6979 84.1455H94.9675ZM99.8641 92.7211C99.0518 92.7211 98.3206 92.5434 97.6707 92.188C97.0208 91.8224 96.508 91.3096 96.1323 90.6495C95.7667 89.9895 95.5839 89.2279 95.5839 88.3647C95.5839 87.5016 95.7718 86.74 96.1475 86.0799C96.5334 85.4199 97.0564 84.9121 97.7164 84.5567C98.3765 84.1911 99.1127 84.0084 99.9251 84.0084C100.737 84.0084 101.474 84.1911 102.134 84.5567C102.794 84.9121 103.312 85.4199 103.687 86.0799C104.073 86.74 104.266 87.5016 104.266 88.3647C104.266 89.2279 104.068 89.9895 103.672 90.6495C103.286 91.3096 102.758 91.8224 102.088 92.188C101.428 92.5434 100.687 92.7211 99.8641 92.7211ZM99.8641 90.8628C100.25 90.8628 100.61 90.7714 100.946 90.5886C101.291 90.3957 101.565 90.1113 101.768 89.7356C101.971 89.3599 102.073 88.9029 102.073 88.3647C102.073 87.5625 101.86 86.9481 101.433 86.5216C101.017 86.085 100.504 85.8667 99.8946 85.8667C99.2853 85.8667 98.7725 86.085 98.3562 86.5216C97.95 86.9481 97.7469 87.5625 97.7469 88.3647C97.7469 89.1669 97.9449 89.7864 98.3409 90.223C98.7471 90.6495 99.2548 90.8628 99.8641 90.8628ZM113.797 84.1455V92.584H111.649V91.5177C111.375 91.8833 111.014 92.1727 110.568 92.386C110.131 92.5891 109.654 92.6906 109.136 92.6906C108.476 92.6906 107.892 92.5535 107.384 92.2793C106.876 91.995 106.475 91.5837 106.181 91.0456C105.896 90.4972 105.754 89.8473 105.754 89.0959V84.1455H107.887V88.7912C107.887 89.4614 108.054 89.9793 108.389 90.3449C108.725 90.7003 109.181 90.878 109.76 90.878C110.349 90.878 110.811 90.7003 111.146 90.3449C111.482 89.9793 111.649 89.4614 111.649 88.7912V84.1455H113.797ZM118.033 85.4554C118.307 85.0086 118.663 84.6583 119.1 84.4044C119.546 84.1505 120.054 84.0236 120.623 84.0236V86.2627H120.059C119.389 86.2627 118.881 86.4201 118.536 86.7349C118.201 87.0497 118.033 87.598 118.033 88.38V92.584H115.901V84.1455H118.033V85.4554ZM125.14 88.3343C125.14 87.4813 125.308 86.7247 125.643 86.0647C125.988 85.4046 126.45 84.8969 127.029 84.5415C127.618 84.1861 128.273 84.0084 128.994 84.0084C129.623 84.0084 130.172 84.1353 130.639 84.3892C131.116 84.643 131.497 84.9629 131.781 85.3488V84.1455H133.929V92.584H131.781V91.3502C131.507 91.7462 131.126 92.0763 130.639 92.3403C130.162 92.5941 129.608 92.7211 128.979 92.7211C128.268 92.7211 127.618 92.5383 127.029 92.1727C126.45 91.8072 125.988 91.2943 125.643 90.6343C125.308 89.9641 125.14 89.1974 125.14 88.3343ZM131.781 88.3647C131.781 87.8468 131.68 87.4051 131.477 87.0395C131.274 86.6638 130.999 86.3795 130.654 86.1865C130.309 85.9834 129.938 85.8819 129.542 85.8819C129.146 85.8819 128.781 85.9784 128.446 86.1713C128.11 86.3642 127.836 86.6486 127.623 87.0243C127.42 87.3899 127.318 87.8265 127.318 88.3343C127.318 88.842 127.42 89.2888 127.623 89.6747C127.836 90.0504 128.11 90.3398 128.446 90.5429C128.791 90.746 129.156 90.8475 129.542 90.8475C129.938 90.8475 130.309 90.7511 130.654 90.5581C130.999 90.355 131.274 90.0707 131.477 89.7051C131.68 89.3294 131.781 88.8826 131.781 88.3647ZM140.688 84.0236C141.693 84.0236 142.506 84.3435 143.125 84.9832C143.745 85.6128 144.054 86.4963 144.054 87.6336V92.584H141.922V87.923C141.922 87.2528 141.754 86.74 141.419 86.3846C141.084 86.019 140.627 85.8362 140.048 85.8362C139.459 85.8362 138.992 86.019 138.647 86.3846C138.312 86.74 138.144 87.2528 138.144 87.923V92.584H136.012V84.1455H138.144V85.1965C138.429 84.8309 138.789 84.5466 139.226 84.3435C139.673 84.1302 140.16 84.0236 140.688 84.0236ZM149.311 92.7211C148.621 92.7211 148.001 92.5992 147.453 92.3555C146.905 92.1016 146.468 91.7615 146.143 91.335C145.828 90.9085 145.656 90.4363 145.625 89.9184H147.773C147.814 90.2433 147.971 90.5124 148.245 90.7257C148.529 90.9389 148.88 91.0456 149.296 91.0456C149.702 91.0456 150.017 90.9643 150.241 90.8018C150.474 90.6394 150.591 90.4312 150.591 90.1773C150.591 89.9032 150.449 89.7001 150.164 89.568C149.89 89.4259 149.448 89.2736 148.839 89.1111C148.21 88.9588 147.692 88.8014 147.286 88.6389C146.889 88.4764 146.544 88.2276 146.25 87.8925C145.965 87.5574 145.823 87.1055 145.823 86.5369C145.823 86.0698 145.955 85.6433 146.219 85.2574C146.493 84.8715 146.879 84.5669 147.377 84.3435C147.885 84.1201 148.479 84.0084 149.159 84.0084C150.164 84.0084 150.967 84.2622 151.566 84.77C152.165 85.2675 152.495 85.9428 152.556 86.7958H150.515C150.484 86.4607 150.342 86.1967 150.088 86.0038C149.844 85.8007 149.514 85.6991 149.098 85.6991C148.712 85.6991 148.413 85.7702 148.199 85.9124C147.996 86.0545 147.895 86.2525 147.895 86.5064C147.895 86.7907 148.037 87.0091 148.321 87.1614C148.606 87.3036 149.047 87.4508 149.646 87.6031C150.256 87.7554 150.758 87.9128 151.154 88.0753C151.55 88.2378 151.891 88.4917 152.175 88.8369C152.469 89.172 152.622 89.6188 152.632 90.1773C152.632 90.6648 152.495 91.1014 152.221 91.4873C151.957 91.8732 151.571 92.1778 151.063 92.4012C150.565 92.6144 149.982 92.7211 149.311 92.7211ZM166.081 84.1455L163.613 92.584H161.313L159.775 86.6892L158.236 92.584H155.921L153.438 84.1455H155.601L157.094 90.5734L158.708 84.1455H160.963L162.547 90.5581L164.04 84.1455H166.081ZM175.079 88.1819C175.079 88.4866 175.059 88.7608 175.018 89.0045H168.849C168.9 89.6137 169.113 90.091 169.489 90.4363C169.865 90.7815 170.327 90.9542 170.875 90.9542C171.667 90.9542 172.231 90.614 172.566 89.9336H174.866C174.622 90.746 174.155 91.4162 173.464 91.9442C172.774 92.4621 171.926 92.7211 170.921 92.7211C170.108 92.7211 169.377 92.5434 168.727 92.188C168.087 91.8224 167.585 91.3096 167.219 90.6495C166.864 89.9895 166.686 89.2279 166.686 88.3647C166.686 87.4914 166.864 86.7247 167.219 86.0647C167.575 85.4046 168.072 84.8969 168.712 84.5415C169.352 84.1861 170.088 84.0084 170.921 84.0084C171.723 84.0084 172.439 84.181 173.068 84.5263C173.708 84.8715 174.201 85.364 174.546 86.0038C174.901 86.6333 175.079 87.3594 175.079 88.1819ZM172.87 87.5727C172.86 87.0243 172.662 86.5877 172.276 86.2627C171.89 85.9276 171.418 85.76 170.86 85.76C170.332 85.76 169.885 85.9225 169.519 86.2475C169.164 86.5623 168.946 87.004 168.864 87.5727H172.87ZM178.768 85.4554C179.042 85.0086 179.398 84.6583 179.834 84.4044C180.281 84.1505 180.789 84.0236 181.357 84.0236V86.2627H180.794C180.124 86.2627 179.616 86.4201 179.271 86.7349C178.935 87.0497 178.768 87.598 178.768 88.38V92.584H176.635V84.1455H178.768V85.4554ZM191.176 84.0236C191.815 84.0236 192.384 84.1658 192.882 84.4501C193.379 84.7243 193.765 85.1355 194.039 85.6839C194.324 86.2221 194.466 86.872 194.466 87.6336V92.584H192.333V87.923C192.333 87.2528 192.166 86.74 191.831 86.3846C191.495 86.019 191.038 85.8362 190.46 85.8362C189.871 85.8362 189.404 86.019 189.058 86.3846C188.723 86.74 188.556 87.2528 188.556 87.923V92.584H186.423V81.3123H188.556V85.1965C188.83 84.8309 189.195 84.5466 189.652 84.3435C190.109 84.1302 190.617 84.0236 191.176 84.0236ZM204.338 88.1819C204.338 88.4866 204.318 88.7608 204.277 89.0045H198.108C198.159 89.6137 198.372 90.091 198.748 90.4363C199.124 90.7815 199.586 90.9542 200.134 90.9542C200.926 90.9542 201.49 90.614 201.825 89.9336H204.125C203.881 90.746 203.414 91.4162 202.723 91.9442C202.033 92.4621 201.185 92.7211 200.18 92.7211C199.367 92.7211 198.636 92.5434 197.986 92.188C197.347 91.8224 196.844 91.3096 196.478 90.6495C196.123 89.9895 195.945 89.2279 195.945 88.3647C195.945 87.4914 196.123 86.7247 196.478 86.0647C196.834 85.4046 197.331 84.8969 197.971 84.5415C198.611 84.1861 199.347 84.0084 200.18 84.0084C200.982 84.0084 201.698 84.181 202.327 84.5263C202.967 84.8715 203.46 85.364 203.805 86.0038C204.16 86.6333 204.338 87.3594 204.338 88.1819ZM202.129 87.5727C202.119 87.0243 201.921 86.5877 201.535 86.2627C201.149 85.9276 200.677 85.76 200.119 85.76C199.591 85.76 199.144 85.9225 198.778 86.2475C198.423 86.5623 198.205 87.004 198.123 87.5727H202.129ZM208.027 85.4554C208.301 85.0086 208.657 84.6583 209.093 84.4044C209.54 84.1505 210.048 84.0236 210.616 84.0236V86.2627H210.053C209.383 86.2627 208.875 86.4201 208.53 86.7349C208.195 87.0497 208.027 87.598 208.027 88.38V92.584H205.895V84.1455H208.027V85.4554ZM219.897 88.1819C219.897 88.4866 219.877 88.7608 219.836 89.0045H213.667C213.718 89.6137 213.931 90.091 214.307 90.4363C214.683 90.7815 215.145 90.9542 215.693 90.9542C216.485 90.9542 217.049 90.614 217.384 89.9336H219.684C219.44 90.746 218.973 91.4162 218.283 91.9442C217.592 92.4621 216.744 92.7211 215.739 92.7211C214.927 92.7211 214.195 92.5434 213.546 92.188C212.906 91.8224 212.403 91.3096 212.038 90.6495C211.682 89.9895 211.504 89.2279 211.504 88.3647C211.504 87.4914 211.682 86.7247 212.038 86.0647C212.393 85.4046 212.891 84.8969 213.53 84.5415C214.17 84.1861 214.906 84.0084 215.739 84.0084C216.541 84.0084 217.257 84.181 217.887 84.5263C218.526 84.8715 219.019 85.364 219.364 86.0038C219.72 86.6333 219.897 87.3594 219.897 88.1819ZM217.689 87.5727C217.679 87.0243 217.481 86.5877 217.095 86.2627C216.709 85.9276 216.237 85.76 215.678 85.76C215.15 85.76 214.703 85.9225 214.338 86.2475C213.982 86.5623 213.764 87.004 213.683 87.5727H217.689Z" fill="white"/>
</g>
<rect x="0.5" y="0.5" width="356" height="326.488" stroke="#2E2E2E"/>
<defs>
<linearGradient id="paint0_linear_0_372" x1="178.5" y1="0" x2="178.5" y2="327.488" gradientUnits="userSpaceOnUse">
<stop stop-color="#333333"/>
<stop offset="1" stop-color="#1F1F1F" stop-opacity="0"/>
</linearGradient>
<clipPath id="clip0_0_372">
<rect width="357" height="327.488" fill="white"/>
</clipPath>
</defs>
</svg>
