<svg width="572" height="386" viewBox="0 0 572 386" fill="none" xmlns="http://www.w3.org/2000/svg">
<rect x="0.5" y="0.5" width="570.691" height="414.674" fill="url(#paint0_linear_0_552)"/>
<rect x="0.5" y="0.5" width="570.691" height="414.674" stroke="#2E2E2E"/>
<path d="M42.908 62.0587C41.3327 62.0587 39.8861 61.689 38.568 60.9495C37.2499 60.2101 36.2051 59.1894 35.4335 57.8874C34.662 56.5694 34.2762 55.0825 34.2762 53.4269C34.2762 51.7873 34.662 50.3165 35.4335 49.0145C36.2051 47.6965 37.2499 46.6677 38.568 45.9283C39.8861 45.1889 41.3327 44.8192 42.908 44.8192C44.4993 44.8192 45.946 45.1889 47.248 45.9283C48.5661 46.6677 49.6028 47.6965 50.3583 49.0145C51.1299 50.3165 51.5157 51.7873 51.5157 53.4269C51.5157 55.0825 51.1299 56.5694 50.3583 57.8874C49.6028 59.1894 48.5661 60.2101 47.248 60.9495C45.9299 61.689 44.4832 62.0587 42.908 62.0587ZM42.908 59.0448C43.9207 59.0448 44.8128 58.8197 45.5843 58.3697C46.3559 57.9035 46.9587 57.2445 47.3927 56.3925C47.8267 55.5406 48.0437 54.5521 48.0437 53.4269C48.0437 52.3017 47.8267 51.3212 47.3927 50.4853C46.9587 49.6334 46.3559 48.9824 45.5843 48.5323C44.8128 48.0822 43.9207 47.8572 42.908 47.8572C41.8953 47.8572 40.9952 48.0822 40.2075 48.5323C39.436 48.9824 38.8332 49.6334 38.3992 50.4853C37.9652 51.3212 37.7482 52.3017 37.7482 53.4269C37.7482 54.5521 37.9652 55.5406 38.3992 56.3925C38.8332 57.2445 39.436 57.9035 40.2075 58.3697C40.9952 58.8197 41.8953 59.0448 42.908 59.0448ZM66.6371 48.5323V61.8899H63.2374V60.2021C62.8034 60.7808 62.2328 61.2389 61.5255 61.5764C60.8344 61.8979 60.0789 62.0587 59.2591 62.0587C58.2143 62.0587 57.29 61.8417 56.4863 61.4077C55.6826 60.9576 55.0477 60.3066 54.5815 59.4547C54.1315 58.5867 53.9064 57.5579 53.9064 56.3684V48.5323H57.282V55.8862C57.282 56.9471 57.5472 57.7669 58.0777 58.3455C58.6081 58.9081 59.3314 59.1894 60.2477 59.1894C61.18 59.1894 61.9113 58.9081 62.4418 58.3455C62.9722 57.7669 63.2374 56.9471 63.2374 55.8862V48.5323H66.6371ZM73.8978 51.3051V57.7669C73.8978 58.2169 74.0022 58.5465 74.2112 58.7554C74.4362 58.9483 74.8059 59.0448 75.3203 59.0448H76.8875V61.8899H74.7658C71.9206 61.8899 70.4981 60.5075 70.4981 57.7428V51.3051H68.9068V48.5323H70.4981V45.2291H73.8978V48.5323H76.8875V51.3051H73.8978ZM85.4396 51.3051H83.1009V61.8899H79.6771V51.3051H78.1581V48.5323H79.6771V47.8572C79.6771 46.2176 80.1432 45.0121 81.0755 44.2405C82.0078 43.469 83.4143 43.1073 85.295 43.1555V46.0006C84.4752 45.9846 83.9046 46.1212 83.5831 46.4105C83.2616 46.6999 83.1009 47.2223 83.1009 47.9778V48.5323H85.4396V51.3051ZM91.0027 44.0476V61.8899H87.6272V44.0476H91.0027ZM100.269 62.1069C98.9832 62.1069 97.8259 61.8256 96.7971 61.263C95.7684 60.6843 94.9566 59.8726 94.3619 58.8278C93.7832 57.7829 93.4939 56.5774 93.4939 55.2111C93.4939 53.8448 93.7913 52.6392 94.386 51.5944C94.9968 50.5496 95.8246 49.7459 96.8695 49.1833C97.9143 48.6046 99.0796 48.3153 100.366 48.3153C101.651 48.3153 102.817 48.6046 103.862 49.1833C104.906 49.7459 105.726 50.5496 106.321 51.5944C106.932 52.6392 107.237 53.8448 107.237 55.2111C107.237 56.5774 106.924 57.7829 106.297 58.8278C105.686 59.8726 104.85 60.6843 103.789 61.263C102.745 61.8256 101.571 62.1069 100.269 62.1069ZM100.269 59.1653C100.88 59.1653 101.451 59.0207 101.981 58.7313C102.528 58.4259 102.962 57.9758 103.283 57.3811C103.604 56.7864 103.765 56.063 103.765 55.2111C103.765 53.9412 103.428 52.9688 102.753 52.2936C102.094 51.6025 101.282 51.2569 100.317 51.2569C99.3529 51.2569 98.5412 51.6025 97.8821 52.2936C97.2392 52.9688 96.9177 53.9412 96.9177 55.2111C96.9177 56.4809 97.2311 57.4615 97.858 58.1527C98.501 58.8278 99.3047 59.1653 100.269 59.1653ZM128.231 48.5323L124.325 61.8899H120.684L118.249 52.5589L115.813 61.8899H112.149L108.218 48.5323H111.642L114.005 58.7072L116.561 48.5323H120.129L122.637 58.6831L125 48.5323H128.231ZM134.934 55.1629C134.934 53.8126 135.2 52.6151 135.73 51.5703C136.277 50.5255 137.016 49.7218 137.948 49.1592C138.881 48.5966 139.917 48.3153 141.059 48.3153C141.927 48.3153 142.754 48.5082 143.542 48.894C144.33 49.2637 144.957 49.762 145.423 50.3889V44.0476H148.846V61.8899H145.423V59.9128C145.005 60.5718 144.418 61.1022 143.663 61.5041C142.907 61.906 142.031 62.1069 141.034 62.1069C139.909 62.1069 138.881 61.8175 137.948 61.2389C137.016 60.6602 136.277 59.8485 135.73 58.8037C135.2 57.7428 134.934 56.5292 134.934 55.1629ZM145.447 55.2111C145.447 54.3913 145.286 53.6921 144.965 53.1134C144.643 52.5187 144.209 52.0686 143.663 51.7632C143.116 51.4417 142.529 51.281 141.902 51.281C141.276 51.281 140.697 51.4337 140.166 51.7391C139.636 52.0445 139.202 52.4946 138.864 53.0893C138.543 53.668 138.382 54.3592 138.382 55.1629C138.382 55.9666 138.543 56.6738 138.864 57.2847C139.202 57.8794 139.636 58.3375 140.166 58.659C140.713 58.9805 141.292 59.1412 141.902 59.1412C142.529 59.1412 143.116 58.9885 143.663 58.6831C144.209 58.3616 144.643 57.9115 144.965 57.3329C145.286 56.7381 145.447 56.0309 145.447 55.2111ZM164.561 54.9218C164.561 55.404 164.528 55.838 164.464 56.2238H154.699C154.779 57.1882 155.117 57.9437 155.712 58.4902C156.306 59.0367 157.038 59.31 157.906 59.31C159.16 59.31 160.052 58.7715 160.582 57.6945H164.223C163.837 58.9805 163.098 60.0414 162.005 60.8772C160.912 61.697 159.57 62.1069 157.978 62.1069C156.692 62.1069 155.535 61.8256 154.506 61.263C153.494 60.6843 152.698 59.8726 152.119 58.8278C151.557 57.7829 151.275 56.5774 151.275 55.2111C151.275 53.8287 151.557 52.6151 152.119 51.5703C152.682 50.5255 153.469 49.7218 154.482 49.1592C155.495 48.5966 156.66 48.3153 157.978 48.3153C159.248 48.3153 160.381 48.5886 161.378 49.1351C162.391 49.6816 163.17 50.4612 163.717 51.4739C164.279 52.4705 164.561 53.6198 164.561 54.9218ZM161.064 53.9573C161.048 53.0893 160.735 52.3981 160.124 51.8838C159.513 51.3533 158.766 51.0881 157.882 51.0881C157.046 51.0881 156.339 51.3453 155.76 51.8596C155.197 52.3579 154.852 53.0572 154.723 53.9573H161.064ZM170.954 51.3051V57.7669C170.954 58.2169 171.059 58.5465 171.268 58.7554C171.493 58.9483 171.863 59.0448 172.377 59.0448H173.944V61.8899H171.822C168.977 61.8899 167.555 60.5075 167.555 57.7428V51.3051H165.963V48.5323H167.555V45.2291H170.954V48.5323H173.944V51.3051H170.954ZM175.504 55.1629C175.504 53.8126 175.769 52.6151 176.3 51.5703C176.846 50.5255 177.578 49.7218 178.494 49.1592C179.426 48.5966 180.463 48.3153 181.604 48.3153C182.601 48.3153 183.469 48.5162 184.208 48.9181C184.964 49.3199 185.567 49.8263 186.017 50.4371V48.5323H189.416V61.8899H186.017V59.9369C185.583 60.5638 184.98 61.0862 184.208 61.5041C183.453 61.906 182.577 62.1069 181.58 62.1069C180.455 62.1069 179.426 61.8175 178.494 61.2389C177.578 60.6602 176.846 59.8485 176.3 58.8037C175.769 57.7428 175.504 56.5292 175.504 55.1629ZM186.017 55.2111C186.017 54.3913 185.856 53.6921 185.534 53.1134C185.213 52.5187 184.779 52.0686 184.232 51.7632C183.686 51.4417 183.099 51.281 182.472 51.281C181.845 51.281 181.267 51.4337 180.736 51.7391C180.206 52.0445 179.772 52.4946 179.434 53.0893C179.113 53.668 178.952 54.3592 178.952 55.1629C178.952 55.9666 179.113 56.6738 179.434 57.2847C179.772 57.8794 180.206 58.3375 180.736 58.659C181.283 58.9805 181.861 59.1412 182.472 59.1412C183.099 59.1412 183.686 58.9885 184.232 58.6831C184.779 58.3616 185.213 57.9115 185.534 57.3329C185.856 56.7381 186.017 56.0309 186.017 55.2111ZM194.425 46.941C193.83 46.941 193.332 46.7561 192.93 46.3864C192.544 46.0006 192.351 45.5265 192.351 44.9639C192.351 44.4013 192.544 43.9351 192.93 43.5654C193.332 43.1796 193.83 42.9867 194.425 42.9867C195.02 42.9867 195.51 43.1796 195.896 43.5654C196.298 43.9351 196.499 44.4013 196.499 44.9639C196.499 45.5265 196.298 46.0006 195.896 46.3864C195.51 46.7561 195.02 46.941 194.425 46.941ZM196.089 48.5323V61.8899H192.713V48.5323H196.089ZM202.799 44.0476V61.8899H199.424V44.0476H202.799Z" fill="white"/>
<path opacity="0.7" d="M43.6494 82.9594L39.5445 90.8076V95.5635H37.8989V90.8076L33.7759 82.9594H35.6023L38.7127 89.3428L41.823 82.9594H43.6494ZM49.707 95.7263C48.7788 95.7263 47.9349 95.5153 47.1754 95.0933C46.4279 94.6714 45.8372 94.0746 45.4032 93.3031C44.9813 92.5195 44.7703 91.6153 44.7703 90.5906C44.7703 89.5779 44.9873 88.6858 45.4213 87.9143C45.8673 87.1306 46.4701 86.5339 47.2296 86.124C47.9891 85.7021 48.839 85.4911 49.7794 85.4911C50.7197 85.4911 51.5696 85.7021 52.3291 86.124C53.0886 86.5339 53.6854 87.1246 54.1194 87.8962C54.5654 88.6677 54.7885 89.5659 54.7885 90.5906C54.7885 91.6153 54.5594 92.5195 54.1013 93.3031C53.6552 94.0746 53.0464 94.6714 52.2749 95.0933C51.5033 95.5153 50.6474 95.7263 49.707 95.7263ZM49.707 94.2796C50.2978 94.2796 50.8523 94.141 51.3707 93.8637C51.8891 93.5864 52.305 93.1705 52.6185 92.6159C52.944 92.0614 53.1067 91.3863 53.1067 90.5906C53.1067 89.7949 52.95 89.1198 52.6365 88.5653C52.3231 88.0107 51.9132 87.6008 51.4069 87.3356C50.9005 87.0583 50.352 86.9197 49.7613 86.9197C49.1585 86.9197 48.604 87.0583 48.0976 87.3356C47.6033 87.6008 47.2055 88.0107 46.9041 88.5653C46.6027 89.1198 46.452 89.7949 46.452 90.5906C46.452 91.3983 46.5967 92.0794 46.886 92.634C47.1874 93.1886 47.5853 93.6045 48.0795 93.8818C48.5738 94.147 49.1163 94.2796 49.707 94.2796ZM65.7406 85.6538V95.5635H64.095V94.0988C63.7816 94.6051 63.3416 95.0029 62.7749 95.2923C62.2204 95.5695 61.6056 95.7082 60.9304 95.7082C60.1589 95.7082 59.4657 95.5515 58.8509 95.238C58.236 94.9125 57.7478 94.4303 57.3861 93.7913C57.0365 93.1524 56.8617 92.3748 56.8617 91.4586V85.6538H58.4892V91.2416C58.4892 92.2181 58.7363 92.9716 59.2306 93.502C59.7249 94.0204 60.4 94.2796 61.2559 94.2796C62.136 94.2796 62.8292 94.0083 63.3355 93.4658C63.8419 92.9233 64.095 92.1337 64.095 91.0969V85.6538H65.7406ZM72.7253 90.5906C72.7253 89.5659 72.9303 88.6738 73.3401 87.9143C73.75 87.1427 74.3166 86.5459 75.04 86.124C75.7754 85.7021 76.6132 85.4911 77.5536 85.4911C78.7712 85.4911 79.7718 85.7864 80.5554 86.3772C81.3511 86.9679 81.8755 87.7877 82.1287 88.8365H80.3565C80.1877 88.2337 79.8562 87.7575 79.3619 87.4079C78.8797 87.0583 78.2769 86.8835 77.5536 86.8835C76.6132 86.8835 75.8537 87.209 75.2751 87.86C74.6964 88.4989 74.4071 89.4091 74.4071 90.5906C74.4071 91.7841 74.6964 92.7063 75.2751 93.3573C75.8537 94.0083 76.6132 94.3338 77.5536 94.3338C78.2769 94.3338 78.8797 94.1651 79.3619 93.8275C79.8441 93.4899 80.1757 93.0077 80.3565 92.3808H82.1287C81.8634 93.3935 81.333 94.2073 80.5373 94.8221C79.7417 95.4249 78.7471 95.7263 77.5536 95.7263C76.6132 95.7263 75.7754 95.5153 75.04 95.0933C74.3166 94.6714 73.75 94.0746 73.3401 93.3031C72.9303 92.5315 72.7253 91.6274 72.7253 90.5906ZM83.7095 90.5725C83.7095 89.5598 83.9145 88.6738 84.3244 87.9143C84.7343 87.1427 85.2948 86.5459 86.0061 86.124C86.7295 85.7021 87.5311 85.4911 88.4112 85.4911C89.2792 85.4911 90.0327 85.6779 90.6716 86.0517C91.3106 86.4254 91.7868 86.8956 92.1002 87.4622V85.6538H93.7639V95.5635H92.1002V93.719C91.7747 94.2977 91.2865 94.7799 90.6355 95.1657C89.9965 95.5394 89.2491 95.7263 88.3931 95.7263C87.5131 95.7263 86.7174 95.5093 86.0061 95.0753C85.2948 94.6413 84.7343 94.0325 84.3244 93.2488C83.9145 92.4652 83.7095 91.5731 83.7095 90.5725ZM92.1002 90.5906C92.1002 89.8431 91.9495 89.1921 91.6481 88.6376C91.3467 88.083 90.9368 87.6611 90.4185 87.3717C89.9121 87.0704 89.3515 86.9197 88.7367 86.9197C88.1219 86.9197 87.5613 87.0643 87.055 87.3537C86.5486 87.643 86.1448 88.0649 85.8434 88.6195C85.542 89.1741 85.3913 89.8251 85.3913 90.5725C85.3913 91.332 85.542 91.9951 85.8434 92.5617C86.1448 93.1162 86.5486 93.5442 87.055 93.8456C87.5613 94.1349 88.1219 94.2796 88.7367 94.2796C89.3515 94.2796 89.9121 94.1349 90.4185 93.8456C90.9368 93.5442 91.3467 93.1162 91.6481 92.5617C91.9495 91.9951 92.1002 91.338 92.1002 90.5906ZM101.373 85.473C102.579 85.473 103.555 85.8407 104.303 86.5761C105.05 87.2994 105.424 88.3483 105.424 89.7226V95.5635H103.796V89.9577C103.796 88.9691 103.549 88.2156 103.055 87.6972C102.56 87.1668 101.885 86.9016 101.029 86.9016C100.161 86.9016 99.4682 87.1728 98.9498 87.7153C98.4435 88.2578 98.1903 89.0475 98.1903 90.0843V95.5635H96.5448V85.6538H98.1903V87.0643C98.5158 86.558 98.9559 86.1662 99.5104 85.8889C100.077 85.6116 100.698 85.473 101.373 85.473ZM112.318 90.5906C112.318 89.5659 112.523 88.6738 112.933 87.9143C113.343 87.1427 113.909 86.5459 114.633 86.124C115.368 85.7021 116.206 85.4911 117.146 85.4911C118.364 85.4911 119.364 85.7864 120.148 86.3772C120.944 86.9679 121.468 87.7877 121.721 88.8365H119.949C119.78 88.2337 119.449 87.7575 118.955 87.4079C118.472 87.0583 117.87 86.8835 117.146 86.8835C116.206 86.8835 115.446 87.209 114.868 87.86C114.289 88.4989 114 89.4091 114 90.5906C114 91.7841 114.289 92.7063 114.868 93.3573C115.446 94.0083 116.206 94.3338 117.146 94.3338C117.87 94.3338 118.472 94.1651 118.955 93.8275C119.437 93.4899 119.768 93.0077 119.949 92.3808H121.721C121.456 93.3935 120.926 94.2073 120.13 94.8221C119.334 95.4249 118.34 95.7263 117.146 95.7263C116.206 95.7263 115.368 95.5153 114.633 95.0933C113.909 94.6714 113.343 94.0746 112.933 93.3031C112.523 92.5315 112.318 91.6274 112.318 90.5906ZM128.836 85.473C129.583 85.473 130.258 85.6357 130.861 85.9612C131.464 86.2747 131.934 86.7509 132.272 87.3898C132.621 88.0288 132.796 88.8064 132.796 89.7226V95.5635H131.168V89.9577C131.168 88.9691 130.921 88.2156 130.427 87.6972C129.933 87.1668 129.258 86.9016 128.402 86.9016C127.534 86.9016 126.84 87.1728 126.322 87.7153C125.816 88.2578 125.563 89.0475 125.563 90.0843V95.5635H123.917V82.1818H125.563V87.0643C125.888 86.558 126.334 86.1662 126.901 85.8889C127.479 85.6116 128.124 85.473 128.836 85.473ZM144.526 90.2289C144.526 90.5424 144.508 90.8739 144.471 91.2235H136.551C136.611 92.2 136.943 92.9655 137.546 93.5201C138.16 94.0626 138.902 94.3338 139.77 94.3338C140.481 94.3338 141.072 94.1711 141.542 93.8456C142.024 93.508 142.362 93.062 142.555 92.5074H144.327C144.062 93.4598 143.531 94.2374 142.735 94.8402C141.94 95.4309 140.951 95.7263 139.77 95.7263C138.829 95.7263 137.986 95.5153 137.238 95.0933C136.503 94.6714 135.924 94.0746 135.502 93.3031C135.08 92.5195 134.869 91.6153 134.869 90.5906C134.869 89.5659 135.074 88.6677 135.484 87.8962C135.894 87.1246 136.467 86.5339 137.202 86.124C137.949 85.7021 138.805 85.4911 139.77 85.4911C140.71 85.4911 141.542 85.696 142.265 86.1059C142.989 86.5158 143.543 87.0824 143.929 87.8057C144.327 88.517 144.526 89.3248 144.526 90.2289ZM142.826 89.8853C142.826 89.2584 142.687 88.722 142.41 88.2759C142.133 87.8178 141.753 87.4742 141.271 87.2452C140.801 87.0041 140.276 86.8835 139.697 86.8835C138.866 86.8835 138.154 87.1487 137.564 87.6792C136.985 88.2096 136.653 88.945 136.569 89.8853H142.826ZM146.083 90.5906C146.083 89.5659 146.288 88.6738 146.698 87.9143C147.108 87.1427 147.674 86.5459 148.398 86.124C149.133 85.7021 149.971 85.4911 150.911 85.4911C152.129 85.4911 153.129 85.7864 153.913 86.3772C154.709 86.9679 155.233 87.7877 155.486 88.8365H153.714C153.545 88.2337 153.214 87.7575 152.72 87.4079C152.237 87.0583 151.635 86.8835 150.911 86.8835C149.971 86.8835 149.211 87.209 148.633 87.86C148.054 88.4989 147.765 89.4091 147.765 90.5906C147.765 91.7841 148.054 92.7063 148.633 93.3573C149.211 94.0083 149.971 94.3338 150.911 94.3338C151.635 94.3338 152.237 94.1651 152.72 93.8275C153.202 93.4899 153.533 93.0077 153.714 92.3808H155.486C155.221 93.3935 154.691 94.2073 153.895 94.8221C153.099 95.4249 152.105 95.7263 150.911 95.7263C149.971 95.7263 149.133 95.5153 148.398 95.0933C147.674 94.6714 147.108 94.0746 146.698 93.3031C146.288 92.5315 146.083 91.6274 146.083 90.5906ZM163.216 95.5635L159.328 91.1873V95.5635H157.682V82.1818H159.328V90.0481L163.143 85.6538H165.44L160.774 90.5906L165.458 95.5635H163.216ZM185.01 85.6538L181.918 95.5635H180.218L177.831 87.6972L175.444 95.5635H173.745L170.634 85.6538H172.316L174.594 93.9722L177.054 85.6538H178.736L181.141 93.9903L183.383 85.6538H185.01ZM191.562 85.473C192.31 85.473 192.985 85.6357 193.588 85.9612C194.19 86.2747 194.661 86.7509 194.998 87.3898C195.348 88.0288 195.523 88.8064 195.523 89.7226V95.5635H193.895V89.9577C193.895 88.9691 193.648 88.2156 193.154 87.6972C192.659 87.1668 191.984 86.9016 191.128 86.9016C190.26 86.9016 189.567 87.1728 189.049 87.7153C188.542 88.2578 188.289 89.0475 188.289 90.0843V95.5635H186.644V82.1818H188.289V87.0643C188.615 86.558 189.061 86.1662 189.627 85.8889C190.206 85.6116 190.851 85.473 191.562 85.473ZM207.252 90.2289C207.252 90.5424 207.234 90.8739 207.198 91.2235H199.278C199.338 92.2 199.669 92.9655 200.272 93.5201C200.887 94.0626 201.628 94.3338 202.496 94.3338C203.208 94.3338 203.798 94.1711 204.269 93.8456C204.751 93.508 205.088 93.062 205.281 92.5074H207.053C206.788 93.4598 206.258 94.2374 205.462 94.8402C204.666 95.4309 203.678 95.7263 202.496 95.7263C201.556 95.7263 200.712 95.5153 199.965 95.0933C199.229 94.6714 198.651 94.0746 198.229 93.3031C197.807 92.5195 197.596 91.6153 197.596 90.5906C197.596 89.5659 197.801 88.6677 198.211 87.8962C198.62 87.1246 199.193 86.5339 199.929 86.124C200.676 85.7021 201.532 85.4911 202.496 85.4911C203.437 85.4911 204.269 85.696 204.992 86.1059C205.715 86.5158 206.27 87.0824 206.656 87.8057C207.053 88.517 207.252 89.3248 207.252 90.2289ZM205.552 89.8853C205.552 89.2584 205.414 88.722 205.137 88.2759C204.859 87.8178 204.48 87.4742 203.997 87.2452C203.527 87.0041 203.003 86.8835 202.424 86.8835C201.592 86.8835 200.881 87.1487 200.29 87.6792C199.712 88.2096 199.38 88.945 199.296 89.8853H205.552ZM211.07 87.2632C211.359 86.6966 211.769 86.2566 212.3 85.9432C212.842 85.6297 213.499 85.473 214.271 85.473V87.1728H213.837C211.992 87.1728 211.07 88.1734 211.07 90.1747V95.5635H209.424V85.6538H211.07V87.2632ZM225.212 90.2289C225.212 90.5424 225.194 90.8739 225.158 91.2235H217.237C217.298 92.2 217.629 92.9655 218.232 93.5201C218.847 94.0626 219.588 94.3338 220.456 94.3338C221.167 94.3338 221.758 94.1711 222.228 93.8456C222.71 93.508 223.048 93.062 223.241 92.5074H225.013C224.748 93.4598 224.217 94.2374 223.422 94.8402C222.626 95.4309 221.638 95.7263 220.456 95.7263C219.516 95.7263 218.672 95.5153 217.924 95.0933C217.189 94.6714 216.61 94.0746 216.188 93.3031C215.766 92.5195 215.556 91.6153 215.556 90.5906C215.556 89.5659 215.76 88.6677 216.17 87.8962C216.58 87.1246 217.153 86.5339 217.888 86.124C218.636 85.7021 219.492 85.4911 220.456 85.4911C221.396 85.4911 222.228 85.696 222.952 86.1059C223.675 86.5158 224.229 87.0824 224.615 87.8057C225.013 88.517 225.212 89.3248 225.212 90.2289ZM223.512 89.8853C223.512 89.2584 223.374 88.722 223.096 88.2759C222.819 87.8178 222.439 87.4742 221.957 87.2452C221.487 87.0041 220.962 86.8835 220.384 86.8835C219.552 86.8835 218.841 87.1487 218.25 87.6792C217.671 88.2096 217.34 88.945 217.255 89.8853H223.512ZM240.741 85.6538L234.773 100.229H233.073L235.026 95.455L231.03 85.6538H232.856L235.967 93.6828L239.041 85.6538H240.741ZM246.717 95.7263C245.788 95.7263 244.944 95.5153 244.185 95.0933C243.438 94.6714 242.847 94.0746 242.413 93.3031C241.991 92.5195 241.78 91.6153 241.78 90.5906C241.78 89.5779 241.997 88.6858 242.431 87.9143C242.877 87.1306 243.48 86.5339 244.239 86.124C244.999 85.7021 245.849 85.4911 246.789 85.4911C247.729 85.4911 248.579 85.7021 249.339 86.124C250.098 86.5339 250.695 87.1246 251.129 87.8962C251.575 88.6677 251.798 89.5659 251.798 90.5906C251.798 91.6153 251.569 92.5195 251.111 93.3031C250.665 94.0746 250.056 94.6714 249.284 95.0933C248.513 95.5153 247.657 95.7263 246.717 95.7263ZM246.717 94.2796C247.307 94.2796 247.862 94.141 248.38 93.8637C248.899 93.5864 249.315 93.1705 249.628 92.6159C249.954 92.0614 250.116 91.3863 250.116 90.5906C250.116 89.7949 249.96 89.1198 249.646 88.5653C249.333 88.0107 248.923 87.6008 248.416 87.3356C247.91 87.0583 247.362 86.9197 246.771 86.9197C246.168 86.9197 245.614 87.0583 245.107 87.3356C244.613 87.6008 244.215 88.0107 243.914 88.5653C243.612 89.1198 243.462 89.7949 243.462 90.5906C243.462 91.3983 243.606 92.0794 243.896 92.634C244.197 93.1886 244.595 93.6045 245.089 93.8818C245.583 94.147 246.126 94.2796 246.717 94.2796ZM262.75 85.6538V95.5635H261.105V94.0988C260.791 94.6051 260.351 95.0029 259.785 95.2923C259.23 95.5695 258.615 95.7082 257.94 95.7082C257.169 95.7082 256.475 95.5515 255.86 95.238C255.246 94.9125 254.757 94.4303 254.396 93.7913C254.046 93.1524 253.871 92.3748 253.871 91.4586V85.6538H255.499V91.2416C255.499 92.2181 255.746 92.9716 256.24 93.502C256.735 94.0204 257.41 94.2796 258.266 94.2796C259.146 94.2796 259.839 94.0083 260.345 93.4658C260.851 92.9233 261.105 92.1337 261.105 91.0969V85.6538H262.75ZM267.174 87.2632C267.464 86.6966 267.874 86.2566 268.404 85.9432C268.946 85.6297 269.603 85.473 270.375 85.473V87.1728H269.941C268.097 87.1728 267.174 88.1734 267.174 90.1747V95.5635H265.529V85.6538H267.174V87.2632ZM289.013 85.473C289.784 85.473 290.471 85.6357 291.074 85.9612C291.677 86.2747 292.153 86.7509 292.503 87.3898C292.852 88.0288 293.027 88.8064 293.027 89.7226V95.5635H291.4V89.9577C291.4 88.9691 291.152 88.2156 290.658 87.6972C290.176 87.1668 289.519 86.9016 288.687 86.9016C287.831 86.9016 287.15 87.1789 286.644 87.7334C286.137 88.2759 285.884 89.0656 285.884 90.1023V95.5635H284.257V89.9577C284.257 88.9691 284.01 88.2156 283.515 87.6972C283.033 87.1668 282.376 86.9016 281.544 86.9016C280.688 86.9016 280.007 87.1789 279.501 87.7334C278.994 88.2759 278.741 89.0656 278.741 90.1023V95.5635H277.096V85.6538H278.741V87.0824C279.067 86.564 279.501 86.1662 280.043 85.8889C280.598 85.6116 281.207 85.473 281.87 85.473C282.702 85.473 283.437 85.6599 284.076 86.0336C284.715 86.4073 285.191 86.9558 285.504 87.6792C285.782 86.9799 286.24 86.4374 286.879 86.0517C287.518 85.6659 288.229 85.473 289.013 85.473ZM300.048 95.7263C299.12 95.7263 298.276 95.5153 297.517 95.0933C296.769 94.6714 296.179 94.0746 295.745 93.3031C295.323 92.5195 295.112 91.6153 295.112 90.5906C295.112 89.5779 295.329 88.6858 295.763 87.9143C296.209 87.1306 296.811 86.5339 297.571 86.124C298.33 85.7021 299.18 85.4911 300.121 85.4911C301.061 85.4911 301.911 85.7021 302.671 86.124C303.43 86.5339 304.027 87.1246 304.461 87.8962C304.907 88.6677 305.13 89.5659 305.13 90.5906C305.13 91.6153 304.901 92.5195 304.443 93.3031C303.997 94.0746 303.388 94.6714 302.616 95.0933C301.845 95.5153 300.989 95.7263 300.048 95.7263ZM300.048 94.2796C300.639 94.2796 301.194 94.141 301.712 93.8637C302.23 93.5864 302.646 93.1705 302.96 92.6159C303.285 92.0614 303.448 91.3863 303.448 90.5906C303.448 89.7949 303.291 89.1198 302.978 88.5653C302.664 88.0107 302.255 87.6008 301.748 87.3356C301.242 87.0583 300.693 86.9197 300.103 86.9197C299.5 86.9197 298.945 87.0583 298.439 87.3356C297.945 87.6008 297.547 88.0107 297.245 88.5653C296.944 89.1198 296.793 89.7949 296.793 90.5906C296.793 91.3983 296.938 92.0794 297.227 92.634C297.529 93.1886 297.927 93.6045 298.421 93.8818C298.915 94.147 299.458 94.2796 300.048 94.2796ZM312.122 85.473C313.327 85.473 314.304 85.8407 315.051 86.5761C315.799 87.2994 316.172 88.3483 316.172 89.7226V95.5635H314.545V89.9577C314.545 88.9691 314.298 88.2156 313.803 87.6972C313.309 87.1668 312.634 86.9016 311.778 86.9016C310.91 86.9016 310.217 87.1728 309.699 87.7153C309.192 88.2578 308.939 89.0475 308.939 90.0843V95.5635H307.293V85.6538H308.939V87.0643C309.265 86.558 309.705 86.1662 310.259 85.8889C310.826 85.6116 311.447 85.473 312.122 85.473ZM327.902 90.2289C327.902 90.5424 327.884 90.8739 327.848 91.2235H319.927C319.988 92.2 320.319 92.9655 320.922 93.5201C321.537 94.0626 322.278 94.3338 323.146 94.3338C323.857 94.3338 324.448 94.1711 324.918 93.8456C325.401 93.508 325.738 93.062 325.931 92.5074H327.703C327.438 93.4598 326.908 94.2374 326.112 94.8402C325.316 95.4309 324.328 95.7263 323.146 95.7263C322.206 95.7263 321.362 95.5153 320.615 95.0933C319.879 94.6714 319.3 94.0746 318.879 93.3031C318.457 92.5195 318.246 91.6153 318.246 90.5906C318.246 89.5659 318.451 88.6677 318.86 87.8962C319.27 87.1246 319.843 86.5339 320.578 86.124C321.326 85.7021 322.182 85.4911 323.146 85.4911C324.087 85.4911 324.918 85.696 325.642 86.1059C326.365 86.5158 326.92 87.0824 327.305 87.8057C327.703 88.517 327.902 89.3248 327.902 90.2289ZM326.202 89.8853C326.202 89.2584 326.064 88.722 325.786 88.2759C325.509 87.8178 325.129 87.4742 324.647 87.2452C324.177 87.0041 323.653 86.8835 323.074 86.8835C322.242 86.8835 321.531 87.1487 320.94 87.6792C320.361 88.2096 320.03 88.945 319.945 89.8853H326.202ZM338.61 85.6538L332.642 100.229H330.942L332.895 95.455L328.899 85.6538H330.725L333.836 93.6828L336.91 85.6538H338.61ZM344.47 90.5906C344.47 89.5659 344.675 88.6738 345.085 87.9143C345.495 87.1427 346.061 86.5459 346.785 86.124C347.52 85.7021 348.358 85.4911 349.298 85.4911C350.516 85.4911 351.517 85.7864 352.3 86.3772C353.096 86.9679 353.62 87.7877 353.873 88.8365H352.101C351.932 88.2337 351.601 87.7575 351.107 87.4079C350.624 87.0583 350.022 86.8835 349.298 86.8835C348.358 86.8835 347.598 87.209 347.02 87.86C346.441 88.4989 346.152 89.4091 346.152 90.5906C346.152 91.7841 346.441 92.7063 347.02 93.3573C347.598 94.0083 348.358 94.3338 349.298 94.3338C350.022 94.3338 350.624 94.1651 351.107 93.8275C351.589 93.4899 351.92 93.0077 352.101 92.3808H353.873C353.608 93.3935 353.078 94.2073 352.282 94.8221C351.486 95.4249 350.492 95.7263 349.298 95.7263C348.358 95.7263 347.52 95.5153 346.785 95.0933C346.061 94.6714 345.495 94.0746 345.085 93.3031C344.675 92.5315 344.47 91.6274 344.47 90.5906ZM360.391 95.7263C359.463 95.7263 358.619 95.5153 357.859 95.0933C357.112 94.6714 356.521 94.0746 356.087 93.3031C355.665 92.5195 355.454 91.6153 355.454 90.5906C355.454 89.5779 355.671 88.6858 356.105 87.9143C356.551 87.1306 357.154 86.5339 357.914 86.124C358.673 85.7021 359.523 85.4911 360.463 85.4911C361.404 85.4911 362.254 85.7021 363.013 86.124C363.773 86.5339 364.369 87.1246 364.803 87.8962C365.249 88.6677 365.472 89.5659 365.472 90.5906C365.472 91.6153 365.243 92.5195 364.785 93.3031C364.339 94.0746 363.73 94.6714 362.959 95.0933C362.187 95.5153 361.331 95.7263 360.391 95.7263ZM360.391 94.2796C360.982 94.2796 361.536 94.141 362.055 93.8637C362.573 93.5864 362.989 93.1705 363.302 92.6159C363.628 92.0614 363.791 91.3863 363.791 90.5906C363.791 89.7949 363.634 89.1198 363.321 88.5653C363.007 88.0107 362.597 87.6008 362.091 87.3356C361.585 87.0583 361.036 86.9197 360.445 86.9197C359.842 86.9197 359.288 87.0583 358.782 87.3356C358.287 87.6008 357.889 88.0107 357.588 88.5653C357.287 89.1198 357.136 89.7949 357.136 90.5906C357.136 91.3983 357.281 92.0794 357.57 92.634C357.871 93.1886 358.269 93.6045 358.764 93.8818C359.258 94.147 359.8 94.2796 360.391 94.2796ZM379.553 85.473C380.325 85.473 381.012 85.6357 381.614 85.9612C382.217 86.2747 382.693 86.7509 383.043 87.3898C383.393 88.0288 383.568 88.8064 383.568 89.7226V95.5635H381.94V89.9577C381.94 88.9691 381.693 88.2156 381.199 87.6972C380.716 87.1668 380.059 86.9016 379.227 86.9016C378.372 86.9016 377.69 87.1789 377.184 87.7334C376.678 88.2759 376.425 89.0656 376.425 90.1023V95.5635H374.797V89.9577C374.797 88.9691 374.55 88.2156 374.056 87.6972C373.573 87.1668 372.916 86.9016 372.085 86.9016C371.229 86.9016 370.547 87.1789 370.041 87.7334C369.535 88.2759 369.282 89.0656 369.282 90.1023V95.5635H367.636V85.6538H369.282V87.0824C369.607 86.564 370.041 86.1662 370.584 85.8889C371.138 85.6116 371.747 85.473 372.41 85.473C373.242 85.473 373.977 85.6599 374.616 86.0336C375.255 86.4073 375.731 86.9558 376.045 87.6792C376.322 86.9799 376.78 86.4374 377.419 86.0517C378.058 85.6659 378.769 85.473 379.553 85.473ZM395.309 90.2289C395.309 90.5424 395.29 90.8739 395.254 91.2235H387.334C387.394 92.2 387.726 92.9655 388.328 93.5201C388.943 94.0626 389.685 94.3338 390.553 94.3338C391.264 94.3338 391.855 94.1711 392.325 93.8456C392.807 93.508 393.145 93.062 393.337 92.5074H395.11C394.844 93.4598 394.314 94.2374 393.518 94.8402C392.723 95.4309 391.734 95.7263 390.553 95.7263C389.612 95.7263 388.768 95.5153 388.021 95.0933C387.286 94.6714 386.707 94.0746 386.285 93.3031C385.863 92.5195 385.652 91.6153 385.652 90.5906C385.652 89.5659 385.857 88.6677 386.267 87.8962C386.677 87.1246 387.249 86.5339 387.985 86.124C388.732 85.7021 389.588 85.4911 390.553 85.4911C391.493 85.4911 392.325 85.696 393.048 86.1059C393.771 86.5158 394.326 87.0824 394.712 87.8057C395.11 88.517 395.309 89.3248 395.309 90.2289ZM393.609 89.8853C393.609 89.2584 393.47 88.722 393.193 88.2759C392.915 87.8178 392.536 87.4742 392.054 87.2452C391.583 87.0041 391.059 86.8835 390.48 86.8835C389.648 86.8835 388.937 87.1487 388.346 87.6792C387.768 88.2096 387.436 88.945 387.352 89.8853H393.609ZM401.687 90.5725C401.687 89.5598 401.892 88.6738 402.302 87.9143C402.712 87.1427 403.272 86.5459 403.983 86.124C404.707 85.7021 405.508 85.4911 406.389 85.4911C407.257 85.4911 408.01 85.6779 408.649 86.0517C409.288 86.4254 409.764 86.8956 410.078 87.4622V85.6538H411.741V95.5635H410.078V93.719C409.752 94.2977 409.264 94.7799 408.613 95.1657C407.974 95.5394 407.226 95.7263 406.37 95.7263C405.49 95.7263 404.695 95.5093 403.983 95.0753C403.272 94.6413 402.712 94.0325 402.302 93.2488C401.892 92.4652 401.687 91.5731 401.687 90.5725ZM410.078 90.5906C410.078 89.8431 409.927 89.1921 409.625 88.6376C409.324 88.083 408.914 87.6611 408.396 87.3717C407.889 87.0704 407.329 86.9197 406.714 86.9197C406.099 86.9197 405.539 87.0643 405.032 87.3537C404.526 87.643 404.122 88.0649 403.821 88.6195C403.519 89.1741 403.369 89.8251 403.369 90.5725C403.369 91.332 403.519 91.9951 403.821 92.5617C404.122 93.1162 404.526 93.5442 405.032 93.8456C405.539 94.1349 406.099 94.2796 406.714 94.2796C407.329 94.2796 407.889 94.1349 408.396 93.8456C408.914 93.5442 409.324 93.1162 409.625 92.5617C409.927 91.9951 410.078 91.338 410.078 90.5906ZM419.35 85.473C420.556 85.473 421.532 85.8407 422.28 86.5761C423.027 87.2994 423.401 88.3483 423.401 89.7226V95.5635H421.774V89.9577C421.774 88.9691 421.526 88.2156 421.032 87.6972C420.538 87.1668 419.863 86.9016 419.007 86.9016C418.139 86.9016 417.446 87.1728 416.927 87.7153C416.421 88.2578 416.168 89.0475 416.168 90.0843V95.5635H414.522V85.6538H416.168V87.0643C416.493 86.558 416.933 86.1662 417.488 85.8889C418.054 85.6116 418.675 85.473 419.35 85.473ZM425.474 90.5725C425.474 89.5598 425.679 88.6738 426.089 87.9143C426.499 87.1427 427.06 86.5459 427.771 86.124C428.494 85.7021 429.302 85.4911 430.194 85.4911C430.966 85.4911 431.683 85.6719 432.346 86.0336C433.009 86.3832 433.515 86.8473 433.865 87.426V82.1818H435.529V95.5635H433.865V93.7009C433.539 94.2916 433.057 94.7799 432.418 95.1657C431.779 95.5394 431.032 95.7263 430.176 95.7263C429.296 95.7263 428.494 95.5093 427.771 95.0753C427.06 94.6413 426.499 94.0325 426.089 93.2488C425.679 92.4652 425.474 91.5731 425.474 90.5725ZM433.865 90.5906C433.865 89.8431 433.714 89.1921 433.413 88.6376C433.111 88.083 432.702 87.6611 432.183 87.3717C431.677 87.0704 431.116 86.9197 430.501 86.9197C429.887 86.9197 429.326 87.0643 428.82 87.3537C428.313 87.643 427.909 88.0649 427.608 88.6195C427.307 89.1741 427.156 89.8251 427.156 90.5725C427.156 91.332 427.307 91.9951 427.608 92.5617C427.909 93.1162 428.313 93.5442 428.82 93.8456C429.326 94.1349 429.887 94.2796 430.501 94.2796C431.116 94.2796 431.677 94.1349 432.183 93.8456C432.702 93.5442 433.111 93.1162 433.413 92.5617C433.714 91.9951 433.865 91.338 433.865 90.5906ZM447.217 85.4911C448.073 85.4911 448.821 85.6779 449.46 86.0517C450.111 86.4254 450.593 86.8956 450.906 87.4622V85.6538H452.57V95.7805C452.57 96.6847 452.377 97.4864 451.991 98.1856C451.606 98.8969 451.051 99.4514 450.328 99.8493C449.616 100.247 448.785 100.446 447.832 100.446C446.53 100.446 445.445 100.139 444.577 99.5238C443.709 98.9089 443.197 98.0711 443.04 97.0102H444.668C444.848 97.613 445.222 98.0952 445.789 98.4568C446.355 98.8306 447.037 99.0174 447.832 99.0174C448.736 99.0174 449.472 98.7341 450.038 98.1675C450.617 97.6009 450.906 96.8052 450.906 95.7805V93.7009C450.581 94.2796 450.099 94.7618 449.46 95.1476C448.821 95.5334 448.073 95.7263 447.217 95.7263C446.337 95.7263 445.536 95.5093 444.812 95.0753C444.101 94.6413 443.54 94.0325 443.131 93.2488C442.721 92.4652 442.516 91.5731 442.516 90.5725C442.516 89.5598 442.721 88.6738 443.131 87.9143C443.54 87.1427 444.101 86.5459 444.812 86.124C445.536 85.7021 446.337 85.4911 447.217 85.4911ZM450.906 90.5906C450.906 89.8431 450.756 89.1921 450.454 88.6376C450.153 88.083 449.743 87.6611 449.225 87.3717C448.718 87.0704 448.158 86.9197 447.543 86.9197C446.928 86.9197 446.367 87.0643 445.861 87.3537C445.355 87.643 444.951 88.0649 444.65 88.6195C444.348 89.1741 444.197 89.8251 444.197 90.5725C444.197 91.332 444.348 91.9951 444.65 92.5617C444.951 93.1162 445.355 93.5442 445.861 93.8456C446.367 94.1349 446.928 94.2796 447.543 94.2796C448.158 94.2796 448.718 94.1349 449.225 93.8456C449.743 93.5442 450.153 93.1162 450.454 92.5617C450.756 91.9951 450.906 91.338 450.906 90.5906ZM459.673 95.7263C458.745 95.7263 457.901 95.5153 457.141 95.0933C456.394 94.6714 455.803 94.0746 455.369 93.3031C454.947 92.5195 454.736 91.6153 454.736 90.5906C454.736 89.5779 454.953 88.6858 455.387 87.9143C455.833 87.1306 456.436 86.5339 457.195 86.124C457.955 85.7021 458.805 85.4911 459.745 85.4911C460.685 85.4911 461.535 85.7021 462.295 86.124C463.054 86.5339 463.651 87.1246 464.085 87.8962C464.531 88.6677 464.754 89.5659 464.754 90.5906C464.754 91.6153 464.525 92.5195 464.067 93.3031C463.621 94.0746 463.012 94.6714 462.241 95.0933C461.469 95.5153 460.613 95.7263 459.673 95.7263ZM459.673 94.2796C460.264 94.2796 460.818 94.141 461.336 93.8637C461.855 93.5864 462.271 93.1705 462.584 92.6159C462.91 92.0614 463.072 91.3863 463.072 90.5906C463.072 89.7949 462.916 89.1198 462.602 88.5653C462.289 88.0107 461.879 87.6008 461.373 87.3356C460.866 87.0583 460.318 86.9197 459.727 86.9197C459.124 86.9197 458.57 87.0583 458.063 87.3356C457.569 87.6008 457.171 88.0107 456.87 88.5653C456.568 89.1198 456.418 89.7949 456.418 90.5906C456.418 91.3983 456.562 92.0794 456.852 92.634C457.153 93.1886 457.551 93.6045 458.045 93.8818C458.54 94.147 459.082 94.2796 459.673 94.2796ZM471.746 85.473C472.952 85.473 473.928 85.8407 474.676 86.5761C475.423 87.2994 475.797 88.3483 475.797 89.7226V95.5635H474.169V89.9577C474.169 88.9691 473.922 88.2156 473.428 87.6972C472.934 87.1668 472.258 86.9016 471.403 86.9016C470.535 86.9016 469.841 87.1728 469.323 87.7153C468.817 88.2578 468.563 89.0475 468.563 90.0843V95.5635H466.918V85.6538H468.563V87.0643C468.889 86.558 469.329 86.1662 469.884 85.8889C470.45 85.6116 471.071 85.473 471.746 85.473ZM487.527 90.2289C487.527 90.5424 487.508 90.8739 487.472 91.2235H479.552C479.612 92.2 479.944 92.9655 480.546 93.5201C481.161 94.0626 481.903 94.3338 482.771 94.3338C483.482 94.3338 484.073 94.1711 484.543 93.8456C485.025 93.508 485.363 93.062 485.555 92.5074H487.328C487.062 93.4598 486.532 94.2374 485.736 94.8402C484.941 95.4309 483.952 95.7263 482.771 95.7263C481.83 95.7263 480.986 95.5153 480.239 95.0933C479.504 94.6714 478.925 94.0746 478.503 93.3031C478.081 92.5195 477.87 91.6153 477.87 90.5906C477.87 89.5659 478.075 88.6677 478.485 87.8962C478.895 87.1246 479.467 86.5339 480.203 86.124C480.95 85.7021 481.806 85.4911 482.771 85.4911C483.711 85.4911 484.543 85.696 485.266 86.1059C485.989 86.5158 486.544 87.0824 486.93 87.8057C487.328 88.517 487.527 89.3248 487.527 90.2289ZM485.827 89.8853C485.827 89.2584 485.688 88.722 485.411 88.2759C485.134 87.8178 484.754 87.4742 484.272 87.2452C483.801 87.0041 483.277 86.8835 482.698 86.8835C481.866 86.8835 481.155 87.1487 480.564 87.6792C479.986 88.2096 479.654 88.945 479.57 89.8853H485.827ZM499.438 85.473C500.186 85.473 500.861 85.6357 501.464 85.9612C502.066 86.2747 502.537 86.7509 502.874 87.3898C503.224 88.0288 503.399 88.8064 503.399 89.7226V95.5635H501.771V89.9577C501.771 88.9691 501.524 88.2156 501.03 87.6972C500.535 87.1668 499.86 86.9016 499.004 86.9016C498.136 86.9016 497.443 87.1728 496.925 87.7153C496.418 88.2578 496.165 89.0475 496.165 90.0843V95.5635H494.52V82.1818H496.165V87.0643C496.491 86.558 496.937 86.1662 497.503 85.8889C498.082 85.6116 498.727 85.473 499.438 85.473ZM515.128 90.2289C515.128 90.5424 515.11 90.8739 515.074 91.2235H507.154C507.214 92.2 507.545 92.9655 508.148 93.5201C508.763 94.0626 509.504 94.3338 510.372 94.3338C511.084 94.3338 511.674 94.1711 512.145 93.8456C512.627 93.508 512.964 93.062 513.157 92.5074H514.929C514.664 93.4598 514.134 94.2374 513.338 94.8402C512.542 95.4309 511.554 95.7263 510.372 95.7263C509.432 95.7263 508.588 95.5153 507.841 95.0933C507.105 94.6714 506.527 94.0746 506.105 93.3031C505.683 92.5195 505.472 91.6153 505.472 90.5906C505.472 89.5659 505.677 88.6677 506.087 87.8962C506.497 87.1246 507.069 86.5339 507.805 86.124C508.552 85.7021 509.408 85.4911 510.372 85.4911C511.313 85.4911 512.145 85.696 512.868 86.1059C513.591 86.5158 514.146 87.0824 514.532 87.8057C514.929 88.517 515.128 89.3248 515.128 90.2289ZM513.429 89.8853C513.429 89.2584 513.29 88.722 513.013 88.2759C512.735 87.8178 512.356 87.4742 511.873 87.2452C511.403 87.0041 510.879 86.8835 510.3 86.8835C509.468 86.8835 508.757 87.1487 508.166 87.6792C507.588 88.2096 507.256 88.945 507.172 89.8853H513.429ZM518.946 87.2632C519.235 86.6966 519.645 86.2566 520.176 85.9432C520.718 85.6297 521.375 85.473 522.147 85.473V87.1728H521.713C519.868 87.1728 518.946 88.1734 518.946 90.1747V95.5635H517.3V85.6538H518.946V87.2632ZM533.088 90.2289C533.088 90.5424 533.07 90.8739 533.034 91.2235H525.113C525.174 92.2 525.505 92.9655 526.108 93.5201C526.723 94.0626 527.464 94.3338 528.332 94.3338C529.043 94.3338 529.634 94.1711 530.104 93.8456C530.587 93.508 530.924 93.062 531.117 92.5074H532.889C532.624 93.4598 532.094 94.2374 531.298 94.8402C530.502 95.4309 529.514 95.7263 528.332 95.7263C527.392 95.7263 526.548 95.5153 525.801 95.0933C525.065 94.6714 524.486 94.0746 524.065 93.3031C523.643 92.5195 523.432 91.6153 523.432 90.5906C523.432 89.5659 523.637 88.6677 524.046 87.8962C524.456 87.1246 525.029 86.5339 525.764 86.124C526.512 85.7021 527.368 85.4911 528.332 85.4911C529.273 85.4911 530.104 85.696 530.828 86.1059C531.551 86.5158 532.106 87.0824 532.491 87.8057C532.889 88.517 533.088 89.3248 533.088 90.2289ZM531.388 89.8853C531.388 89.2584 531.25 88.722 530.972 88.2759C530.695 87.8178 530.315 87.4742 529.833 87.2452C529.363 87.0041 528.839 86.8835 528.26 86.8835C527.428 86.8835 526.717 87.1487 526.126 87.6792C525.547 88.2096 525.216 88.945 525.131 89.8853H531.388Z" fill="white"/>
<path opacity="0.7" d="M91.7814 147.565C91.8657 146.456 92.2937 145.588 93.0653 144.961C93.8368 144.334 94.8374 144.021 96.0671 144.021C96.8869 144.021 97.5921 144.172 98.1829 144.473C98.7856 144.762 99.2377 145.16 99.5391 145.666C99.8526 146.173 100.009 146.745 100.009 147.384C100.009 148.132 99.7923 148.777 99.3583 149.319C98.9363 149.862 98.3818 150.211 97.6946 150.368V150.459C98.4782 150.651 99.0991 151.031 99.5572 151.598C100.015 152.164 100.244 152.906 100.244 153.822C100.244 154.509 100.088 155.13 99.7742 155.685C99.4607 156.227 98.9906 156.655 98.3637 156.969C97.7368 157.282 96.9833 157.439 96.1033 157.439C94.8254 157.439 93.7765 157.107 92.9568 156.444C92.137 155.769 91.6789 154.817 91.5824 153.587H93.1738C93.2582 154.31 93.5535 154.901 94.0599 155.359C94.5662 155.817 95.2413 156.046 96.0852 156.046C96.9291 156.046 97.568 155.829 98.002 155.395C98.4481 154.949 98.6711 154.377 98.6711 153.677C98.6711 152.773 98.3697 152.122 97.7669 151.724C97.1642 151.327 96.254 151.128 95.0364 151.128H94.6204V149.753H95.0544C96.1635 149.741 97.0014 149.56 97.568 149.211C98.1346 148.849 98.4179 148.295 98.4179 147.547C98.4179 146.908 98.207 146.396 97.785 146.01C97.3751 145.624 96.7844 145.431 96.0129 145.431C95.2654 145.431 94.6626 145.624 94.2045 146.01C93.7464 146.396 93.4752 146.914 93.3908 147.565H91.7814ZM102.466 150.676C102.466 148.602 102.804 146.987 103.479 145.829C104.154 144.66 105.335 144.075 107.023 144.075C108.699 144.075 109.874 144.66 110.549 145.829C111.225 146.987 111.562 148.602 111.562 150.676C111.562 152.785 111.225 154.425 110.549 155.594C109.874 156.764 108.699 157.348 107.023 157.348C105.335 157.348 104.154 156.764 103.479 155.594C102.804 154.425 102.466 152.785 102.466 150.676ZM109.935 150.676C109.935 149.627 109.862 148.741 109.718 148.017C109.585 147.282 109.302 146.691 108.868 146.245C108.446 145.799 107.831 145.576 107.023 145.576C106.203 145.576 105.577 145.799 105.143 146.245C104.721 146.691 104.437 147.282 104.293 148.017C104.16 148.741 104.094 149.627 104.094 150.676C104.094 151.761 104.16 152.671 104.293 153.406C104.437 154.142 104.721 154.732 105.143 155.178C105.577 155.624 106.203 155.847 107.023 155.847C107.831 155.847 108.446 155.624 108.868 155.178C109.302 154.732 109.585 154.142 109.718 153.406C109.862 152.671 109.935 151.761 109.935 150.676ZM113.46 147.222C113.46 146.402 113.707 145.751 114.201 145.269C114.695 144.774 115.328 144.527 116.1 144.527C116.871 144.527 117.504 144.774 117.999 145.269C118.493 145.751 118.74 146.402 118.74 147.222C118.74 148.053 118.493 148.717 117.999 149.211C117.504 149.693 116.871 149.934 116.1 149.934C115.328 149.934 114.695 149.693 114.201 149.211C113.707 148.717 113.46 148.053 113.46 147.222ZM124.02 144.726L116.697 157.348H115.069L122.393 144.726H124.02ZM116.1 145.54C115.69 145.54 115.364 145.685 115.123 145.974C114.894 146.251 114.78 146.667 114.78 147.222C114.78 147.776 114.894 148.198 115.123 148.487C115.364 148.777 115.69 148.921 116.1 148.921C116.51 148.921 116.835 148.777 117.076 148.487C117.317 148.186 117.438 147.764 117.438 147.222C117.438 146.667 117.317 146.251 117.076 145.974C116.835 145.685 116.51 145.54 116.1 145.54ZM120.386 154.853C120.386 154.021 120.633 153.364 121.127 152.882C121.621 152.387 122.254 152.14 123.026 152.14C123.797 152.14 124.424 152.387 124.906 152.882C125.401 153.364 125.648 154.021 125.648 154.853C125.648 155.673 125.401 156.33 124.906 156.824C124.424 157.318 123.797 157.565 123.026 157.565C122.254 157.565 121.621 157.324 121.127 156.842C120.633 156.348 120.386 155.685 120.386 154.853ZM123.008 153.171C122.598 153.171 122.272 153.316 122.031 153.605C121.79 153.882 121.669 154.298 121.669 154.853C121.669 155.395 121.79 155.811 122.031 156.101C122.272 156.378 122.598 156.516 123.008 156.516C123.418 156.516 123.743 156.378 123.984 156.101C124.225 155.811 124.346 155.395 124.346 154.853C124.346 154.298 124.225 153.882 123.984 153.605C123.743 153.316 123.418 153.171 123.008 153.171Z" fill="white"/>
<path opacity="0.7" d="M257.184 154.437V153.189L263.531 144.401H265.502V153.008H267.31V154.437H265.502V157.348H263.875V154.437H257.184ZM263.947 146.119L259.082 153.008H263.947V146.119ZM268.954 150.676C268.954 148.602 269.292 146.987 269.967 145.829C270.642 144.66 271.823 144.075 273.511 144.075C275.187 144.075 276.362 144.66 277.037 145.829C277.713 146.987 278.05 148.602 278.05 150.676C278.05 152.785 277.713 154.425 277.037 155.594C276.362 156.764 275.187 157.348 273.511 157.348C271.823 157.348 270.642 156.764 269.967 155.594C269.292 154.425 268.954 152.785 268.954 150.676ZM276.423 150.676C276.423 149.627 276.35 148.741 276.206 148.017C276.073 147.282 275.79 146.691 275.356 146.245C274.934 145.799 274.319 145.576 273.511 145.576C272.691 145.576 272.065 145.799 271.631 146.245C271.209 146.691 270.925 147.282 270.781 148.017C270.648 148.741 270.582 149.627 270.582 150.676C270.582 151.761 270.648 152.671 270.781 153.406C270.925 154.142 271.209 154.732 271.631 155.178C272.065 155.624 272.691 155.847 273.511 155.847C274.319 155.847 274.934 155.624 275.356 155.178C275.79 154.732 276.073 154.142 276.206 153.406C276.35 152.671 276.423 151.761 276.423 150.676ZM279.948 147.222C279.948 146.402 280.195 145.751 280.689 145.269C281.183 144.774 281.816 144.527 282.588 144.527C283.359 144.527 283.992 144.774 284.487 145.269C284.981 145.751 285.228 146.402 285.228 147.222C285.228 148.053 284.981 148.717 284.487 149.211C283.992 149.693 283.359 149.934 282.588 149.934C281.816 149.934 281.183 149.693 280.689 149.211C280.195 148.717 279.948 148.053 279.948 147.222ZM290.508 144.726L283.185 157.348H281.557L288.881 144.726H290.508ZM282.588 145.54C282.178 145.54 281.852 145.685 281.611 145.974C281.382 146.251 281.268 146.667 281.268 147.222C281.268 147.776 281.382 148.198 281.611 148.487C281.852 148.777 282.178 148.921 282.588 148.921C282.998 148.921 283.323 148.777 283.564 148.487C283.805 148.186 283.926 147.764 283.926 147.222C283.926 146.667 283.805 146.251 283.564 145.974C283.323 145.685 282.998 145.54 282.588 145.54ZM286.874 154.853C286.874 154.021 287.121 153.364 287.615 152.882C288.109 152.387 288.742 152.14 289.514 152.14C290.285 152.14 290.912 152.387 291.394 152.882C291.889 153.364 292.136 154.021 292.136 154.853C292.136 155.673 291.889 156.33 291.394 156.824C290.912 157.318 290.285 157.565 289.514 157.565C288.742 157.565 288.109 157.324 287.615 156.842C287.121 156.348 286.874 155.685 286.874 154.853ZM289.496 153.171C289.086 153.171 288.76 153.316 288.519 153.605C288.278 153.882 288.157 154.298 288.157 154.853C288.157 155.395 288.278 155.811 288.519 156.101C288.76 156.378 289.086 156.516 289.496 156.516C289.906 156.516 290.231 156.378 290.472 156.101C290.713 155.811 290.834 155.395 290.834 154.853C290.834 154.298 290.713 153.882 290.472 153.605C290.231 153.316 289.906 153.171 289.496 153.171Z" fill="white"/>
<path opacity="0.7" d="M404.828 145.775V144.274H408.228V157.348H406.564V145.775H404.828ZM411.018 147.565C411.103 146.456 411.531 145.588 412.302 144.961C413.074 144.334 414.074 144.021 415.304 144.021C416.124 144.021 416.829 144.172 417.42 144.473C418.023 144.762 418.475 145.16 418.776 145.666C419.09 146.173 419.246 146.745 419.246 147.384C419.246 148.132 419.029 148.777 418.595 149.319C418.173 149.862 417.619 150.211 416.932 150.368V150.459C417.715 150.651 418.336 151.031 418.794 151.598C419.252 152.164 419.481 152.906 419.481 153.822C419.481 154.509 419.325 155.13 419.011 155.685C418.698 156.227 418.228 156.655 417.601 156.969C416.974 157.282 416.22 157.439 415.34 157.439C414.062 157.439 413.014 157.107 412.194 156.444C411.374 155.769 410.916 154.817 410.819 153.587H412.411C412.495 154.31 412.791 154.901 413.297 155.359C413.803 155.817 414.478 156.046 415.322 156.046C416.166 156.046 416.805 155.829 417.239 155.395C417.685 154.949 417.908 154.377 417.908 153.677C417.908 152.773 417.607 152.122 417.004 151.724C416.401 151.327 415.491 151.128 414.273 151.128H413.857V149.753H414.291C415.401 149.741 416.238 149.56 416.805 149.211C417.372 148.849 417.655 148.295 417.655 147.547C417.655 146.908 417.444 146.396 417.022 146.01C416.612 145.624 416.021 145.431 415.25 145.431C414.502 145.431 413.9 145.624 413.442 146.01C412.983 146.396 412.712 146.914 412.628 147.565H411.018ZM421.342 147.222C421.342 146.402 421.589 145.751 422.083 145.269C422.577 144.774 423.21 144.527 423.982 144.527C424.753 144.527 425.386 144.774 425.88 145.269C426.375 145.751 426.622 146.402 426.622 147.222C426.622 148.053 426.375 148.717 425.88 149.211C425.386 149.693 424.753 149.934 423.982 149.934C423.21 149.934 422.577 149.693 422.083 149.211C421.589 148.717 421.342 148.053 421.342 147.222ZM431.902 144.726L424.578 157.348H422.951L430.275 144.726H431.902ZM423.982 145.54C423.572 145.54 423.246 145.685 423.005 145.974C422.776 146.251 422.662 146.667 422.662 147.222C422.662 147.776 422.776 148.198 423.005 148.487C423.246 148.777 423.572 148.921 423.982 148.921C424.392 148.921 424.717 148.777 424.958 148.487C425.199 148.186 425.32 147.764 425.32 147.222C425.32 146.667 425.199 146.251 424.958 145.974C424.717 145.685 424.392 145.54 423.982 145.54ZM428.267 154.853C428.267 154.021 428.515 153.364 429.009 152.882C429.503 152.387 430.136 152.14 430.908 152.14C431.679 152.14 432.306 152.387 432.788 152.882C433.283 153.364 433.53 154.021 433.53 154.853C433.53 155.673 433.283 156.33 432.788 156.824C432.306 157.318 431.679 157.565 430.908 157.565C430.136 157.565 429.503 157.324 429.009 156.842C428.515 156.348 428.267 155.685 428.267 154.853ZM430.89 153.171C430.48 153.171 430.154 153.316 429.913 153.605C429.672 153.882 429.551 154.298 429.551 154.853C429.551 155.395 429.672 155.811 429.913 156.101C430.154 156.378 430.48 156.516 430.89 156.516C431.299 156.516 431.625 156.378 431.866 156.101C432.107 155.811 432.228 155.395 432.228 154.853C432.228 154.298 432.107 153.882 431.866 153.605C431.625 153.316 431.299 153.171 430.89 153.171Z" fill="white"/>
<path opacity="0.7" d="M490.724 145.775V144.274H494.124V157.348H492.46V145.775H490.724ZM496.752 156.028C498.283 154.799 499.482 153.792 500.35 153.008C501.218 152.213 501.947 151.387 502.538 150.531C503.141 149.663 503.442 148.813 503.442 147.981C503.442 147.198 503.249 146.583 502.864 146.137C502.49 145.679 501.881 145.449 501.037 145.449C500.218 145.449 499.579 145.709 499.12 146.227C498.674 146.733 498.433 147.415 498.397 148.27H496.806C496.854 146.92 497.264 145.877 498.035 145.142C498.807 144.407 499.802 144.039 501.019 144.039C502.261 144.039 503.243 144.383 503.967 145.07C504.702 145.757 505.07 146.703 505.07 147.909C505.07 148.909 504.768 149.886 504.166 150.838C503.575 151.779 502.9 152.61 502.14 153.334C501.381 154.045 500.41 154.877 499.229 155.829H505.45V157.204H496.752V156.028ZM506.99 147.222C506.99 146.402 507.237 145.751 507.732 145.269C508.226 144.774 508.859 144.527 509.63 144.527C510.402 144.527 511.035 144.774 511.529 145.269C512.023 145.751 512.271 146.402 512.271 147.222C512.271 148.053 512.023 148.717 511.529 149.211C511.035 149.693 510.402 149.934 509.63 149.934C508.859 149.934 508.226 149.693 507.732 149.211C507.237 148.717 506.99 148.053 506.99 147.222ZM517.551 144.726L510.227 157.348H508.6L515.923 144.726H517.551ZM509.63 145.54C509.221 145.54 508.895 145.685 508.654 145.974C508.425 146.251 508.31 146.667 508.31 147.222C508.31 147.776 508.425 148.198 508.654 148.487C508.895 148.777 509.221 148.921 509.63 148.921C510.04 148.921 510.366 148.777 510.607 148.487C510.848 148.186 510.969 147.764 510.969 147.222C510.969 146.667 510.848 146.251 510.607 145.974C510.366 145.685 510.04 145.54 509.63 145.54ZM513.916 154.853C513.916 154.021 514.163 153.364 514.658 152.882C515.152 152.387 515.785 152.14 516.556 152.14C517.328 152.14 517.955 152.387 518.437 152.882C518.931 153.364 519.178 154.021 519.178 154.853C519.178 155.673 518.931 156.33 518.437 156.824C517.955 157.318 517.328 157.565 516.556 157.565C515.785 157.565 515.152 157.324 514.658 156.842C514.163 156.348 513.916 155.685 513.916 154.853ZM516.538 153.171C516.128 153.171 515.803 153.316 515.562 153.605C515.321 153.882 515.2 154.298 515.2 154.853C515.2 155.395 515.321 155.811 515.562 156.101C515.803 156.378 516.128 156.516 516.538 156.516C516.948 156.516 517.274 156.378 517.515 156.101C517.756 155.811 517.876 155.395 517.876 154.853C517.876 154.298 517.756 153.882 517.515 153.605C517.274 153.316 516.948 153.171 516.538 153.171Z" fill="white"/>
<rect x="33.4324" y="165.98" width="504.827" height="7.53473" rx="3.01389" fill="#D93C3C"/>
<rect x="33.4324" y="165.98" width="432.493" height="7.53473" rx="3.01389" fill="#12C6FF"/>
<rect x="33.4324" y="165.98" width="337.556" height="7.53473" rx="3.01389" fill="#F9A80A"/>
<rect x="33.4324" y="165.98" width="149.188" height="7.53473" rx="3.01389" fill="#203B81"/>
<circle cx="63.5712" cy="236.807" r="30.1389" fill="#203B81"/>
<path d="M68.2804 241.516C69.3206 241.516 70.1641 242.57 70.1641 243.871C70.1641 245.171 69.3206 246.225 68.2804 246.225H52.2691C51.229 246.225 50.3854 245.171 50.3854 243.871C50.3854 242.57 51.229 241.516 52.2691 241.516M67.4563 246.225C67.4563 248.306 66.2407 249.992 64.1599 249.992H56.3897C54.3088 249.992 53.0932 248.306 53.0932 246.225H67.4563Z" stroke="white" stroke-width="1.88368" stroke-miterlimit="10" stroke-linecap="round"/>
<path d="M62.6882 228.33L63.1262 232.096M68.7513 241.516H59.0569C58.9321 241.516 58.8125 241.566 58.7243 241.654L57.1449 243.233C57.123 243.255 57.0971 243.272 57.0685 243.284C57.0399 243.296 57.0093 243.302 56.9783 243.302C56.9474 243.302 56.9167 243.296 56.8882 243.284C56.8596 243.272 56.8336 243.255 56.8117 243.233L55.2324 241.654C55.1441 241.566 55.0245 241.516 54.8998 241.516H51.7982C51.4235 241.516 51.0642 241.367 50.7992 241.102C50.5343 240.837 50.3854 240.478 50.3854 240.103V240.103C50.3854 239.728 50.5343 239.369 50.7992 239.104C51.0642 238.839 51.4235 238.69 51.7982 238.69H68.7513C69.126 238.69 69.4854 238.839 69.7503 239.104C70.0153 239.369 70.1641 239.728 70.1641 240.103C70.1641 240.478 70.0153 240.837 69.7503 241.102C69.4854 241.367 69.126 241.516 68.7513 241.516ZM52.2691 237.984V237.971C52.2691 234.733 54.918 233.039 58.1556 233.039H62.3939C65.6315 233.039 68.2804 234.746 68.2804 237.984V237.971L52.2691 237.984Z" stroke="white" stroke-width="1.88368" stroke-miterlimit="10" stroke-linecap="round"/>
<path d="M63.5713 249.992H71.7718C72.247 249.992 72.7047 249.813 73.053 249.49C73.4014 249.166 73.6147 248.723 73.6502 248.249L75.7564 228.33" stroke="white" stroke-width="1.88368" stroke-miterlimit="10" stroke-linecap="round"/>
<path d="M70.1641 228.33L71.106 224.563L73.8726 223.621" stroke="white" stroke-width="1.88368" stroke-linecap="round" stroke-linejoin="round"/>
<path d="M61.6876 228.33H76.7571" stroke="white" stroke-width="1.88368" stroke-miterlimit="10" stroke-linecap="round"/>
<path opacity="0.7" d="M126.339 214.064V215.402H120.859V219.651H125.308V220.99H120.859V226.668H119.214V214.064H126.339ZM132.648 226.831C131.72 226.831 130.876 226.62 130.116 226.198C129.369 225.776 128.778 225.179 128.344 224.407C127.922 223.624 127.711 222.72 127.711 221.695C127.711 220.682 127.928 219.79 128.362 219.019C128.808 218.235 129.411 217.638 130.171 217.228C130.93 216.806 131.78 216.595 132.72 216.595C133.661 216.595 134.511 216.806 135.27 217.228C136.03 217.638 136.626 218.229 137.06 219C137.506 219.772 137.729 220.67 137.729 221.695C137.729 222.72 137.5 223.624 137.042 224.407C136.596 225.179 135.987 225.776 135.216 226.198C134.444 226.62 133.588 226.831 132.648 226.831ZM132.648 225.384C133.239 225.384 133.793 225.245 134.312 224.968C134.83 224.691 135.246 224.275 135.559 223.72C135.885 223.166 136.048 222.491 136.048 221.695C136.048 220.899 135.891 220.224 135.577 219.67C135.264 219.115 134.854 218.705 134.348 218.44C133.841 218.163 133.293 218.024 132.702 218.024C132.099 218.024 131.545 218.163 131.039 218.44C130.544 218.705 130.146 219.115 129.845 219.67C129.544 220.224 129.393 220.899 129.393 221.695C129.393 222.503 129.538 223.184 129.827 223.738C130.128 224.293 130.526 224.709 131.02 224.986C131.515 225.251 132.057 225.384 132.648 225.384ZM144.215 226.831C143.287 226.831 142.443 226.62 141.683 226.198C140.936 225.776 140.345 225.179 139.911 224.407C139.489 223.624 139.278 222.72 139.278 221.695C139.278 220.682 139.495 219.79 139.929 219.019C140.375 218.235 140.978 217.638 141.738 217.228C142.497 216.806 143.347 216.595 144.287 216.595C145.228 216.595 146.078 216.806 146.837 217.228C147.597 217.638 148.193 218.229 148.627 219C149.073 219.772 149.296 220.67 149.296 221.695C149.296 222.72 149.067 223.624 148.609 224.407C148.163 225.179 147.554 225.776 146.783 226.198C146.011 226.62 145.155 226.831 144.215 226.831ZM144.215 225.384C144.806 225.384 145.36 225.245 145.879 224.968C146.397 224.691 146.813 224.275 147.126 223.72C147.452 223.166 147.615 222.491 147.615 221.695C147.615 220.899 147.458 220.224 147.144 219.67C146.831 219.115 146.421 218.705 145.915 218.44C145.408 218.163 144.86 218.024 144.269 218.024C143.666 218.024 143.112 218.163 142.606 218.44C142.111 218.705 141.713 219.115 141.412 219.67C141.111 220.224 140.96 220.899 140.96 221.695C140.96 222.503 141.105 223.184 141.394 223.738C141.695 224.293 142.093 224.709 142.587 224.986C143.082 225.251 143.624 225.384 144.215 225.384ZM150.845 221.677C150.845 220.664 151.05 219.778 151.46 219.019C151.87 218.247 152.43 217.65 153.142 217.228C153.865 216.806 154.673 216.595 155.565 216.595C156.336 216.595 157.054 216.776 157.717 217.138C158.38 217.487 158.886 217.952 159.236 218.53V213.286H160.9V226.668H159.236V224.805C158.91 225.396 158.428 225.884 157.789 226.27C157.15 226.644 156.403 226.831 155.547 226.831C154.667 226.831 153.865 226.614 153.142 226.18C152.43 225.746 151.87 225.137 151.46 224.353C151.05 223.57 150.845 222.677 150.845 221.677ZM159.236 221.695C159.236 220.947 159.085 220.296 158.784 219.742C158.482 219.187 158.072 218.765 157.554 218.476C157.048 218.175 156.487 218.024 155.872 218.024C155.257 218.024 154.697 218.169 154.191 218.458C153.684 218.747 153.28 219.169 152.979 219.724C152.678 220.278 152.527 220.929 152.527 221.677C152.527 222.436 152.678 223.099 152.979 223.666C153.28 224.221 153.684 224.648 154.191 224.95C154.697 225.239 155.257 225.384 155.872 225.384C156.487 225.384 157.048 225.239 157.554 224.95C158.072 224.648 158.482 224.221 158.784 223.666C159.085 223.099 159.236 222.442 159.236 221.695ZM178.176 226.668L176.53 225.004C175.916 225.643 175.259 226.119 174.559 226.433C173.86 226.734 173.07 226.885 172.19 226.885C171.322 226.885 170.551 226.728 169.876 226.415C169.213 226.101 168.694 225.655 168.321 225.076C167.959 224.498 167.778 223.823 167.778 223.051C167.778 222.171 168.025 221.4 168.52 220.736C169.026 220.061 169.767 219.531 170.744 219.145C170.358 218.687 170.081 218.265 169.912 217.879C169.743 217.494 169.659 217.072 169.659 216.613C169.659 216.083 169.791 215.607 170.057 215.185C170.334 214.751 170.726 214.413 171.232 214.172C171.738 213.931 172.323 213.811 172.986 213.811C173.637 213.811 174.204 213.937 174.686 214.19C175.168 214.443 175.53 214.799 175.771 215.257C176.012 215.703 176.121 216.204 176.096 216.758H174.451C174.463 216.264 174.324 215.878 174.035 215.601C173.746 215.311 173.372 215.167 172.914 215.167C172.432 215.167 172.04 215.305 171.738 215.583C171.449 215.848 171.304 216.192 171.304 216.613C171.304 216.975 171.401 217.325 171.594 217.662C171.799 218 172.136 218.416 172.606 218.91L176.368 222.689L176.693 222.183L177.923 220.122H179.695L178.212 222.689C178.007 223.051 177.766 223.431 177.489 223.829L180.328 226.668H178.176ZM172.19 225.474C172.841 225.474 173.426 225.348 173.945 225.095C174.475 224.841 174.975 224.45 175.445 223.919L171.738 220.194C170.195 220.785 169.424 221.719 169.424 222.997C169.424 223.708 169.677 224.299 170.183 224.769C170.702 225.239 171.371 225.474 172.19 225.474ZM190.615 214.064C191.989 214.064 193.177 214.323 194.177 214.841C195.19 215.348 195.961 216.077 196.492 217.029C197.034 217.982 197.306 219.103 197.306 220.393C197.306 221.683 197.034 222.804 196.492 223.756C195.961 224.697 195.19 225.42 194.177 225.926C193.177 226.421 191.989 226.668 190.615 226.668H186.691V214.064H190.615ZM190.615 225.312C192.242 225.312 193.484 224.884 194.34 224.028C195.196 223.16 195.624 221.948 195.624 220.393C195.624 218.826 195.19 217.602 194.322 216.722C193.466 215.842 192.23 215.402 190.615 215.402H188.336V225.312H190.615ZM201.122 218.368C201.411 217.801 201.821 217.361 202.351 217.047C202.894 216.734 203.551 216.577 204.323 216.577V218.277H203.889C202.044 218.277 201.122 219.278 201.122 221.279V226.668H199.476V216.758H201.122V218.368ZM207.072 215.149C206.759 215.149 206.493 215.04 206.276 214.823C206.059 214.606 205.951 214.341 205.951 214.028C205.951 213.714 206.059 213.449 206.276 213.232C206.493 213.015 206.759 212.906 207.072 212.906C207.373 212.906 207.627 213.015 207.832 213.232C208.049 213.449 208.157 213.714 208.157 214.028C208.157 214.341 208.049 214.606 207.832 214.823C207.627 215.04 207.373 215.149 207.072 215.149ZM207.868 216.758V226.668H206.222V216.758H207.868ZM215.501 216.577C216.706 216.577 217.683 216.945 218.43 217.68C219.178 218.404 219.551 219.453 219.551 220.827V226.668H217.924V221.062C217.924 220.073 217.677 219.32 217.182 218.802C216.688 218.271 216.013 218.006 215.157 218.006C214.289 218.006 213.596 218.277 213.077 218.82C212.571 219.362 212.318 220.152 212.318 221.189V226.668H210.672V216.758H212.318V218.169C212.643 217.662 213.083 217.27 213.638 216.993C214.205 216.716 214.826 216.577 215.501 216.577ZM227.773 226.668L223.885 222.292V226.668H222.239V213.286H223.885V221.152L227.701 216.758H229.997L225.332 221.695L230.015 226.668H227.773Z" fill="white"/>
<path d="M129.783 252.059C129.783 252.791 129.594 253.48 129.214 254.127C128.848 254.76 128.3 255.287 127.568 255.709C126.851 256.117 126 256.356 125.016 256.426V258.135H123.665V256.405C122.259 256.279 121.127 255.857 120.269 255.139C119.411 254.408 118.968 253.424 118.94 252.186H122.104C122.188 253.198 122.709 253.81 123.665 254.021V249.992C122.653 249.739 121.837 249.485 121.218 249.232C120.599 248.979 120.065 248.571 119.615 248.009C119.165 247.446 118.94 246.679 118.94 245.709C118.94 244.485 119.376 243.487 120.248 242.713C121.134 241.94 122.273 241.497 123.665 241.384V239.675H125.016V241.384C126.366 241.497 127.442 241.904 128.243 242.608C129.059 243.311 129.516 244.281 129.615 245.519H126.429C126.387 245.111 126.239 244.76 125.986 244.464C125.747 244.155 125.423 243.937 125.016 243.81V247.798C126.07 248.065 126.9 248.325 127.505 248.578C128.124 248.817 128.658 249.218 129.108 249.781C129.558 250.329 129.783 251.089 129.783 252.059ZM122.02 245.561C122.02 246.025 122.16 246.405 122.442 246.701C122.723 246.982 123.131 247.214 123.665 247.397V243.747C123.159 243.817 122.758 244.007 122.463 244.317C122.167 244.626 122.02 245.041 122.02 245.561ZM125.016 254.063C125.55 253.965 125.965 253.747 126.26 253.409C126.57 253.072 126.724 252.664 126.724 252.186C126.724 251.722 126.577 251.349 126.281 251.068C125.986 250.786 125.564 250.554 125.016 250.371V254.063ZM133.672 252.966C135.022 251.841 136.098 250.906 136.9 250.16C137.701 249.401 138.369 248.613 138.904 247.798C139.438 246.982 139.705 246.18 139.705 245.392C139.705 244.675 139.537 244.113 139.199 243.705C138.862 243.297 138.341 243.093 137.638 243.093C136.935 243.093 136.393 243.332 136.013 243.81C135.634 244.274 135.437 244.914 135.423 245.73H132.553C132.61 244.042 133.109 242.762 134.051 241.89C135.008 241.018 136.217 240.582 137.68 240.582C139.284 240.582 140.514 241.011 141.372 241.869C142.23 242.713 142.659 243.831 142.659 245.224C142.659 246.321 142.364 247.369 141.773 248.367C141.182 249.366 140.507 250.238 139.748 250.983C138.988 251.715 137.997 252.601 136.773 253.642H142.997V256.089H132.575V253.895L133.672 252.966ZM144.9 244.971C144.97 243.564 145.463 242.481 146.377 241.722C147.305 240.948 148.522 240.561 150.027 240.561C151.053 240.561 151.932 240.744 152.664 241.11C153.395 241.461 153.944 241.947 154.309 242.565C154.689 243.17 154.879 243.859 154.879 244.633C154.879 245.519 154.647 246.272 154.183 246.89C153.733 247.495 153.191 247.903 152.558 248.114V248.198C153.374 248.452 154.007 248.902 154.457 249.549C154.921 250.196 155.153 251.025 155.153 252.038C155.153 252.882 154.956 253.634 154.563 254.296C154.183 254.957 153.613 255.477 152.854 255.857C152.108 256.222 151.208 256.405 150.153 256.405C148.564 256.405 147.27 256.004 146.271 255.203C145.273 254.401 144.745 253.22 144.689 251.658H147.558C147.586 252.348 147.818 252.903 148.254 253.325C148.705 253.733 149.316 253.937 150.09 253.937C150.807 253.937 151.356 253.74 151.735 253.346C152.129 252.938 152.326 252.418 152.326 251.785C152.326 250.941 152.059 250.336 151.525 249.971C150.99 249.605 150.16 249.422 149.035 249.422H148.423V246.996H149.035C151.032 246.996 152.031 246.328 152.031 244.992C152.031 244.387 151.848 243.916 151.482 243.578C151.131 243.241 150.617 243.072 149.942 243.072C149.281 243.072 148.768 243.255 148.402 243.62C148.051 243.972 147.847 244.422 147.79 244.971H144.9ZM157.487 248.409C157.487 245.976 157.923 244.07 158.795 242.692C159.681 241.314 161.144 240.625 163.184 240.625C165.223 240.625 166.679 241.314 167.551 242.692C168.437 244.07 168.88 245.976 168.88 248.409C168.88 250.857 168.437 252.777 167.551 254.169C166.679 255.561 165.223 256.258 163.184 256.258C161.144 256.258 159.681 255.561 158.795 254.169C157.923 252.777 157.487 250.857 157.487 248.409ZM165.968 248.409C165.968 247.369 165.898 246.497 165.757 245.793C165.631 245.076 165.364 244.492 164.956 244.042C164.562 243.592 163.971 243.367 163.184 243.367C162.396 243.367 161.798 243.592 161.39 244.042C160.996 244.492 160.729 245.076 160.589 245.793C160.462 246.497 160.399 247.369 160.399 248.409C160.399 249.478 160.462 250.378 160.589 251.11C160.715 251.827 160.982 252.411 161.39 252.861C161.798 253.297 162.396 253.515 163.184 253.515C163.971 253.515 164.569 253.297 164.977 252.861C165.385 252.411 165.652 251.827 165.779 251.11C165.905 250.378 165.968 249.478 165.968 248.409Z" fill="white"/>
<circle cx="324.273" cy="348.321" r="30.1389" fill="#12C6FF"/>
<path d="M318.622 343.612V341.728C318.622 340.229 319.217 338.792 320.277 337.732C321.337 336.672 322.774 336.077 324.273 336.077V336.077C325.772 336.077 327.209 336.672 328.269 337.732C329.329 338.792 329.924 340.229 329.924 341.728V343.612M313.913 343.612C313.663 343.612 313.423 343.711 313.247 343.887C313.07 344.064 312.971 344.304 312.971 344.553V357.268C312.971 359.048 314.487 360.565 316.267 360.565H332.279C334.059 360.565 335.575 359.122 335.575 357.342V344.553C335.575 344.304 335.476 344.064 335.299 343.887C335.123 343.711 334.883 343.612 334.633 343.612H313.913Z" stroke="white" stroke-width="1.88368" stroke-linecap="round" stroke-linejoin="round"/>
<path opacity="0.7" d="M383.912 339.815C383.08 339.815 382.333 339.671 381.669 339.381C381.018 339.08 380.506 338.67 380.132 338.152C379.759 337.621 379.566 337.012 379.554 336.325H381.308C381.368 336.916 381.609 337.416 382.031 337.826C382.465 338.224 383.092 338.423 383.912 338.423C384.695 338.423 385.31 338.23 385.756 337.844C386.214 337.446 386.443 336.94 386.443 336.325C386.443 335.843 386.311 335.451 386.046 335.15C385.78 334.848 385.449 334.619 385.051 334.463C384.653 334.306 384.117 334.137 383.442 333.956C382.61 333.739 381.941 333.522 381.434 333.305C380.94 333.088 380.512 332.751 380.15 332.293C379.801 331.822 379.626 331.196 379.626 330.412C379.626 329.725 379.801 329.116 380.15 328.586C380.5 328.055 380.988 327.645 381.615 327.356C382.254 327.067 382.984 326.922 383.803 326.922C384.985 326.922 385.949 327.217 386.697 327.808C387.456 328.399 387.884 329.182 387.981 330.159H386.172C386.112 329.677 385.859 329.255 385.413 328.893C384.967 328.519 384.376 328.332 383.641 328.332C382.953 328.332 382.393 328.513 381.959 328.875C381.525 329.224 381.308 329.719 381.308 330.358C381.308 330.816 381.434 331.19 381.688 331.479C381.953 331.768 382.272 331.991 382.646 332.148C383.032 332.293 383.568 332.461 384.255 332.654C385.087 332.883 385.756 333.112 386.263 333.341C386.769 333.558 387.203 333.902 387.565 334.372C387.926 334.83 388.107 335.457 388.107 336.253C388.107 336.868 387.944 337.446 387.619 337.989C387.293 338.531 386.811 338.971 386.172 339.309C385.533 339.647 384.78 339.815 383.912 339.815ZM395.447 329.598C396.195 329.598 396.87 329.761 397.473 330.086C398.076 330.4 398.546 330.876 398.883 331.515C399.233 332.154 399.408 332.932 399.408 333.848V339.689H397.78V334.083C397.78 333.094 397.533 332.341 397.039 331.822C396.544 331.292 395.869 331.027 395.013 331.027C394.145 331.027 393.452 331.298 392.934 331.841C392.428 332.383 392.174 333.173 392.174 334.209V339.689H390.529V326.307H392.174V331.19C392.5 330.683 392.946 330.291 393.513 330.014C394.091 329.737 394.736 329.598 395.447 329.598ZM406.418 339.851C405.489 339.851 404.645 339.641 403.886 339.219C403.139 338.797 402.548 338.2 402.114 337.428C401.692 336.645 401.481 335.741 401.481 334.716C401.481 333.703 401.698 332.811 402.132 332.039C402.578 331.256 403.181 330.659 403.94 330.249C404.7 329.827 405.55 329.616 406.49 329.616C407.43 329.616 408.28 329.827 409.04 330.249C409.799 330.659 410.396 331.25 410.83 332.021C411.276 332.793 411.499 333.691 411.499 334.716C411.499 335.741 411.27 336.645 410.812 337.428C410.366 338.2 409.757 338.797 408.985 339.219C408.214 339.641 407.358 339.851 406.418 339.851ZM406.418 338.405C407.008 338.405 407.563 338.266 408.081 337.989C408.6 337.712 409.016 337.296 409.329 336.741C409.655 336.187 409.817 335.511 409.817 334.716C409.817 333.92 409.661 333.245 409.347 332.69C409.034 332.136 408.624 331.726 408.117 331.461C407.611 331.184 407.063 331.045 406.472 331.045C405.869 331.045 405.315 331.184 404.808 331.461C404.314 331.726 403.916 332.136 403.615 332.69C403.313 333.245 403.163 333.92 403.163 334.716C403.163 335.524 403.307 336.205 403.597 336.759C403.898 337.314 404.296 337.73 404.79 338.007C405.284 338.272 405.827 338.405 406.418 338.405ZM415.308 331.605C415.634 331.039 416.116 330.569 416.755 330.195C417.406 329.809 418.159 329.616 419.015 329.616C419.895 329.616 420.691 329.827 421.402 330.249C422.126 330.671 422.692 331.268 423.102 332.039C423.512 332.799 423.717 333.685 423.717 334.698C423.717 335.698 423.512 336.59 423.102 337.374C422.692 338.158 422.126 338.766 421.402 339.2C420.691 339.634 419.895 339.851 419.015 339.851C418.172 339.851 417.424 339.665 416.773 339.291C416.134 338.905 415.646 338.429 415.308 337.862V344.39H413.663V329.779H415.308V331.605ZM422.035 334.698C422.035 333.95 421.885 333.299 421.583 332.745C421.282 332.19 420.872 331.768 420.354 331.479C419.847 331.19 419.287 331.045 418.672 331.045C418.069 331.045 417.508 331.196 416.99 331.497C416.484 331.786 416.074 332.214 415.76 332.781C415.459 333.335 415.308 333.98 415.308 334.716C415.308 335.463 415.459 336.12 415.76 336.687C416.074 337.241 416.484 337.669 416.99 337.971C417.508 338.26 418.069 338.405 418.672 338.405C419.287 338.405 419.847 338.26 420.354 337.971C420.872 337.669 421.282 337.241 421.583 336.687C421.885 336.12 422.035 335.457 422.035 334.698Z" fill="white"/>
<path d="M390.485 365.08C390.485 365.812 390.295 366.501 389.915 367.148C389.55 367.781 389.001 368.308 388.27 368.73C387.553 369.138 386.702 369.377 385.717 369.447V371.156H384.367V369.426C382.96 369.3 381.828 368.878 380.97 368.16C380.112 367.429 379.669 366.444 379.641 365.207H382.806C382.89 366.219 383.41 366.831 384.367 367.042V363.013C383.354 362.759 382.538 362.506 381.92 362.253C381.301 362 380.766 361.592 380.316 361.029C379.866 360.467 379.641 359.7 379.641 358.73C379.641 357.506 380.077 356.508 380.949 355.734C381.835 354.961 382.974 354.517 384.367 354.405V352.696H385.717V354.405C387.067 354.517 388.143 354.925 388.945 355.629C389.761 356.332 390.218 357.302 390.316 358.54H387.131C387.088 358.132 386.941 357.781 386.688 357.485C386.448 357.176 386.125 356.958 385.717 356.831V360.819C386.772 361.086 387.602 361.346 388.207 361.599C388.825 361.838 389.36 362.239 389.81 362.802C390.26 363.35 390.485 364.11 390.485 365.08ZM382.721 358.582C382.721 359.046 382.862 359.426 383.143 359.721C383.425 360.003 383.832 360.235 384.367 360.418V356.768C383.861 356.838 383.46 357.028 383.164 357.337C382.869 357.647 382.721 358.062 382.721 358.582ZM385.717 367.084C386.252 366.986 386.666 366.768 386.962 366.43C387.271 366.093 387.426 365.685 387.426 365.207C387.426 364.743 387.278 364.37 386.983 364.089C386.688 363.807 386.266 363.575 385.717 363.392V367.084ZM396.863 364.996C396.975 365.615 397.228 366.093 397.622 366.43C398.03 366.754 398.572 366.916 399.247 366.916C400.119 366.916 400.752 366.557 401.145 365.84C401.539 365.108 401.736 363.885 401.736 362.169C401.413 362.619 400.956 362.97 400.365 363.224C399.788 363.477 399.162 363.603 398.487 363.603C397.587 363.603 396.771 363.421 396.04 363.055C395.323 362.675 394.753 362.12 394.331 361.388C393.909 360.643 393.698 359.743 393.698 358.688C393.698 357.126 394.162 355.889 395.091 354.975C396.019 354.046 397.285 353.582 398.888 353.582C400.885 353.582 402.292 354.222 403.107 355.502C403.937 356.782 404.352 358.709 404.352 361.283C404.352 363.111 404.19 364.609 403.867 365.776C403.558 366.944 403.016 367.83 402.242 368.435C401.483 369.039 400.442 369.342 399.12 369.342C398.079 369.342 397.193 369.145 396.462 368.751C395.73 368.343 395.168 367.816 394.774 367.169C394.394 366.508 394.176 365.783 394.12 364.996H396.863ZM399.099 361.198C399.83 361.198 400.407 360.973 400.829 360.523C401.251 360.073 401.462 359.468 401.462 358.709C401.462 357.879 401.237 357.239 400.787 356.789C400.351 356.325 399.753 356.093 398.994 356.093C398.234 356.093 397.629 356.332 397.179 356.81C396.743 357.274 396.525 357.893 396.525 358.667C396.525 359.412 396.736 360.024 397.158 360.502C397.594 360.966 398.241 361.198 399.099 361.198ZM406.651 361.43C406.651 358.997 407.087 357.091 407.959 355.713C408.845 354.335 410.308 353.645 412.348 353.645C414.387 353.645 415.843 354.335 416.715 355.713C417.601 357.091 418.044 358.997 418.044 361.43C418.044 363.878 417.601 365.797 416.715 367.19C415.843 368.582 414.387 369.279 412.348 369.279C410.308 369.279 408.845 368.582 407.959 367.19C407.087 365.797 406.651 363.878 406.651 361.43ZM415.132 361.43C415.132 360.39 415.062 359.518 414.921 358.814C414.795 358.097 414.528 357.513 414.12 357.063C413.726 356.613 413.135 356.388 412.348 356.388C411.56 356.388 410.962 356.613 410.554 357.063C410.16 357.513 409.893 358.097 409.753 358.814C409.626 359.518 409.563 360.39 409.563 361.43C409.563 362.499 409.626 363.399 409.753 364.131C409.879 364.848 410.146 365.432 410.554 365.882C410.962 366.318 411.56 366.536 412.348 366.536C413.135 366.536 413.733 366.318 414.141 365.882C414.549 365.432 414.816 364.848 414.943 364.131C415.069 363.399 415.132 362.499 415.132 361.43Z" fill="white"/>
<circle cx="324.273" cy="236.807" r="30.1389" fill="#F9A80A"/>
<path d="M333.204 234.923C333.004 234.923 332.333 234.929 332.144 234.941L328.324 235.041C328.304 235.042 328.284 235.038 328.267 235.028C328.249 235.019 328.235 235.005 328.225 234.988L320.597 225.714C320.551 225.653 320.492 225.602 320.424 225.566C320.356 225.53 320.282 225.509 320.205 225.505H318.622L322.919 234.982C322.929 235.004 322.934 235.028 322.932 235.051C322.93 235.075 322.922 235.098 322.909 235.118C322.895 235.138 322.877 235.154 322.855 235.165C322.834 235.176 322.81 235.18 322.786 235.179L315.623 235.285C315.548 235.287 315.474 235.272 315.407 235.24C315.339 235.209 315.28 235.161 315.234 235.103L313.056 232.454C312.88 232.224 312.549 232.1 312.261 232.1H311.151C311.075 232.1 311.086 232.172 311.107 232.243L312.275 236.448C312.363 236.673 312.363 236.923 312.275 237.148L311.106 241.339C311.071 241.454 311.075 241.516 311.21 241.516H312.265C312.744 241.516 312.809 241.454 313.054 241.145L315.273 238.455C315.319 238.397 315.379 238.35 315.446 238.318C315.513 238.286 315.587 238.271 315.662 238.272L322.766 238.431C322.791 238.432 322.817 238.439 322.839 238.451C322.862 238.464 322.881 238.482 322.895 238.504C322.909 238.525 322.918 238.55 322.92 238.576C322.923 238.602 322.919 238.628 322.909 238.652L318.622 248.109H320.19C320.267 248.104 320.341 248.083 320.409 248.047C320.476 248.011 320.535 247.961 320.582 247.9L328.225 238.632C328.248 238.596 328.343 238.579 328.384 238.579L332.145 238.679C332.339 238.69 333.004 238.696 333.205 238.696C335.811 238.696 337.459 237.98 337.459 236.807C337.459 235.634 335.818 234.923 333.204 234.923Z" stroke="white" stroke-width="1.88368" stroke-linecap="round" stroke-linejoin="round"/>
<path opacity="0.7" d="M389.626 214.064V226.668H387.981V220.953H381.561V226.668H379.915V214.064H381.561V219.597H387.981V214.064H389.626ZM396.758 226.831C395.83 226.831 394.986 226.62 394.226 226.198C393.479 225.776 392.888 225.179 392.454 224.407C392.032 223.624 391.821 222.72 391.821 221.695C391.821 220.682 392.038 219.79 392.472 219.019C392.918 218.235 393.521 217.638 394.28 217.228C395.04 216.806 395.89 216.595 396.83 216.595C397.771 216.595 398.62 216.806 399.38 217.228C400.139 217.638 400.736 218.229 401.17 219C401.616 219.772 401.839 220.67 401.839 221.695C401.839 222.72 401.61 223.624 401.152 224.407C400.706 225.179 400.097 225.776 399.326 226.198C398.554 226.62 397.698 226.831 396.758 226.831ZM396.758 225.384C397.349 225.384 397.903 225.245 398.422 224.968C398.94 224.691 399.356 224.275 399.669 223.72C399.995 223.166 400.158 222.491 400.158 221.695C400.158 220.899 400.001 220.224 399.687 219.67C399.374 219.115 398.964 218.705 398.458 218.44C397.951 218.163 397.403 218.024 396.812 218.024C396.209 218.024 395.655 218.163 395.148 218.44C394.654 218.705 394.256 219.115 393.955 219.67C393.654 220.224 393.503 220.899 393.503 221.695C393.503 222.503 393.648 223.184 393.937 223.738C394.238 224.293 394.636 224.709 395.13 224.986C395.625 225.251 396.167 225.384 396.758 225.384ZM405.649 213.286V226.668H404.003V213.286H405.649ZM409.303 215.149C408.99 215.149 408.724 215.04 408.507 214.823C408.29 214.606 408.182 214.341 408.182 214.028C408.182 213.714 408.29 213.449 408.507 213.232C408.724 213.015 408.99 212.906 409.303 212.906C409.604 212.906 409.858 213.015 410.063 213.232C410.28 213.449 410.388 213.714 410.388 214.028C410.388 214.341 410.28 214.606 410.063 214.823C409.858 215.04 409.604 215.149 409.303 215.149ZM410.099 216.758V226.668H408.453V216.758H410.099ZM412.289 221.677C412.289 220.664 412.493 219.778 412.903 219.019C413.313 218.247 413.874 217.65 414.585 217.228C415.308 216.806 416.116 216.595 417.008 216.595C417.78 216.595 418.497 216.776 419.16 217.138C419.823 217.487 420.33 217.952 420.679 218.53V213.286H422.343V226.668H420.679V224.805C420.354 225.396 419.871 225.884 419.233 226.27C418.594 226.644 417.846 226.831 416.99 226.831C416.11 226.831 415.308 226.614 414.585 226.18C413.874 225.746 413.313 225.137 412.903 224.353C412.493 223.57 412.289 222.677 412.289 221.677ZM420.679 221.695C420.679 220.947 420.529 220.296 420.227 219.742C419.926 219.187 419.516 218.765 418.997 218.476C418.491 218.175 417.931 218.024 417.316 218.024C416.701 218.024 416.14 218.169 415.634 218.458C415.128 218.747 414.724 219.169 414.422 219.724C414.121 220.278 413.97 220.929 413.97 221.677C413.97 222.436 414.121 223.099 414.422 223.666C414.724 224.221 415.128 224.648 415.634 224.95C416.14 225.239 416.701 225.384 417.316 225.384C417.931 225.384 418.491 225.239 418.997 224.95C419.516 224.648 419.926 224.221 420.227 223.666C420.529 223.099 420.679 222.442 420.679 221.695ZM424.509 221.677C424.509 220.664 424.714 219.778 425.124 219.019C425.534 218.247 426.094 217.65 426.806 217.228C427.529 216.806 428.331 216.595 429.211 216.595C430.079 216.595 430.832 216.782 431.471 217.156C432.11 217.53 432.586 218 432.9 218.566V216.758H434.563V226.668H432.9V224.823C432.574 225.402 432.086 225.884 431.435 226.27C430.796 226.644 430.048 226.831 429.193 226.831C428.312 226.831 427.517 226.614 426.806 226.18C426.094 225.746 425.534 225.137 425.124 224.353C424.714 223.57 424.509 222.677 424.509 221.677ZM432.9 221.695C432.9 220.947 432.749 220.296 432.448 219.742C432.146 219.187 431.736 218.765 431.218 218.476C430.712 218.175 430.151 218.024 429.536 218.024C428.921 218.024 428.361 218.169 427.854 218.458C427.348 218.747 426.944 219.169 426.643 219.724C426.341 220.278 426.191 220.929 426.191 221.677C426.191 222.436 426.341 223.099 426.643 223.666C426.944 224.221 427.348 224.648 427.854 224.95C428.361 225.239 428.921 225.384 429.536 225.384C430.151 225.384 430.712 225.239 431.218 224.95C431.736 224.648 432.146 224.221 432.448 223.666C432.749 223.099 432.9 222.442 432.9 221.695ZM445.879 216.758L439.912 231.333H438.212L440.165 226.559L436.169 216.758H437.995L441.105 224.787L444.18 216.758H445.879Z" fill="white"/>
<path d="M390.485 252.059C390.485 252.791 390.295 253.48 389.915 254.127C389.55 254.76 389.001 255.287 388.27 255.709C387.553 256.117 386.702 256.356 385.717 256.426V258.135H384.367V256.405C382.96 256.279 381.828 255.857 380.97 255.139C380.112 254.408 379.669 253.424 379.641 252.186H382.806C382.89 253.198 383.41 253.81 384.367 254.021V249.992C383.354 249.739 382.538 249.485 381.92 249.232C381.301 248.979 380.766 248.571 380.316 248.009C379.866 247.446 379.641 246.679 379.641 245.709C379.641 244.485 380.077 243.487 380.949 242.713C381.835 241.94 382.974 241.497 384.367 241.384V239.675H385.717V241.384C387.067 241.497 388.143 241.904 388.945 242.608C389.761 243.311 390.218 244.281 390.316 245.519H387.131C387.088 245.111 386.941 244.76 386.688 244.464C386.448 244.155 386.125 243.937 385.717 243.81V247.798C386.772 248.065 387.602 248.325 388.207 248.578C388.825 248.817 389.36 249.218 389.81 249.781C390.26 250.329 390.485 251.089 390.485 252.059ZM382.721 245.561C382.721 246.025 382.862 246.405 383.143 246.701C383.425 246.982 383.832 247.214 384.367 247.397V243.747C383.861 243.817 383.46 244.007 383.164 244.317C382.869 244.626 382.721 245.041 382.721 245.561ZM385.717 254.063C386.252 253.965 386.666 253.747 386.962 253.409C387.271 253.072 387.426 252.664 387.426 252.186C387.426 251.722 387.278 251.349 386.983 251.068C386.688 250.786 386.266 250.554 385.717 250.371V254.063ZM393.086 243.641V240.92H398.171V256.3H395.133V243.641H393.086ZM404.654 253.198L402.186 259.127H400.287L401.658 253.198H404.654ZM407.374 252.966C408.724 251.841 409.8 250.906 410.601 250.16C411.403 249.401 412.071 248.613 412.606 247.798C413.14 246.982 413.407 246.18 413.407 245.392C413.407 244.675 413.239 244.113 412.901 243.705C412.563 243.297 412.043 243.093 411.34 243.093C410.637 243.093 410.095 243.332 409.715 243.81C409.336 244.274 409.139 244.914 409.125 245.73H406.255C406.312 244.042 406.811 242.762 407.753 241.89C408.71 241.018 409.919 240.582 411.382 240.582C412.985 240.582 414.216 241.011 415.074 241.869C415.932 242.713 416.361 243.831 416.361 245.224C416.361 246.321 416.066 247.369 415.475 248.367C414.884 249.366 414.209 250.238 413.45 250.983C412.69 251.715 411.698 252.601 410.475 253.642H416.699V256.089H406.277V253.895L407.374 252.966ZM418.201 243.641V240.92H423.285V256.3H420.247V243.641H418.201ZM427.132 252.966C428.482 251.841 429.558 250.906 430.359 250.16C431.161 249.401 431.829 248.613 432.364 247.798C432.898 246.982 433.165 246.18 433.165 245.392C433.165 244.675 432.997 244.113 432.659 243.705C432.322 243.297 431.801 243.093 431.098 243.093C430.395 243.093 429.853 243.332 429.473 243.81C429.094 244.274 428.897 244.914 428.883 245.73H426.013C426.07 244.042 426.569 242.762 427.511 241.89C428.468 241.018 429.677 240.582 431.14 240.582C432.743 240.582 433.974 241.011 434.832 241.869C435.69 242.713 436.119 243.831 436.119 245.224C436.119 246.321 435.824 247.369 435.233 248.367C434.642 249.366 433.967 250.238 433.208 250.983C432.448 251.715 431.457 252.601 430.233 253.642H436.457V256.089H426.035V253.895L427.132 252.966Z" fill="white"/>
<circle cx="63.5712" cy="348.321" r="30.1389" fill="#D93C3C"/>
<path d="M76.1511 347.061C75.7196 346.488 74.1167 346.094 73.4386 345.063C72.7605 344.032 72.2054 341.8 70.4795 340.943C68.7535 340.085 65.4547 339.844 63.5711 339.844C61.6874 339.844 58.3909 340.08 56.6627 340.941C54.9344 341.802 54.3816 344.032 53.7035 345.061C53.0254 346.09 51.4225 346.488 50.991 347.061C50.5595 347.634 50.2558 351.255 50.4406 353.03C50.6255 354.805 50.9704 355.855 50.9704 355.855H56.0328C56.8616 355.855 57.1312 355.544 58.8265 355.385C60.6867 355.208 62.5115 355.149 63.5711 355.149C64.6306 355.149 66.5143 355.208 68.3733 355.385C70.0686 355.545 70.347 355.855 71.167 355.855H76.1705C76.1705 355.855 76.5155 354.805 76.7003 353.03C76.8852 351.255 76.5802 347.634 76.1511 347.061ZM72.0476 355.855H75.3441V356.797H72.0476V355.855ZM51.7981 355.855H55.0945V356.797H51.7981V355.855Z" stroke="white" stroke-width="1.88368" stroke-linecap="round" stroke-linejoin="round"/>
<path d="M69.9566 351.45C69.6087 351.048 68.4749 350.712 66.9739 350.488C65.4728 350.263 64.9254 350.204 63.5832 350.204C62.2411 350.204 61.6307 350.301 60.192 350.488C58.7534 350.674 57.6732 351.006 57.2099 351.45C56.5147 352.123 57.5331 352.879 58.3325 352.971C59.1071 353.059 60.6559 353.027 63.5897 353.027C66.5235 353.027 68.0723 353.059 68.847 352.971C69.6452 352.874 70.5905 352.171 69.9566 351.45ZM73.9064 347.558C73.9031 347.512 73.8826 347.468 73.849 347.435C73.8153 347.403 73.7708 347.384 73.7239 347.382C73.0287 347.357 72.3229 347.407 71.0709 347.776C70.4321 347.962 69.8322 348.262 69.3002 348.662C69.166 348.767 69.2137 349.05 69.382 349.08C70.414 349.201 71.4522 349.262 72.4913 349.263C73.1147 349.263 73.7581 349.086 73.8776 348.53C73.9385 348.21 73.9482 347.882 73.9064 347.558ZM53.2365 347.558C53.2398 347.512 53.2603 347.468 53.294 347.435C53.3276 347.403 53.3722 347.384 53.419 347.382C54.1142 347.357 54.82 347.407 56.0721 347.776C56.7108 347.962 57.3107 348.262 57.8427 348.662C57.9769 348.767 57.9292 349.05 57.7609 349.08C56.7289 349.201 55.6907 349.262 54.6516 349.263C54.0283 349.263 53.3849 349.086 53.2654 348.53C53.2044 348.21 53.1947 347.882 53.2365 347.558Z" fill="white"/>
<path d="M53.0932 345.672C53.0932 345.672 55.8216 344.965 63.5712 344.965C71.3208 344.965 74.0492 345.672 74.0492 345.672M73.9314 344.553H74.8733H73.9314ZM52.2691 344.553H53.2109H52.2691Z" stroke="white" stroke-width="1.88368" stroke-linecap="round" stroke-linejoin="round"/>
<path opacity="0.7" d="M126.971 325.578V326.916H123.536V338.182H121.89V326.916H118.436V325.578H126.971ZM130.643 329.882C130.932 329.315 131.342 328.875 131.872 328.561C132.415 328.248 133.072 328.091 133.843 328.091V329.791H133.409C131.565 329.791 130.643 330.792 130.643 332.793V338.182H128.997V328.272H130.643V329.882ZM135.128 333.191C135.128 332.178 135.333 331.292 135.743 330.533C136.153 329.761 136.713 329.164 137.425 328.742C138.148 328.32 138.95 328.109 139.83 328.109C140.698 328.109 141.451 328.296 142.09 328.67C142.729 329.044 143.205 329.514 143.519 330.08V328.272H145.183V338.182H143.519V336.337C143.193 336.916 142.705 337.398 142.054 337.784C141.415 338.158 140.668 338.345 139.812 338.345C138.932 338.345 138.136 338.128 137.425 337.694C136.713 337.26 136.153 336.651 135.743 335.867C135.333 335.084 135.128 334.191 135.128 333.191ZM143.519 333.209C143.519 332.461 143.368 331.81 143.067 331.256C142.765 330.701 142.355 330.279 141.837 329.99C141.331 329.689 140.77 329.538 140.155 329.538C139.541 329.538 138.98 329.683 138.474 329.972C137.967 330.261 137.563 330.683 137.262 331.238C136.961 331.792 136.81 332.443 136.81 333.191C136.81 333.95 136.961 334.613 137.262 335.18C137.563 335.735 137.967 336.162 138.474 336.464C138.98 336.753 139.541 336.898 140.155 336.898C140.77 336.898 141.331 336.753 141.837 336.464C142.355 336.162 142.765 335.735 143.067 335.18C143.368 334.613 143.519 333.956 143.519 333.209ZM152.792 328.091C153.997 328.091 154.974 328.459 155.721 329.194C156.469 329.918 156.842 330.967 156.842 332.341V338.182H155.215V332.576C155.215 331.587 154.968 330.834 154.473 330.316C153.979 329.785 153.304 329.52 152.448 329.52C151.58 329.52 150.887 329.791 150.368 330.334C149.862 330.876 149.609 331.666 149.609 332.703V338.182H147.963V328.272H149.609V329.683C149.934 329.176 150.375 328.784 150.929 328.507C151.496 328.23 152.117 328.091 152.792 328.091ZM163.039 338.345C162.279 338.345 161.598 338.218 160.995 337.965C160.392 337.7 159.916 337.338 159.567 336.88C159.217 336.41 159.024 335.873 158.988 335.27H160.688C160.736 335.765 160.965 336.169 161.375 336.482C161.797 336.795 162.345 336.952 163.02 336.952C163.647 336.952 164.142 336.813 164.503 336.536C164.865 336.259 165.046 335.909 165.046 335.487C165.046 335.053 164.853 334.734 164.467 334.529C164.081 334.312 163.485 334.101 162.677 333.896C161.942 333.703 161.339 333.51 160.869 333.317C160.41 333.112 160.013 332.817 159.675 332.431C159.35 332.033 159.187 331.515 159.187 330.876C159.187 330.37 159.338 329.906 159.639 329.484C159.94 329.062 160.368 328.73 160.923 328.489C161.477 328.236 162.11 328.109 162.822 328.109C163.919 328.109 164.805 328.387 165.48 328.941C166.155 329.496 166.517 330.255 166.565 331.22H164.919C164.883 330.701 164.672 330.285 164.286 329.972C163.913 329.658 163.406 329.502 162.767 329.502C162.177 329.502 161.706 329.628 161.357 329.882C161.007 330.135 160.832 330.466 160.832 330.876C160.832 331.202 160.935 331.473 161.14 331.69C161.357 331.895 161.622 332.064 161.935 332.196C162.261 332.317 162.707 332.455 163.274 332.612C163.985 332.805 164.564 332.998 165.01 333.191C165.456 333.372 165.835 333.649 166.149 334.023C166.474 334.396 166.643 334.885 166.655 335.487C166.655 336.03 166.505 336.518 166.203 336.952C165.902 337.386 165.474 337.73 164.919 337.983C164.377 338.224 163.75 338.345 163.039 338.345ZM170.624 330.099C170.949 329.532 171.432 329.062 172.07 328.688C172.721 328.302 173.475 328.109 174.331 328.109C175.211 328.109 176.007 328.32 176.718 328.742C177.441 329.164 178.008 329.761 178.418 330.533C178.828 331.292 179.033 332.178 179.033 333.191C179.033 334.191 178.828 335.084 178.418 335.867C178.008 336.651 177.441 337.26 176.718 337.694C176.007 338.128 175.211 338.345 174.331 338.345C173.487 338.345 172.74 338.158 172.089 337.784C171.45 337.398 170.961 336.922 170.624 336.355V342.883H168.978V328.272H170.624V330.099ZM177.351 333.191C177.351 332.443 177.2 331.792 176.899 331.238C176.597 330.683 176.187 330.261 175.669 329.972C175.163 329.683 174.602 329.538 173.987 329.538C173.385 329.538 172.824 329.689 172.306 329.99C171.799 330.279 171.389 330.707 171.076 331.274C170.775 331.829 170.624 332.473 170.624 333.209C170.624 333.956 170.775 334.613 171.076 335.18C171.389 335.735 171.799 336.162 172.306 336.464C172.824 336.753 173.385 336.898 173.987 336.898C174.602 336.898 175.163 336.753 175.669 336.464C176.187 336.162 176.597 335.735 176.899 335.18C177.2 334.613 177.351 333.95 177.351 333.191ZM185.521 338.345C184.592 338.345 183.748 338.134 182.989 337.712C182.241 337.29 181.651 336.693 181.217 335.921C180.795 335.138 180.584 334.234 180.584 333.209C180.584 332.196 180.801 331.304 181.235 330.533C181.681 329.749 182.284 329.152 183.043 328.742C183.803 328.32 184.653 328.109 185.593 328.109C186.533 328.109 187.383 328.32 188.143 328.742C188.902 329.152 189.499 329.743 189.933 330.514C190.379 331.286 190.602 332.184 190.602 333.209C190.602 334.234 190.373 335.138 189.915 335.921C189.469 336.693 188.86 337.29 188.088 337.712C187.317 338.134 186.461 338.345 185.521 338.345ZM185.521 336.898C186.111 336.898 186.666 336.759 187.184 336.482C187.703 336.205 188.119 335.789 188.432 335.234C188.757 334.68 188.92 334.005 188.92 333.209C188.92 332.413 188.763 331.738 188.45 331.184C188.137 330.629 187.727 330.219 187.22 329.954C186.714 329.677 186.166 329.538 185.575 329.538C184.972 329.538 184.417 329.677 183.911 329.954C183.417 330.219 183.019 330.629 182.718 331.184C182.416 331.738 182.266 332.413 182.266 333.209C182.266 334.017 182.41 334.698 182.7 335.252C183.001 335.807 183.399 336.223 183.893 336.5C184.387 336.765 184.93 336.898 185.521 336.898ZM194.411 329.882C194.701 329.315 195.11 328.875 195.641 328.561C196.183 328.248 196.84 328.091 197.612 328.091V329.791H197.178C195.333 329.791 194.411 330.792 194.411 332.793V338.182H192.766V328.272H194.411V329.882ZM201.519 329.628V335.469C201.519 335.952 201.621 336.295 201.826 336.5C202.031 336.693 202.387 336.789 202.893 336.789H204.105V338.182H202.622C201.706 338.182 201.018 337.971 200.56 337.549C200.102 337.127 199.873 336.434 199.873 335.469V329.628H198.589V328.272H199.873V325.777H201.519V328.272H204.105V329.628H201.519ZM205.484 333.191C205.484 332.178 205.689 331.292 206.099 330.533C206.508 329.761 207.069 329.164 207.78 328.742C208.504 328.32 209.305 328.109 210.185 328.109C211.053 328.109 211.807 328.296 212.446 328.67C213.085 329.044 213.561 329.514 213.874 330.08V328.272H215.538V338.182H213.874V336.337C213.549 336.916 213.061 337.398 212.41 337.784C211.771 338.158 211.023 338.345 210.167 338.345C209.287 338.345 208.492 338.128 207.78 337.694C207.069 337.26 206.508 336.651 206.099 335.867C205.689 335.084 205.484 334.191 205.484 333.191ZM213.874 333.209C213.874 332.461 213.724 331.81 213.422 331.256C213.121 330.701 212.711 330.279 212.193 329.99C211.686 329.689 211.126 329.538 210.511 329.538C209.896 329.538 209.335 329.683 208.829 329.972C208.323 330.261 207.919 330.683 207.618 331.238C207.316 331.792 207.165 332.443 207.165 333.191C207.165 333.95 207.316 334.613 207.618 335.18C207.919 335.735 208.323 336.162 208.829 336.464C209.335 336.753 209.896 336.898 210.511 336.898C211.126 336.898 211.686 336.753 212.193 336.464C212.711 336.162 213.121 335.735 213.422 335.18C213.724 334.613 213.874 333.956 213.874 333.209ZM220.326 329.628V335.469C220.326 335.952 220.429 336.295 220.634 336.5C220.839 336.693 221.194 336.789 221.701 336.789H222.912V338.182H221.429C220.513 338.182 219.826 337.971 219.368 337.549C218.91 337.127 218.681 336.434 218.681 335.469V329.628H217.397V328.272H218.681V325.777H220.326V328.272H222.912V329.628H220.326ZM225.756 326.663C225.442 326.663 225.177 326.554 224.96 326.337C224.743 326.12 224.635 325.855 224.635 325.542C224.635 325.228 224.743 324.963 224.96 324.746C225.177 324.529 225.442 324.42 225.756 324.42C226.057 324.42 226.31 324.529 226.515 324.746C226.732 324.963 226.841 325.228 226.841 325.542C226.841 325.855 226.732 326.12 226.515 326.337C226.31 326.554 226.057 326.663 225.756 326.663ZM226.552 328.272V338.182H224.906V328.272H226.552ZM233.678 338.345C232.75 338.345 231.906 338.134 231.146 337.712C230.399 337.29 229.808 336.693 229.374 335.921C228.952 335.138 228.741 334.234 228.741 333.209C228.741 332.196 228.958 331.304 229.392 330.533C229.838 329.749 230.441 329.152 231.201 328.742C231.96 328.32 232.81 328.109 233.75 328.109C234.691 328.109 235.541 328.32 236.3 328.742C237.06 329.152 237.656 329.743 238.09 330.514C238.536 331.286 238.759 332.184 238.759 333.209C238.759 334.234 238.53 335.138 238.072 335.921C237.626 336.693 237.017 337.29 236.246 337.712C235.474 338.134 234.618 338.345 233.678 338.345ZM233.678 336.898C234.269 336.898 234.823 336.759 235.342 336.482C235.86 336.205 236.276 335.789 236.589 335.234C236.915 334.68 237.078 334.005 237.078 333.209C237.078 332.413 236.921 331.738 236.608 331.184C236.294 330.629 235.884 330.219 235.378 329.954C234.872 329.677 234.323 329.538 233.732 329.538C233.13 329.538 232.575 329.677 232.069 329.954C231.574 330.219 231.177 330.629 230.875 331.184C230.574 331.738 230.423 332.413 230.423 333.209C230.423 334.017 230.568 334.698 230.857 335.252C231.158 335.807 231.556 336.223 232.051 336.5C232.545 336.765 233.087 336.898 233.678 336.898ZM245.751 328.091C246.957 328.091 247.933 328.459 248.681 329.194C249.428 329.918 249.802 330.967 249.802 332.341V338.182H248.175V332.576C248.175 331.587 247.927 330.834 247.433 330.316C246.939 329.785 246.264 329.52 245.408 329.52C244.54 329.52 243.847 329.791 243.328 330.334C242.822 330.876 242.569 331.666 242.569 332.703V338.182H240.923V328.272H242.569V329.683C242.894 329.176 243.334 328.784 243.889 328.507C244.455 328.23 245.076 328.091 245.751 328.091Z" fill="white"/>
<path d="M129.783 363.573C129.783 364.305 129.594 364.994 129.214 365.641C128.848 366.274 128.3 366.801 127.568 367.223C126.851 367.631 126 367.87 125.016 367.94V369.649H123.665V367.919C122.259 367.793 121.127 367.371 120.269 366.653C119.411 365.922 118.968 364.937 118.94 363.7H122.104C122.188 364.712 122.709 365.324 123.665 365.535V361.506C122.653 361.253 121.837 360.999 121.218 360.746C120.599 360.493 120.065 360.085 119.615 359.523C119.165 358.96 118.94 358.193 118.94 357.223C118.94 355.999 119.376 355.001 120.248 354.227C121.134 353.454 122.273 353.011 123.665 352.898V351.189H125.016V352.898C126.366 353.011 127.442 353.418 128.243 354.122C129.059 354.825 129.516 355.795 129.615 357.033H126.429C126.387 356.625 126.239 356.274 125.986 355.978C125.747 355.669 125.423 355.451 125.016 355.324V359.312C126.07 359.579 126.9 359.839 127.505 360.092C128.124 360.331 128.658 360.732 129.108 361.295C129.558 361.843 129.783 362.603 129.783 363.573ZM122.02 357.075C122.02 357.539 122.16 357.919 122.442 358.215C122.723 358.496 123.131 358.728 123.665 358.911V355.261C123.159 355.331 122.758 355.521 122.463 355.831C122.167 356.14 122.02 356.555 122.02 357.075ZM125.016 365.577C125.55 365.479 125.965 365.261 126.26 364.923C126.57 364.586 126.724 364.178 126.724 363.7C126.724 363.236 126.577 362.863 126.281 362.582C125.986 362.3 125.564 362.068 125.016 361.885V365.577ZM132.385 355.155V352.434H137.469V367.814H134.431V355.155H132.385ZM143.952 364.712L141.484 370.641H139.585L140.957 364.712H143.952ZM145.786 356.485C145.856 355.078 146.349 353.995 147.263 353.236C148.191 352.462 149.408 352.075 150.913 352.075C151.939 352.075 152.818 352.258 153.55 352.624C154.281 352.975 154.83 353.461 155.195 354.079C155.575 354.684 155.765 355.373 155.765 356.147C155.765 357.033 155.533 357.786 155.069 358.404C154.619 359.009 154.077 359.417 153.444 359.628V359.712C154.26 359.966 154.893 360.416 155.343 361.063C155.807 361.71 156.039 362.539 156.039 363.552C156.039 364.396 155.842 365.148 155.448 365.81C155.069 366.471 154.499 366.991 153.74 367.371C152.994 367.736 152.094 367.919 151.039 367.919C149.45 367.919 148.156 367.518 147.157 366.717C146.159 365.915 145.631 364.734 145.575 363.172H148.444C148.472 363.862 148.704 364.417 149.14 364.839C149.59 365.247 150.202 365.451 150.976 365.451C151.693 365.451 152.242 365.254 152.621 364.86C153.015 364.452 153.212 363.932 153.212 363.299C153.212 362.455 152.945 361.85 152.41 361.485C151.876 361.119 151.046 360.936 149.921 360.936H149.309V358.51H149.921C151.918 358.51 152.917 357.842 152.917 356.506C152.917 355.901 152.734 355.43 152.368 355.092C152.017 354.755 151.503 354.586 150.828 354.586C150.167 354.586 149.654 354.769 149.288 355.134C148.936 355.486 148.732 355.936 148.676 356.485H145.786ZM168.162 354.67L162.55 367.814H159.555L165.209 355.008H157.993V352.476H168.162V354.67ZM169.573 355.155V352.434H174.657V367.814H171.619V355.155H169.573Z" fill="white"/>
<defs>
<linearGradient id="paint0_linear_0_552" x1="285.846" y1="0" x2="285.846" y2="415.674" gradientUnits="userSpaceOnUse">
<stop stop-color="#333333"/>
<stop offset="1" stop-color="#1F1F1F" stop-opacity="0"/>
</linearGradient>
</defs>
</svg>
