<svg width="88" height="88" viewBox="0 0 88 88" fill="none" xmlns="http://www.w3.org/2000/svg">
<rect x="0.5" y="0.5" width="87" height="87" rx="43.5" fill="url(#paint0_linear_154_18888)"/>
<rect x="0.5" y="0.5" width="87" height="87" rx="43.5" stroke="url(#paint1_linear_154_18888)"/>
<g filter="url(#filter0_d_154_18888)">
<rect x="16" y="16" width="56" height="56" rx="28" fill="#36B7FF"/>
<rect x="16.5" y="16.5" width="55" height="55" rx="27.5" stroke="#E2E4E9"/>
<path d="M46.1001 46.3646V48.559C45.1498 48.2231 44.1327 48.12 43.1343 48.2585C42.1359 48.3971 41.1853 48.7731 40.3623 49.3552C39.5393 49.9372 38.8681 50.7082 38.4048 51.6034C37.9416 52.4987 37.6999 53.492 37.7001 54.5L35.6001 54.4989C35.5998 53.2167 35.893 51.9515 36.4572 50.8002C37.0215 49.6488 37.8418 48.6419 38.8553 47.8566C39.8689 47.0713 41.0487 46.5285 42.3045 46.2697C43.5603 46.0109 44.8586 46.043 46.1001 46.3635V46.3646ZM44.0001 45.05C40.5193 45.05 37.7001 42.2307 37.7001 38.75C37.7001 35.2692 40.5193 32.45 44.0001 32.45C47.4808 32.45 50.3001 35.2692 50.3001 38.75C50.3001 42.2307 47.4808 45.05 44.0001 45.05ZM44.0001 42.95C46.3206 42.95 48.2001 41.0705 48.2001 38.75C48.2001 36.4295 46.3206 34.55 44.0001 34.55C41.6796 34.55 39.8001 36.4295 39.8001 38.75C39.8001 41.0705 41.6796 42.95 44.0001 42.95ZM50.9154 49.25L48.9949 47.3306L50.4807 45.8448L54.9348 50.2999L50.4807 54.7551L48.9949 53.2694L50.9154 51.35H47.1501V49.25H50.9154Z" fill="white"/>
</g>
<defs>
<filter id="filter0_d_154_18888" x="12" y="14" width="64" height="64" filterUnits="userSpaceOnUse" color-interpolation-filters="sRGB">
<feFlood flood-opacity="0" result="BackgroundImageFix"/>
<feColorMatrix in="SourceAlpha" type="matrix" values="0 0 0 0 0 0 0 0 0 0 0 0 0 0 0 0 0 0 127 0" result="hardAlpha"/>
<feOffset dy="2"/>
<feGaussianBlur stdDeviation="2"/>
<feColorMatrix type="matrix" values="0 0 0 0 0.105882 0 0 0 0 0.109804 0 0 0 0 0.113725 0 0 0 0.04 0"/>
<feBlend mode="normal" in2="BackgroundImageFix" result="effect1_dropShadow_154_18888"/>
<feBlend mode="normal" in="SourceGraphic" in2="effect1_dropShadow_154_18888" result="shape"/>
</filter>
<linearGradient id="paint0_linear_154_18888" x1="44" y1="0" x2="44" y2="88" gradientUnits="userSpaceOnUse">
<stop stop-color="#E4E5E7" stop-opacity="0.48"/>
<stop offset="1" stop-color="#F7F8F8" stop-opacity="0"/>
<stop offset="1" stop-color="#E4E5E7" stop-opacity="0"/>
</linearGradient>
<linearGradient id="paint1_linear_154_18888" x1="44" y1="0" x2="44" y2="88" gradientUnits="userSpaceOnUse">
<stop stop-color="#E4E5E7"/>
<stop offset="0.765625" stop-color="#E4E5E7" stop-opacity="0"/>
</linearGradient>
</defs>
</svg>
