<svg width="22" height="27" viewBox="0 0 22 27" fill="none" xmlns="http://www.w3.org/2000/svg">
<path d="M1.47983 4.09824L16.905 1.01606C17.0643 0.984152 17.2283 0.983943 17.3876 1.01545C17.5469 1.04695 17.6985 1.10955 17.8336 1.19966C17.9687 1.28978 18.0848 1.40564 18.1751 1.54063C18.2654 1.67562 18.3282 1.82708 18.3599 1.98637L21.4421 17.4116C21.5064 17.7332 21.4402 18.0671 21.2583 18.34C21.0763 18.6128 20.7934 18.8022 20.4718 18.8665C20.1502 18.9307 19.8163 18.8646 19.5434 18.6826C19.2706 18.5007 19.0812 18.2178 19.0169 17.8962L16.5204 5.39617L3.0896 25.5345C2.90773 25.8072 2.62499 25.9965 2.30357 26.0607C1.98215 26.125 1.64838 26.0589 1.37568 25.877C1.10299 25.6951 0.913713 25.4124 0.849489 25.091C0.785265 24.7695 0.851355 24.4358 1.03322 24.1631L14.464 4.02472L1.96442 6.52343C1.64282 6.58769 1.30886 6.52157 1.03602 6.3396C0.763174 6.15763 0.573792 5.87473 0.509532 5.55313C0.445271 5.23153 0.511397 4.89758 0.693363 4.62473C0.87533 4.35189 1.15823 4.1625 1.47983 4.09824Z" fill="#EEEEEE"/>
</svg>
