<svg width="33" height="34" viewBox="0 0 33 34" fill="none" xmlns="http://www.w3.org/2000/svg">
<path d="M0.656029 25.4842L1.4102 2.13854C1.41785 1.8975 1.47294 1.66032 1.57231 1.44058C1.67169 1.22083 1.81341 1.02284 1.98936 0.857898C2.16531 0.692961 2.37204 0.564317 2.59774 0.47933C2.82344 0.394344 3.06367 0.354677 3.30471 0.362599L26.6504 1.11676C27.1372 1.13249 27.5977 1.34092 27.9308 1.69621C28.2638 2.0515 28.4421 2.52455 28.4264 3.01128C28.4106 3.49802 28.2022 3.95857 27.8469 4.29162C27.4916 4.62468 27.0186 4.80295 26.5318 4.78723L7.61377 4.17447L32.1962 30.3981C32.5291 30.7532 32.7072 31.226 32.6915 31.7125C32.6758 32.1989 32.4675 32.6592 32.1124 32.9921C31.7573 33.325 31.2845 33.5032 30.7981 33.4874C30.3116 33.4717 29.8513 33.2634 29.5184 32.9083L4.93601 6.68464L4.3265 25.6028C4.31077 26.0896 4.10234 26.5501 3.74705 26.8832C3.39175 27.2162 2.91871 27.3945 2.43198 27.3788C1.94524 27.363 1.48469 27.1546 1.15164 26.7993C0.818581 26.444 0.640306 25.971 0.656029 25.4842Z" fill="white"/>
</svg>
