<svg width="224" height="15" viewBox="0 0 224 15" fill="none" xmlns="http://www.w3.org/2000/svg">
<path d="M207.162 7.24181C206.886 8.1583 205.779 8.4835 206.144 9.93214C206.266 10.4052 205.79 10.9817 205.237 11.0112C205.159 11.0556 205.082 11.0851 204.993 11.1295C205.026 11.026 205.048 10.9225 205.082 10.8191C205.026 10.1834 205.192 9.50345 204.86 8.91217C204.761 9.23738 204.783 9.81389 204.373 9.66607C204.074 9.5626 204.274 9.13391 204.318 8.85305C203.532 8.42437 203.045 8.76437 202.868 9.82868C202.757 10.4643 202.934 11.2625 202.16 11.5877C201.75 10.8191 201.562 9.94693 201.462 9.01566C201.407 8.49828 201.263 7.9957 200.953 7.65571C200.621 7.28616 200.212 7.21224 199.869 7.59657C199.548 7.95134 199.692 8.36524 199.946 8.70522C200.19 9.03043 200.356 9.37042 200.322 9.84345L200.256 10.0061L200.356 9.88779C200.998 10.5086 201.274 11.2773 200.555 11.9868C199.913 12.6225 199.459 11.9869 199.127 11.2625C198.994 10.9669 198.884 10.6565 198.762 10.346L198.64 10.2426L198.729 10.3904C197.998 12.6964 196.305 13.5094 194.357 12.4895C194.656 12.4155 194.932 12.2825 195.132 11.9573C195.32 12.0164 195.497 12.1199 195.685 12.1199C195.785 12.1199 195.973 11.9868 195.984 11.8982C196.017 11.5286 195.785 11.5286 195.608 11.5729C195.43 11.6321 195.264 11.7799 195.098 11.8982C194.844 12.0755 194.589 12.2677 194.335 12.4451C193.77 12.9033 193.217 13.2877 192.509 13.3468C191.878 13.4059 191.712 13.5242 191.867 12.4895C191.955 11.8982 190.428 11.5286 189.952 12.046C189.066 13.0117 188.465 12.7112 188.148 11.1443C187.517 11.7651 188.247 13.3911 187.041 13.4946C186.034 13.5833 185.602 12.8738 185.348 11.7799C184.617 11.7799 184.341 12.6373 183.809 12.9181C182.968 13.3616 183.156 12.5042 183.079 11.9721C182.946 11.8095 182.813 11.6469 182.669 11.4843C182.271 11.9425 182.703 12.992 181.817 13.1842C180.755 13.4207 179.714 14.0859 178.729 12.9625C178.862 12.7851 178.995 12.6225 179.128 12.4599C179.238 12.4155 179.349 12.386 179.449 12.3268C179.471 12.3268 179.482 12.2381 179.504 12.1938C179.305 12.0755 179.216 12.3121 179.105 12.4303C178.984 12.6077 178.851 12.7851 178.729 12.9625C177.965 12.8886 178.01 11.7651 177.512 11.366C178.32 9.6365 179.659 9.01566 181.076 8.51307C180.732 8.39482 180.411 8.35047 180.102 8.39481C178.541 8.64611 178.519 8.63133 178.198 6.50271C178.098 5.83752 177.788 5.66012 177.335 5.95576C176.947 6.20705 176.814 6.70965 176.704 7.21224L176.615 7.34528L176.737 7.24181C176.98 7.13834 177.379 6.57661 177.368 7.43397C177.368 7.99568 177.346 10.5973 177.501 11.0556C177.523 11.1147 177.467 11.2182 177.456 11.2921C177.268 11.499 177.025 11.5877 177.069 12.0755C177.213 13.539 177.169 13.5833 176.128 12.8885C175.818 12.6816 175.597 12.7407 175.442 12.992C174.734 14.145 174.036 13.8198 173.262 13.1103C173.029 12.9033 172.62 12.992 172.299 12.9477C172.232 12.7407 172.166 12.5486 172.089 12.3416C172.011 12.4303 171.922 12.519 171.845 12.6077C171.978 12.7407 172.122 12.8738 172.255 13.0068C172.321 14.1155 171.734 14.2929 171.258 13.8051C170.406 12.9329 169.355 12.1051 169.488 10.3313C168.945 10.8486 168.569 11.3956 169.266 12.1642C169.654 12.5781 169.975 12.992 169.576 13.6572C169.311 14.1007 168.901 13.9233 168.58 14.0415C166.975 14.5885 165.725 13.0955 164.275 12.9477C164.308 13.0659 164.341 13.199 164.363 13.332C164.596 13.4207 164.861 13.4798 164.928 13.8642C164.95 13.9824 164.861 14.2337 164.784 14.2633C164.363 14.4111 164.275 13.9677 164.164 13.5981C162.913 13.6572 161.674 13.8642 160.467 14.2633C159.471 14.5885 158.53 14.5294 157.756 13.6129C157.346 13.1399 157.224 13.4355 157.025 13.7903C156.737 14.3076 156.317 14.7067 155.841 14.5589C154.258 14.0711 152.698 14.7954 151.126 14.6328C150.517 14.5737 149.942 14.485 149.411 14.0711C148.403 13.2877 148.403 12.6668 149.422 11.3956L149.543 11.5138L149.444 11.366C148.669 10.8782 148.204 11.1443 148.071 12.2973C147.839 14.2781 147.308 15.0763 145.924 14.4998C144.22 13.7902 142.538 14.825 140.822 13.9972C139.959 13.5833 138.808 14.7363 137.723 14.2337C137.491 14.1302 137.092 14.3372 136.959 14.1598C136.063 12.9329 135.277 13.0512 134.458 14.2781C134.237 14.6181 133.849 14.5294 133.517 14.5589C132.444 14.6624 131.459 13.6868 130.308 14.2337C129.92 14.4111 129.765 13.3616 129.466 12.9181C129.389 12.4007 130.263 12.5042 129.909 12.1051C129.655 11.8242 128.935 11.9721 129.411 12.9477C129.168 14.0859 128.758 14.6476 127.707 14.4702C126.478 14.2633 125.305 14.9137 123.988 13.8642C123.213 13.2581 121.741 14.0416 120.623 14.3963C119.871 14.6328 119.727 13.9233 119.395 13.4503L119.262 13.3616L119.362 13.4946C119.03 14.5737 118.332 14.6328 117.591 14.6476C116.805 14.6476 116.03 14.6772 115.344 14.0563C115.023 13.7607 114.957 13.3764 115.156 12.9772C115.399 12.4746 115.698 12.0164 115.787 11.4103C115.92 11.2477 116.063 11.0851 116.196 10.9078L116.373 10.8782L116.539 10.9225C116.838 11.2625 117.126 11.2478 117.403 10.893L117.48 10.7304L117.38 10.8634C117.115 10.8634 116.838 10.8634 116.573 10.8634C116.44 10.686 116.307 10.6712 116.174 10.8634C116.041 11.026 115.897 11.2034 115.765 11.366C115.255 11.3956 114.436 12.1051 114.115 12.6225C113.795 13.1399 113.883 14.2189 113.23 14.2042C112.422 14.1746 111.614 15.0615 110.906 14.485C110.231 13.9233 109.677 14.4111 109.08 14.3963C108.416 14.3668 107.796 14.7954 107.11 14.5146C105.294 13.7607 103.435 14.3372 101.598 14.2781C100.591 14.2485 99.8823 13.8346 99.2072 13.0068C98.9084 15.0763 97.8127 13.9972 97.049 13.8346C96.3074 13.6868 95.6102 13.4798 94.8908 13.8642C93.7618 14.4555 92.6993 13.3025 91.5704 13.6572C91.4597 13.6868 91.1941 13.4207 91.1388 13.2138C91.0392 12.859 91.3933 11.9868 90.6297 12.8146C89.4786 14.0711 87.7188 14.0416 86.5457 12.9625L86.6453 12.8294L86.5235 12.9181C86.2911 13.0955 86.0033 13.4946 85.8484 13.4207C84.2878 12.6668 82.683 13.2877 81.1224 13.0216C80.1263 12.8442 78.8867 13.9972 78.1231 12.2381C78.0235 12.3268 77.8685 12.4007 77.8464 12.519C77.5143 13.805 76.5625 13.4355 75.9649 13.465C71.4271 13.6572 66.8782 13.4059 62.3515 13.0364C61.6985 12.9773 61.0898 12.9329 60.4146 12.9772C58.9426 13.0659 57.3489 13.4798 56.0871 11.9277L56.1978 11.7947L56.0871 11.9129C54.6151 13.2285 52.9549 13.1251 51.2837 13.0512C50.7303 13.0216 50.5643 12.4451 50.2544 12.0608C50.0109 12.4599 49.7785 13.0807 49.3579 12.992C47.7642 12.652 46.0265 13.7607 44.5656 12.2381C44.0675 11.7208 44.0564 12.4007 43.8351 12.5486C42.5623 13.4503 41.1899 13.2285 40.0831 11.9277L40.1717 11.7947L40.0499 11.8834C38.4783 13.0512 36.8403 12.5929 35.2133 12.2086C34.8259 12.1199 34.4164 11.6173 34.0955 11.7208C31.8266 12.5042 29.5909 11.8981 27.3552 11.499C25.208 11.1147 22.9834 11.3069 20.9248 10.8043C17.9476 10.08 14.8818 10.8486 12.0263 9.72519C10.1558 8.98609 8.01977 9.5478 6.3928 7.75917L6.49241 7.61137L6.37067 7.72963C5.49631 6.93139 4.45594 6.63574 3.48198 6.14793C2.59655 5.70447 1.83288 4.99493 1.08027 4.30018C0.471542 3.73846 0.316594 2.96979 0.670763 2.00895C1.036 1.01855 1.54512 1.3142 2.16491 1.41768C5.28602 1.9794 8.42927 2.92545 11.5282 2.73328C13.5315 2.61503 15.402 3.30978 17.3167 3.14718C18.7002 3.02892 20.0726 3.17674 21.4228 3.23587C23.1826 3.30978 25.0752 2.77764 26.7132 4.19671C26.8903 4.34453 27.1227 4.50713 27.2445 4.32975C28.6169 2.46721 30.3435 3.64976 31.7712 3.7828C33.6749 3.96018 35.5896 3.91584 37.5043 4.18192C39.2641 4.41843 39.2862 4.24105 39.2088 6.56183C39.2088 6.78356 39.2309 6.90182 39.4744 6.96095C40.0278 6.47314 39.408 5.00973 40.3709 4.77321C40.227 4.64017 40.0831 4.50713 39.9282 4.37409C40.1827 3.98976 40.3487 4.30018 40.5258 4.50712C41.9204 4.09323 42.518 4.13758 44.8755 4.81756C45.4953 3.48717 46.602 5.85229 47.1997 4.30018C48.9705 4.04888 50.7525 3.93064 52.5344 4.03411C53.8182 4.10802 52.6451 5.73403 53.4198 6.23662C53.7297 5.63056 54.5044 5.66012 54.6483 4.80276C54.7922 4.01931 55.246 4.40365 55.5337 4.21149C56.4634 3.62021 56.7512 5.40882 57.3931 5.05405C58.0904 4.66972 58.4888 4.56624 59.1418 5.261C59.8944 6.07401 59.3964 4.95059 59.5071 4.6993C59.7948 3.98976 60.2375 4.15237 60.7135 4.35932C61.5989 4.74365 62.4068 4.87667 63.3587 4.22626C64.4322 3.48716 65.6829 4.5367 66.8671 4.24106C66.9446 4.22628 67.1549 4.49233 67.1438 4.5219C66.4023 6.50269 68.0846 5.24624 68.2838 5.97056C68.2949 6.02968 68.3945 6.05924 68.4498 6.10359C68.6159 5.80795 68.8261 5.49752 69.0254 5.95576C69.1139 6.14793 68.7929 6.29575 68.6048 6.36966C68.9147 7.43396 69.2799 7.28616 69.623 6.41402C69.9108 5.6897 69.7448 4.71407 70.5638 4.30018C71.6263 3.76802 72.6667 4.30017 73.707 4.22626C73.8841 4.22626 74.0612 4.62538 73.9505 4.80276C73.7513 5.11318 73.4525 5.30535 73.1426 5.58621C73.6517 5.73403 74.3158 5.73404 74.4596 5.36449C74.9024 4.24105 75.6107 4.41845 76.319 4.35932C78.2116 4.2115 80.0931 4.27061 81.9857 4.38886C83.181 4.47756 83.8451 4.98015 84.1107 6.47314C84.155 6.73922 84.1218 7.21224 84.5092 7.21224C84.5756 7.06442 84.6531 6.93139 84.6973 6.78357C84.9076 6.08882 84.2436 5.12797 84.9298 4.64016C85.5717 4.18191 86.4128 3.94541 87.0437 4.49235C87.9402 5.26102 88.6817 4.95059 89.545 4.21149C89.7996 5.23145 89.3015 6.05925 89.545 6.91661C89.6889 7.4192 89.8217 7.71484 90.2202 7.61137C90.8842 7.43398 90.3751 7.02007 90.3087 6.69486C89.9988 4.98014 90.1316 4.62538 91.4597 4.71407C92.9871 4.81755 94.4923 4.32975 96.0197 4.53669C96.396 4.58104 96.9051 4.35932 97.0822 4.93582C97.2593 5.55666 96.9272 6.08881 96.5731 6.51749C96.2964 6.85747 95.7983 6.85747 95.6544 7.62614C97.5359 9.16347 99.2957 7.09398 101.122 7.27136C99.9266 6.60617 98.5763 7.87744 97.4253 6.70966C97.381 5.86708 97.5913 4.99493 98.1668 4.75842C98.9637 4.41843 99.9155 4.10801 100.668 4.38886C101.299 4.62538 100.48 5.05405 100.281 5.58621C100.889 5.30535 101.742 6.29576 101.875 4.61061C101.908 4.19671 102.306 4.41843 102.55 4.38886C104.83 4.0341 107.121 3.98975 109.412 4.108C109.478 5.43839 108.692 5.03928 108.294 5.36449C108.626 5.73404 109.201 5.57144 109.401 6.22185C109.013 6.56184 108.615 6.9166 108.227 7.25659C107.231 6.96095 106.257 6.9166 105.339 7.67048C106.324 7.75918 107.342 8.1583 108.261 7.3305C108.725 7.12355 109.268 7.04964 109.445 6.26619C110.85 4.55147 112.555 3.90106 114.436 3.85671C114.768 3.85671 115.267 3.66455 115.278 4.1228C115.3 5.03929 115.101 5.97054 115.012 6.90181C114.957 7.55222 114.647 7.75917 114.204 7.75917C114.282 7.36006 114.37 6.99051 114.093 6.63574C113.662 6.07403 113.927 5.61578 114.226 5.15754L114.293 5.00971L114.193 5.11319C113.806 5.39405 113.33 4.66972 112.953 5.261C113.462 6.02967 113.13 7.49311 114.193 7.77397C114.193 7.93657 114.193 8.11395 114.193 8.27655C113.629 8.30612 113.119 8.43916 112.998 9.34086L112.898 9.48867L113.02 9.37043C113.418 9.01567 113.817 8.66089 114.215 8.3209C114.724 8.20264 115.222 8.11396 115.687 7.77397C116.318 7.31573 116.727 6.88704 115.875 6.13316C115.831 6.08881 116.041 5.55665 116.13 5.24623C115.975 5.0245 115.731 4.68451 115.964 4.50712C116.252 4.30018 116.207 4.83233 116.329 5.03928C117.879 3.51673 119.705 3.69412 121.487 3.62021C121.631 3.62021 121.841 3.88628 121.907 4.09323C122.051 4.55147 121.73 4.62538 121.487 4.75842C120.358 5.39404 121.265 5.27579 121.619 5.57143C121.896 5.80795 121.94 6.45836 122.151 6.87226C122.206 6.97574 122.527 6.88704 122.693 6.79835C122.815 6.73922 123.136 6.62096 122.837 6.31054C121.985 5.42361 122.461 5.17231 123.191 5.05405C123.479 5.00971 123.778 4.99494 124.508 4.93582C123.877 4.77321 123.689 4.74363 123.501 4.6845C123.191 4.59581 122.782 4.64017 122.837 4.00454C122.881 3.57586 123.202 3.54628 123.446 3.5315C124.176 3.50194 124.907 3.47239 125.637 3.50195C126.179 3.53152 126.633 3.5463 126.401 4.6993C126.257 5.45318 127.242 4.58103 127.419 5.58621C127.131 6.94616 126.157 6.13315 125.327 6.07402C126.308 7.55223 127.426 7.80353 128.681 6.82792C129.212 6.82792 129.422 7.46353 129.799 7.75917C130.053 9.76953 129.887 10.1834 128.526 10.3756C127.674 10.4939 126.799 10.4052 125.925 10.4495C125.305 10.4791 124.641 10.2721 124.099 11.0999C125.294 10.4495 126.412 11.2477 127.552 11.1591C129.09 11.026 130.795 11.0408 130.894 8.11395C130.894 7.81831 131.293 7.64093 131.093 7.12356C130.739 7.52267 130.352 7.86265 129.854 7.71483C129.854 7.46353 129.821 7.21225 129.876 6.99052C130.108 6.11838 130.086 5.61578 129.256 6.19228C129.046 6.3401 128.858 6.56184 128.659 6.754C127.917 6.0149 128.349 5.24624 128.659 4.49235C128.249 4.1228 127.906 4.83234 127.519 4.56627C127.408 4.49235 127.264 4.38887 127.22 4.25583C127.142 4.00454 127.22 3.72369 127.408 3.62021C127.84 3.41327 128.36 2.96979 128.725 3.11761C130.562 3.84193 132.488 2.3046 134.281 3.60542C134.569 3.81237 134.757 3.41325 134.989 3.32455C136.085 2.85153 136.096 2.85154 137.269 4.1228C137.557 4.43322 137.723 4.22628 137.944 4.03411C139.073 2.9698 140.59 2.60025 142.582 2.9698C141.918 3.93063 141.342 4.90625 140.634 5.67492C140.313 6.02969 140.136 6.14793 140.468 6.56183C140.645 6.76878 140.778 7.06441 141.121 6.90181C142.316 6.38444 142.327 6.39924 142.56 7.81831C142.847 7.5818 143.124 7.36006 143.401 7.13833C143.456 7.09398 143.5 7.03486 143.556 7.0053C143.578 7.0053 143.655 7.09399 143.644 7.12356C143.622 7.19747 143.578 7.25659 143.545 7.3305C143.777 8.39481 144.098 7.70005 144.286 7.3305C144.552 6.81313 144.264 6.28097 144.054 5.89664C143.578 5.0245 143.345 4.04888 143.091 3.14718C143.478 2.17156 144.098 2.77762 144.563 2.6298C144.939 2.51154 145.116 2.99936 144.806 3.47238C144.64 3.72368 144.021 3.63498 144.386 4.30018C144.618 4.71407 145.006 5.1871 145.393 4.74364C145.98 4.04889 146.754 4.1228 147.407 3.7089C147.208 3.7089 147.009 3.7089 146.81 3.66456C146.489 3.59065 146.079 3.57586 146.124 2.98457C146.168 2.39329 146.599 2.48198 146.898 2.45242C149.068 2.21591 151.226 1.72811 153.406 2.34896C154.867 1.47681 156.306 1.99417 158.088 2.08287C157.346 3.36891 156.417 2.58546 155.952 3.39847C156.328 4.68451 156.361 4.72885 157.014 3.9454C157.612 3.23586 158.121 3.75324 158.663 4.00454C158.995 3.72368 159.316 3.45759 159.659 3.16195C159.416 2.33416 158.951 3.26544 158.674 2.92546C158.542 2.76285 158.387 2.57069 158.331 2.34896C158.265 2.08288 158.387 1.78723 158.619 1.78723C159.881 1.74288 161.142 0.944658 162.437 1.6542C162.183 3.08806 161.231 2.27503 160.799 2.83674C160.943 3.60541 162.017 2.86632 161.884 3.9602C161.773 4.8619 161.264 5.24623 160.578 5.24623C160.246 5.24623 159.914 5.24623 159.582 5.24623C159.493 5.29057 159.405 5.33491 159.327 5.37926C159.361 5.261 159.394 5.15754 159.427 5.03928C159.372 4.56625 159.25 4.18193 158.796 4.24106C158.818 5.23146 158.796 6.1775 157.8 6.39923C157.368 6.48792 156.948 6.6801 156.516 6.82792C156.671 7.43398 156.549 8.04003 156.361 8.66088C157.07 8.63132 157.202 7.92179 157.534 7.56702C158.409 6.63575 159.294 5.3497 160.556 6.76878C160.954 7.21224 161.142 6.72444 161.364 6.47314C161.873 5.94099 162.216 5.1132 162.969 5.02451C163.146 4.41844 162.393 3.60541 163.079 3.2063C163.743 2.80718 164.507 2.76285 164.85 3.98977C165.193 3.17675 165.802 3.56107 166.256 3.3689C167.684 2.74805 169.067 2.7185 170.517 2.94023C171.181 3.0437 171.845 3.04371 172.487 2.71851C173.129 2.40808 173.804 2.27504 174.435 2.60025C175.11 2.95502 175.708 2.7924 176.361 2.54111C178.596 1.69853 180.113 3.29499 181.54 5.21666C181.585 5.27578 181.673 5.37927 181.651 5.40883C180.467 8.17308 182.891 8.32089 183.51 9.76953C183.743 9.42955 184.053 9.35565 184.374 9.34086C184.374 9.51825 184.374 9.68084 184.374 9.85822C184.65 9.84344 184.96 10.5382 185.171 9.90259C185.248 9.68086 184.828 9.45912 184.562 9.38521C184.495 9.37043 184.429 9.35565 184.363 9.34086C184.407 8.21743 183.876 7.907 183.145 7.7444C182.747 7.65571 182.382 7.28615 182.459 6.68009C182.548 6.02968 183.035 6.13316 183.422 6.08882C183.422 5.8523 183.422 5.60099 183.466 5.37926C183.466 5.3497 183.743 5.32013 183.776 5.37926C183.964 5.71925 183.776 5.98534 183.632 6.25142C184.994 7.33051 184.872 5.17231 185.525 4.6845C186.045 5.66012 186.377 6.5914 185.934 7.70005C185.691 7.907 185.303 7.70005 185.171 8.15829C185.148 8.23221 185.303 8.45394 185.392 8.4835C185.824 8.61654 185.857 8.11395 186.001 7.78874C186.466 7.34528 186.72 6.51749 187.417 6.50271C187.772 7.02008 187.44 7.49311 187.428 7.98092C187.428 8.94175 187.926 9.04523 188.535 8.83828C189 8.67568 189.531 8.60176 188.978 7.70005C188.668 7.19746 188.9 6.754 189.221 6.35488C190.24 5.03928 190.229 5.03927 189.398 3.48716C189.332 3.35412 189.343 3.16196 189.31 2.98457C189.62 2.42286 190.24 3.295 190.505 2.52633C190.35 1.75767 189.399 2.33417 189.354 1.4029C190.535 0.496272 191.856 0.535671 193.317 1.52114C192.265 1.802 191.424 2.2159 191.335 3.57585C191.313 3.91583 191.28 4.40366 191.413 4.56627C191.844 5.05407 192.675 3.96019 193.04 5.49752C193.283 6.54705 194.423 6.14794 195.165 5.76361C195.84 5.40884 196.305 4.90624 196.604 3.84194C197.113 1.94983 198.961 1.87593 200.024 3.5463C200.145 3.5463 200.267 3.5463 200.389 3.5463C200.544 2.99936 200.986 2.60025 200.876 1.90549C200.743 1.10726 201.186 0.841172 201.628 0.649005C201.783 0.575095 202.027 0.619446 202.171 0.72292C202.447 0.929869 202.47 1.35854 202.326 1.6394C201.861 2.55589 201.451 3.6202 200.411 3.60542C200.267 3.85671 200.123 3.85671 199.99 3.60542C199.426 3.85671 198.408 2.91067 198.374 4.61061C198.065 4.74365 197.644 4.77319 197.478 5.05405C196.283 7.10876 194.656 7.95134 192.774 7.64091C191.767 7.47831 191.424 7.96612 191.302 9.03043C191.236 9.57737 190.937 10.1686 191.313 10.7599C191.933 10.9225 192.785 10.213 193.162 11.4843C193.25 11.6764 193.339 11.8686 193.438 12.046C193.505 11.9425 193.582 11.839 193.649 11.7503C193.494 11.6469 193.35 11.5434 193.195 11.4399C193.361 8.60176 193.361 8.55741 195.497 8.52785C195.917 8.52785 196.272 7.70006 196.736 8.39481C196.548 9.13392 196.382 9.8878 195.596 9.82868L195.475 9.73999L195.563 9.87302C196.294 11.6616 196.891 9.13391 197.733 9.71042C198.02 9.90258 197.821 8.77914 197.721 8.27655C197.456 6.90182 197.234 5.55664 198.408 4.64016C198.784 4.61059 199.149 4.37409 199.415 5.03928C199.891 6.26619 200.654 6.62095 201.496 5.95576C201.728 5.77838 201.252 5.49752 201.141 5.21666C201.097 5.11318 201.064 4.99492 201.02 4.89145C201.108 4.9358 201.186 4.99493 201.274 5.03928C202.005 4.92102 202.857 4.10801 203.233 6.10359C203.51 5.08363 203.621 4.41843 203.853 3.85671C204.285 2.85153 205.347 2.67415 206.056 3.42804C206.233 3.60542 206.244 4.06366 206.133 4.06366C204.65 3.98975 205.701 5.98533 204.65 6.39923C205.712 6.78356 206.177 6.16271 206.598 5.49752C206.841 5.11319 206.974 4.49235 207.483 4.77321C208.003 5.05407 208.059 5.61577 207.937 6.28097C207.882 6.59139 208.026 7.02008 207.926 7.25659C207.738 7.67049 207.483 7.31572 207.262 7.1679C207.14 7.07921 207.317 6.66531 207.007 6.79835C207.074 6.93139 207.151 7.07921 207.218 7.21224L207.162 7.24181ZM34.8923 6.5914L34.7817 6.72443L34.682 6.85747L34.8038 6.754L34.8923 6.5914ZM38.9763 8.88262C38.9763 8.88262 38.755 8.83828 38.6996 8.88262C38.5668 9.03044 38.434 9.2226 38.3787 9.42955C38.3344 9.59216 38.4672 9.66607 38.6222 9.59216C38.7993 9.38521 39.0317 9.23739 38.9874 8.85305L38.9763 8.88262ZM39.8728 8.46873C39.8064 8.247 39.7511 8.26177 39.7179 8.52785C39.7179 8.60176 39.74 8.67566 39.7511 8.74957C39.7843 8.73479 39.8507 8.73479 39.8618 8.70522C39.8728 8.63131 39.8839 8.54264 39.8618 8.46873H39.8728ZM42.8833 9.6365L42.7726 9.54781L42.7505 9.68085L42.8833 9.6365ZM44.5656 9.03043C44.632 8.85305 44.5213 8.74957 44.3553 8.77914C44.1229 8.91218 43.813 8.95654 43.8572 9.41478C43.8572 9.48869 44.1118 9.60694 44.1782 9.54781C44.3331 9.41477 44.4881 9.23739 44.5766 9.01566L44.5656 9.03043ZM46.104 6.57663L46.0044 6.70966C45.8826 6.65053 45.772 6.56182 45.6502 6.53226C45.4731 6.5027 45.296 6.53227 45.119 6.54706C45.13 6.68009 45.119 6.9314 45.1632 6.94618C45.3403 6.99052 45.5285 7.02009 45.6945 6.99052C45.8052 6.96096 45.9048 6.81313 46.0044 6.72443L46.104 6.57663ZM49.3136 6.05925L49.203 6.14793L49.1366 6.31054L49.2362 6.19228L49.3136 6.05925ZM51.3058 5.4236L51.1952 5.34971V5.46797L51.3058 5.4236ZM52.0142 8.85305C51.9035 8.60176 51.7264 8.46872 51.5161 8.55742C51.328 8.63133 51.1177 8.82348 51.2616 9.07478C51.339 9.20781 51.6268 9.17826 51.815 9.17826C51.981 9.17826 52.0474 9.04522 52.0031 8.85305H52.0142ZM58.9205 8.61654C58.7434 8.4835 58.5442 8.5722 58.4335 8.79393C58.2896 9.07479 58.4446 9.23738 58.6106 9.35564C58.7766 9.4739 58.9537 9.56259 59.0865 9.26695C59.1308 9.01565 59.1086 8.76437 58.9205 8.63133V8.61654ZM59.7727 10.4791C59.7395 10.6417 59.7063 10.8043 59.6842 10.9521C59.662 11.1147 59.6399 11.2773 59.6177 11.4399L59.5181 11.5729L59.6399 11.4843C59.7063 11.3512 59.7948 11.2182 59.8391 11.0704C59.8834 10.8782 60.0051 10.6269 59.7616 10.4791H59.7727ZM61.4993 7.86266L61.4661 7.70005L61.3997 7.83309L61.4993 7.86266ZM64.554 10.0652C64.4765 9.78431 64.2551 9.48869 64.1334 9.62173C63.912 9.87302 63.735 10.2573 63.6575 10.6269C63.6021 10.893 63.901 11.026 64.067 10.9964C64.4765 10.9225 64.4876 10.4495 64.554 10.0652ZM64.6093 6.81312H62.1633C63.0709 7.90699 63.8456 7.03485 64.6093 6.81312ZM65.871 9.72519C65.8157 9.59215 65.7714 9.41477 65.6829 9.31129C65.5611 9.17826 65.4283 9.26695 65.4394 9.4739C65.4394 9.62172 65.539 9.78433 65.6165 9.87302C65.7382 10.0061 65.8378 9.93214 65.86 9.72519H65.871ZM68.97 11.0851L68.8925 10.9078C68.638 10.7156 68.3834 10.5234 68.1178 10.3313C67.9518 9.94693 68.7597 9.8139 68.2617 9.37043C68.1731 9.28174 67.9518 9.23739 67.9075 9.29652C67.6972 9.59216 67.7747 9.91736 67.9407 10.213C67.985 10.2869 68.0293 10.346 68.0625 10.4052C68.2617 10.7452 68.5384 10.8634 68.8483 10.9373L68.9479 11.0704L68.97 11.0851ZM71.2611 10.6417C71.2611 10.6417 71.1504 10.5825 71.095 10.553C71.0397 10.5678 70.9401 10.5678 70.929 10.6121C70.8848 10.7599 70.9733 10.8191 71.1393 10.7599C71.1836 10.7451 71.2168 10.686 71.2611 10.6417ZM72.9544 9.25218L72.8327 9.34086C72.6888 9.50347 72.556 9.65128 72.4121 9.81388C72.3236 9.90257 72.2239 9.90257 72.1354 9.81388C72.0911 9.65128 72.0579 9.48868 72.0137 9.34086C71.9362 9.04522 71.9251 8.54263 71.582 8.73479C71.3053 8.88262 71.3717 9.34086 71.582 9.59216C71.7148 9.75476 71.9251 9.7991 72.1022 9.88779C72.2129 10.1391 72.3346 10.08 72.4564 9.90259C72.6003 9.73999 72.7331 9.56258 72.877 9.39998L72.9655 9.26695L72.9544 9.25218ZM73.4303 7.40442C73.4857 7.24182 73.3861 7.13833 73.2311 7.21224C73.1204 7.27137 73.0208 7.36007 72.9101 7.44876C72.9987 7.50789 73.0872 7.62615 73.1536 7.61137C73.2533 7.5818 73.3971 7.50788 73.4414 7.38962L73.4303 7.40442ZM73.7181 12.1938L73.5964 12.2381L73.7181 12.312V12.1938ZM74.5592 9.65127L74.4486 9.56259L74.4264 9.68085L74.5592 9.65127ZM76.474 7.0053C75.987 6.754 75.5664 6.73921 75.2676 7.43397C75.7878 7.83308 76.1419 7.4931 76.474 7.0053ZM79.6504 9.65127C79.2299 9.2226 78.8867 9.99127 78.5104 9.75476C76.9499 8.77914 77.4701 10.1243 77.6472 11.1738C78.2005 10.346 79.086 10.3904 79.6504 9.65127ZM80.3366 6.81312C80.1263 6.96094 79.9271 7.09399 79.7168 7.24181C79.6283 6.70966 79.6504 6.11837 79.3073 5.68969L79.1966 5.55666L79.3073 5.70447C79.5951 6.16271 78.3444 7.28616 79.7058 7.28616C79.9161 7.52267 80.1374 7.71484 80.3366 7.28616C80.392 7.1679 80.3366 6.97572 80.3366 6.81312ZM81.0007 10.2573C80.9896 10.1391 80.9343 10.0208 80.9011 9.90259C80.8347 9.72521 80.7683 9.56259 80.7129 9.38521C80.7572 9.57738 80.8125 9.76954 80.8568 9.96171C80.9232 10.1095 80.9343 10.2426 80.879 10.4052L80.8015 10.553L80.9121 10.4495C80.9121 10.4495 81.0007 10.3165 81.0007 10.2721V10.2573ZM81.3327 5.36449L81.211 5.4236L81.3327 5.48275V5.36449ZM82.4284 10.6565C82.4063 10.3904 82.3288 10.346 82.2514 10.5382C82.2181 10.5973 82.2292 10.7008 82.2514 10.7895C82.2514 10.8338 82.3288 10.8634 82.362 10.893C82.3842 10.8191 82.4395 10.7452 82.4284 10.6712V10.6565ZM83.1146 7.31573C83.1146 7.31573 83.0593 7.15313 83.0372 7.15313C82.9818 7.15313 82.9376 7.22702 82.8822 7.25659C82.8822 7.3305 82.849 7.43398 82.8601 7.44876C82.9818 7.56702 83.0814 7.50788 83.1146 7.30093V7.31573ZM85.14 9.28172C84.0775 9.53795 83.5205 10.346 83.4688 11.706C84.2768 10.9373 84.7969 10.3165 85.14 9.28172ZM85.8041 12.3564L85.6934 12.4599L85.616 12.5929L85.7156 12.4895L85.8041 12.3416V12.3564ZM86.5678 5.97056C86.5678 5.80795 86.3907 5.51232 86.2579 5.46797C85.948 5.3645 85.8262 5.66013 85.8484 6.0149C85.8594 6.2662 85.9923 6.44357 86.28 6.44357C86.3686 6.31053 86.5678 6.14794 86.5678 5.97056ZM89.2683 10.0061C89.1466 9.93214 89.0248 9.90257 88.892 9.85822C88.5821 9.47389 88.239 9.35564 87.741 9.60693C88.1616 9.72519 88.5047 9.82866 88.8478 9.93214C88.9142 10.08 88.9584 10.2426 89.0359 10.3756C89.1908 10.6712 89.4897 10.9225 89.6557 10.6121C89.8438 10.2426 89.4786 10.1243 89.2573 10.0061H89.2683ZM91.5815 10.1243C91.5151 9.69563 91.3269 9.76954 91.1388 9.88779C91.0281 9.9617 90.8621 10.1095 90.8732 10.213C90.8732 10.5086 91.0613 10.6713 91.2716 10.6417C91.504 10.6121 91.5704 10.3608 91.5815 10.1391V10.1243ZM92.6219 11.2773L92.5223 11.4103L92.4226 11.5434L92.5555 11.4399L92.6219 11.2773ZM93.7065 7.37485C93.5848 7.3305 93.4519 7.28615 93.3302 7.22702C93.2527 7.09398 93.1753 6.94618 93.0756 6.82792C92.8543 6.54706 92.6219 6.45837 92.4116 6.82792C92.3452 6.93139 92.3784 7.12356 92.3562 7.28616C92.5444 7.28616 92.7325 7.28616 92.9207 7.28616C93.0535 7.28616 93.1863 7.2566 93.3191 7.24181C93.4409 7.30094 93.4851 7.71483 93.6954 7.37485H93.7065ZM94.3484 9.42955C94.2488 8.98609 93.9611 9.07479 93.7176 9.20783C93.1642 9.53304 93.463 9.69563 93.795 9.88779C94.4038 10.2426 93.7618 10.9521 94.0939 11.5286C94.5698 10.7452 94.5034 10.08 94.3595 9.44433L94.3484 9.42955ZM96.3074 12.0016C96.3074 12.0016 96.0861 11.8538 96.0086 11.8982C95.7762 12.0016 95.5216 12.1347 95.6102 12.5486C95.6212 12.6373 95.8094 12.652 95.9201 12.7112C96.1414 12.5486 96.3628 12.386 96.3185 12.0016H96.3074ZM101.731 11.3808C101.576 10.686 101.067 11.1591 100.779 10.9078C100.723 10.8634 100.657 10.8486 100.602 10.8191C100.148 9.20783 100.137 9.19303 99.1961 9.93214C98.7313 10.3017 98.2996 10.7452 97.6356 11.3512C98.7866 11.2773 99.7052 11.4547 100.557 10.8634C100.812 11.3512 101.033 11.9129 101.609 11.5729C101.664 11.5434 101.731 11.4251 101.72 11.3808H101.731ZM103.944 7.64091C103.933 7.87743 104.011 7.92178 104.143 7.7444C104.177 7.70005 104.188 7.61135 104.21 7.55223C104.154 7.52266 104.11 7.50789 104.066 7.49311C104.022 7.55224 103.944 7.59657 103.944 7.64091ZM103.125 9.94693C103.125 9.84346 102.992 9.73997 102.926 9.65127C102.848 9.75475 102.716 9.85823 102.705 9.96171C102.682 10.1834 102.671 10.5086 102.97 10.3313C103.059 10.2869 103.136 10.08 103.125 9.94693ZM103.712 5.45318L103.834 5.40883L103.723 5.33492V5.45318H103.712ZM105.449 9.71042L105.339 9.81388C105.151 9.85822 104.962 9.91736 104.774 9.93214C104.309 9.97648 103.867 10.0652 103.723 10.7747C103.701 10.893 103.778 11.1443 103.856 11.1738C104.409 11.4103 104.863 11.2182 105.173 10.553C105.272 10.346 105.317 10.0947 105.383 9.85822L105.46 9.71042H105.449ZM106.191 11.3364C106.191 11.3364 106.18 11.2034 106.169 11.1443C106.113 11.1443 106.036 11.1443 106.003 11.1886C105.881 11.3512 105.903 11.4695 106.058 11.4843C106.102 11.4843 106.169 11.3956 106.191 11.3364ZM106.589 12.9181C106.589 12.9181 106.578 12.7851 106.567 12.7259C106.512 12.7259 106.434 12.7259 106.412 12.7703C106.291 12.9329 106.313 13.0512 106.468 13.0659C106.512 13.0659 106.578 12.992 106.6 12.9181H106.589ZM108.05 9.88779C107.94 10.1391 107.862 10.2278 107.851 10.3313C107.84 10.5826 107.829 10.8486 107.862 11.0999C107.895 11.3512 108.006 11.3364 108.039 11.0556C108.072 10.7304 108.039 10.3756 108.039 9.87302L108.05 9.88779ZM109.39 8.4835L109.268 8.54262L109.39 8.60176V8.4835ZM111.061 10.7599L110.939 10.8486L110.873 11.0112L110.972 10.893L111.05 10.7599H111.061ZM112.079 6.93138C111.979 7.03486 111.88 7.12354 111.78 7.22702C111.625 7.0792 111.437 6.97573 111.315 6.79835C111.116 6.53227 110.862 6.28098 110.673 6.62097C110.319 7.24182 110.895 7.22703 111.094 7.41919C111.326 7.64092 111.592 7.46354 111.824 7.30093C111.858 7.12355 112.201 7.30095 112.079 6.94618V6.93138ZM118.886 4.83233L118.996 4.92102L119.019 4.78799L118.886 4.83233ZM119.173 10.553C119.14 10.4199 118.731 10.6713 118.543 10.893L118.465 11.026L118.576 10.9373C118.631 10.9078 118.709 10.9078 118.753 10.8486C118.886 10.686 119.273 10.9817 119.173 10.553ZM121.055 7.21224C120.125 5.54187 119.007 7.06443 117.812 6.29576C118.897 8.30612 119.904 8.08439 121.055 7.21224ZM121.498 8.18787C121.398 8.27656 121.276 8.33569 121.221 8.46873C121.177 8.55742 121.232 8.73479 121.243 8.86783C121.343 8.77913 121.465 8.72 121.52 8.58696C121.564 8.49827 121.509 8.3209 121.498 8.18787ZM126.688 13.3764L126.567 13.4798L126.489 13.6424L126.589 13.5094L126.677 13.3764H126.688ZM139.007 4.61061C139.007 4.61061 139.129 4.69929 139.162 4.66973C139.195 4.64016 139.206 4.53669 139.228 4.46278C139.184 4.40365 139.151 4.31495 139.107 4.31495C138.918 4.30017 138.885 4.41843 139.018 4.59581L139.007 4.61061ZM139.184 7.65571L139.217 7.83309L139.284 7.68528L139.184 7.65571ZM137.601 5.2758C137.856 6.13316 137.491 6.73921 137.834 7.30093C138.398 7.3305 138.686 6.75399 139.151 6.32531C138.675 6.00011 138.254 5.71926 137.601 5.2758ZM131.957 8.30612L132.045 8.33567L132.023 8.17307L131.957 8.30612ZM131.658 4.24106C131.392 4.19671 131.171 4.32974 130.994 4.58104C130.872 4.58104 130.739 4.58104 130.618 4.58104C130.529 4.49235 130.452 4.38887 130.363 4.30018C130.33 4.27061 130.274 4.31496 130.219 4.32975C130.341 4.41844 130.474 4.52192 130.595 4.61061C130.728 4.80278 130.872 4.78799 131.016 4.61061C131.193 4.38888 131.569 4.72885 131.658 4.22626V4.24106ZM132.853 10.3313C132.875 9.90258 132.776 9.60694 132.588 9.6365C132.045 9.71041 131.547 9.94693 131.514 10.8191C131.514 11.0556 131.603 11.2921 131.647 11.5286C131.746 10.6121 132.577 10.8338 132.842 10.3313H132.853ZM134.303 10.7304L134.204 10.8634C134.015 11.0556 133.539 10.8634 133.694 11.499C133.871 11.2921 134.049 11.0999 134.226 10.893L134.292 10.7304H134.303ZM135.034 4.62538C135.089 4.46278 135.399 4.65495 135.31 4.30018C135.211 4.40365 135.111 4.49234 135.011 4.59581C134.624 4.53668 134.226 4.53668 133.838 4.43321C132.842 4.16713 132.776 5.48273 132.245 6.0001C132.101 6.14792 132.034 6.45836 132.2 6.68009C132.72 7.38963 133.329 6.82791 133.86 6.72443C134.713 6.57661 134.956 5.63056 135.034 4.62538ZM135.609 12.046C135.609 12.046 135.576 11.8981 135.554 11.8242C135.498 11.8538 135.432 11.8686 135.388 11.9277C135.266 12.1051 135.31 12.2086 135.487 12.2086C135.532 12.2086 135.565 12.1051 135.609 12.046ZM136.395 6.94618C136.495 6.85749 136.661 6.65053 136.638 6.5914C136.495 6.22185 136.34 6.48793 136.207 6.62097C136.063 6.78357 135.941 6.99051 135.808 7.18267C135.399 7.4044 134.702 7.15311 134.768 8.24698C135.343 8.24698 135.498 7.55222 135.864 7.27136C136.041 7.16789 136.229 7.07922 136.395 6.94618ZM140.49 10.6269C140.457 10.1243 140.136 9.97648 139.826 9.81388C139.793 9.65128 139.793 9.4739 139.826 9.29652C139.959 9.11913 140.125 8.97131 140.224 8.76437C140.302 8.58698 140.169 8.45394 140.058 8.60176C139.926 8.76436 139.881 9.03044 139.793 9.25218C138.697 9.57738 137.59 9.90257 136.495 10.2278C137.679 10.6565 138.797 10.7008 139.815 9.82868C139.848 10.1687 139.859 10.5086 139.926 10.8191C139.992 11.1147 140.092 11.5138 140.413 11.2921C140.501 11.233 140.512 10.8338 140.49 10.5973V10.6269ZM141.885 10.3165C141.862 10.1687 141.774 10.0356 141.719 9.88779C141.586 9.81388 141.508 9.88781 141.53 10.1095C141.553 10.2574 141.597 10.4495 141.685 10.5234C141.807 10.6269 141.918 10.5234 141.885 10.3165ZM145.282 11.8686C144.718 12.0312 144.397 12.4303 144.176 13.0659C144.674 12.9625 145.316 12.992 145.282 11.8686ZM145.537 9.88779C145.382 9.07478 144.995 9.2374 144.596 9.37043C144.231 9.50347 143.678 9.54782 143.81 10.1982C143.954 10.9373 144.563 10.7599 144.995 10.686C145.349 10.6417 145.581 10.346 145.537 9.87302V9.88779ZM147.064 5.54186C146.987 5.45317 146.898 5.29057 146.821 5.29057C146.71 5.29057 146.522 5.37927 146.489 5.48275C146.4 5.82273 146.577 5.9262 146.799 5.86707C146.898 5.83751 146.976 5.66012 147.064 5.54186ZM147.817 3.51673L147.695 3.32455L147.54 3.42804C147.629 3.47239 147.717 3.51673 147.806 3.51673H147.817ZM148.293 10.0061L148.16 10.0356L148.271 10.1243L148.293 10.0061ZM148.846 3.67933C148.514 3.63499 148.182 3.57585 147.85 3.5315C148.149 3.91584 148.481 4.07845 148.846 3.67933ZM149.588 7.93657C149.555 7.59659 149.477 7.22704 149.211 7.15313C149.112 7.12356 148.879 7.4192 148.835 7.61137C148.747 7.98092 148.935 8.27655 149.2 8.36524C149.411 8.43915 149.543 8.20265 149.599 7.93657H149.588ZM152.355 9.76953C152.045 8.88261 151.779 9.68085 151.491 9.7991C151.038 9.99127 150.484 10.3313 150.661 10.9373C150.861 11.6025 151.403 11.2921 151.79 10.9078C151.757 10.8486 151.68 10.7895 151.68 10.7452C151.702 10.5826 151.779 10.5973 151.879 10.7895C152.344 10.686 152.576 10.4052 152.355 9.75476V9.76953ZM151.691 7.25659L151.657 7.07921L151.591 7.22702L151.691 7.25659ZM153.196 7.03487C153.085 6.96096 152.986 6.85748 152.875 6.82792C152.709 6.79835 152.62 6.93139 152.698 7.07921C152.764 7.19747 152.897 7.28617 153.019 7.31573C153.174 7.36008 153.24 7.22703 153.207 7.03487H153.196ZM152.886 5.67492L152.842 5.51232L152.797 5.66012H152.886V5.67492ZM154.181 3.16195C153.959 3.02891 153.738 2.89589 153.517 2.76285C152.908 3.28022 152.233 3.07328 151.58 3.1324C150.938 3.19153 150.23 2.92546 149.698 3.66456C150.008 4.31497 151.17 3.60542 150.982 5.03928C150.462 5.42361 149.942 4.81755 149.156 4.92102C149.953 5.71925 150.462 6.96095 151.027 5.11319C151.901 4.00454 152.786 2.96978 154.181 3.16195ZM155.055 5.12797C154.922 4.9358 154.812 4.74364 154.668 4.58104C154.491 4.38887 154.303 4.46278 154.17 4.66973C154.103 4.7732 154.092 4.9506 154.059 5.09842C154.236 5.09842 154.424 5.09842 154.601 5.09842C154.723 5.09842 154.845 5.15754 154.978 5.18711C155.144 5.67492 155.099 6.1775 155.022 6.68009L154.933 6.81312L155.055 6.72443C156.073 6.19228 155.564 5.66012 155.055 5.12797ZM156.848 10.3608C156.726 10.6121 156.627 10.8043 156.538 11.0112C156.284 11.6173 156.339 11.9425 156.627 11.7208C157.025 11.4104 157.036 10.9373 156.859 10.3608H156.848ZM161.165 9.44433L161.098 9.28172C161.021 9.11912 160.943 8.97131 160.866 8.80871C160.932 8.98609 160.999 9.14868 161.065 9.32607L161.165 9.44433ZM164.053 4.90625C164.396 4.95059 164.551 4.74364 164.529 4.30018C164.374 4.50713 164.219 4.71408 164.053 4.90625ZM163.124 6.44357C163.777 6.75399 163.411 5.80795 163.622 5.52709C163.655 5.48274 163.655 5.37926 163.666 5.29057C163.5 5.29057 163.334 5.29057 163.168 5.29057C163.013 5.67491 162.548 6.16272 163.124 6.4288V6.44357ZM161.917 8.29133C162.028 8.38002 162.128 8.24698 162.139 8.04004C162.094 7.907 162.05 7.77395 162.006 7.64091C161.917 7.72961 161.773 7.8183 161.751 7.92178C161.74 8.02525 161.829 8.21743 161.917 8.27655V8.29133ZM169.399 4.22626C168.082 3.57585 167.019 4.59582 165.868 5.08362C165.78 4.99493 165.702 4.84712 165.614 4.81756C165.47 4.77321 165.426 4.89147 165.536 4.98016C165.625 5.05407 165.747 5.05406 165.857 5.08362C165.725 8.35046 163.777 9.4739 161.917 10.7008C162.471 11.3808 162.902 10.7008 163.367 10.5382C164.208 10.2721 164.64 10.6565 164.607 11.8242C164.341 11.9868 163.92 11.7799 163.81 12.2529C163.732 12.6077 164.042 12.7703 164.253 12.9329C164.385 12.5781 164.518 12.2381 164.64 11.8834C165.415 10.9521 165.393 9.16348 166.654 8.76437L166.765 8.88262L166.687 8.72002C165.769 7.43398 165.813 6.22185 166.909 5.52709C167.706 5.0245 168.491 4.46278 169.388 4.21149L169.399 4.22626ZM171.126 7.44876C170.484 7.15312 170.074 7.41919 169.687 7.7444C169.521 7.87744 169.067 8.01047 169.488 8.36524C170.34 9.07478 169.322 9.68085 169.488 10.3313C169.941 10.4939 170.915 10.5973 170.616 10.1095C169.764 8.74959 170.982 8.27655 171.137 7.46354L171.126 7.44876ZM173.538 10.4347C173.538 10.4347 173.472 10.2869 173.428 10.2573C173.383 10.2278 173.328 10.2869 173.273 10.3017C173.273 10.3756 173.273 10.4791 173.306 10.5234C173.439 10.686 173.538 10.6565 173.538 10.4347ZM175.276 4.46278C173.893 3.51673 172.531 5.14275 171.424 3.81237C171.391 4.44799 171.225 5.03929 171.458 5.601C171.325 5.76361 171.181 5.9262 171.048 6.07402C170.495 6.07402 169.875 5.20189 169.333 6.29576C169.986 6.63575 170.55 6.68008 171.081 6.11836C171.214 5.95576 171.347 5.79316 171.48 5.63055C171.756 5.4236 172.1 4.90625 172.343 5.23145C173.616 6.82792 174.236 5.20188 175.265 4.46278H175.276ZM178.452 3.41324C178.043 3.63497 177.977 4.108 177.855 4.5219C177.788 4.6845 177.467 4.46279 177.578 4.8619C177.689 4.77321 177.788 4.66973 177.899 4.58104C178.12 4.25583 178.574 4.12278 178.464 3.41324H178.452ZM179.648 5.15754C179.592 5.0245 179.559 4.83233 179.471 4.78799C179.316 4.69929 179.094 4.65495 179.083 4.99494C179.083 5.09841 179.238 5.21667 179.316 5.32014C179.426 5.26101 179.537 5.21667 179.637 5.15754H179.648ZM181.596 10.9669L181.529 10.8338C181.352 10.6417 181.529 9.94693 181.02 10.1982C181.175 10.42 181.33 10.6565 181.485 10.8782L181.596 10.9669ZM184.285 9.7991C184.053 9.84345 183.809 9.88779 183.577 9.93214C183.411 10.2278 183.256 10.5382 183.09 10.8338C182.99 10.9817 182.902 11.1147 182.802 11.2625C182.891 11.3069 182.99 11.3364 183.09 11.366C183.101 11.5138 183.123 11.6616 183.145 11.8095C184.352 11.9425 184.186 10.7452 184.285 9.7991ZM186.488 11.5286C186.532 11.3069 186.466 11.2182 186.322 11.3364C186.277 11.366 186.233 11.4547 186.222 11.5286C186.222 11.5582 186.3 11.6025 186.344 11.6469C186.399 11.6025 186.477 11.5729 186.488 11.5286ZM186.753 9.99128L186.62 10.0356L186.742 10.1391L186.764 9.99128H186.753ZM188.347 9.96171L188.214 10.0061L188.336 10.0947V9.96171H188.347ZM191.025 6.25142L191.136 6.16271C191.313 5.92619 191.701 6.28098 191.778 5.76361C191.557 5.88187 191.324 6.00011 191.103 6.11836L191.037 6.25142H191.025ZM202.791 7.37485L202.658 7.43397L202.779 7.50788V7.37485H202.791ZM204.882 8.06961L204.761 8.15829C204.65 8.33568 204.539 8.51307 204.417 8.67568C204.506 8.67568 204.595 8.64611 204.672 8.60176C204.705 8.46872 204.75 8.33568 204.794 8.20264L204.882 8.06961Z" fill="black"/>
<path d="M210.206 3.56108C209.531 3.94541 209.243 4.75843 209.276 5.57144C209.31 6.31054 209.896 6.31053 210.383 6.16271L210.494 6.07403L210.427 6.20708C209.564 6.72445 208.701 7.24181 209.332 8.77915C210.992 7.25659 212.021 4.81756 214.113 3.59065C212.364 3.0585 211.058 3.07327 210.217 3.56108H210.206Z" fill="#67BBE7"/>
<path d="M166.566 2.26066C167.152 1.68416 167.706 2.09806 168.281 2.09806C169.963 2.09806 171.646 2.11284 173.317 2.09806C173.981 2.09806 174.656 2.09807 175.154 0.767682C174.49 0.634643 173.859 0.235538 173.505 0.501615C172.033 1.59549 170.528 0.767678 169.045 0.85637C168.181 0.915499 167.318 0.856383 166.455 0.915511C166.068 0.930293 165.569 0.959848 165.658 1.71373C165.735 2.3198 166.167 2.63021 166.543 2.26066H166.566Z" fill="#67BBE7"/>
<path d="M182.37 4.65501C183.145 2.71856 184.23 1.87597 185.779 1.99423C186.333 2.03858 187.063 1.72815 187.284 0.47168C186.499 0.589936 185.868 0.70818 185.226 0.78209C184.307 0.870783 183.378 1.81684 182.459 0.737746C182.315 0.575143 181.972 0.84123 182.038 1.04818C182.393 2.11249 181.463 3.25071 182.37 4.65501Z" fill="#67BBE7"/>
<path d="M216.935 5.7936C216.681 6.93182 216.194 6.97618 215.552 6.29621C215.076 6.60663 214.611 6.91704 214.124 6.32576C213.947 6.96138 213.825 7.67094 213.139 7.61181C212.94 7.59703 212.818 7.36051 212.818 7.07966C212.818 6.08926 213.438 6.19272 213.903 6.03012C214.024 5.64579 215.308 3.87193 215.673 3.9015C216.703 3.97541 216.404 2.80764 216.67 2.15723C217.776 4.1528 217.81 4.68496 216.935 5.8084V5.7936ZM216.636 5.46842C216.205 4.93626 216.083 5.01017 215.729 5.971C216.028 5.8084 216.326 5.63102 216.636 5.46842Z" fill="#67BBE7"/>
<path d="M178.109 2.02403C179.105 2.18663 180.09 2.30489 180.921 1.24058C180.411 -0.459359 179.382 1.15188 178.685 0.634508C178.386 0.412777 178.043 0.560593 177.799 0.930145C177.667 1.12231 177.545 1.37361 177.678 1.6249C177.777 1.80229 177.954 2.00924 178.12 2.0388L178.109 2.02403Z" fill="#67BBE7"/>
<path d="M197.057 1.90585C197.268 1.84672 197.389 1.55107 197.312 1.31455C197.246 1.10761 197.057 0.826744 196.902 0.826744C195.951 0.752834 194.988 0.649376 193.748 1.5363C195.043 2.33453 196.05 2.17192 197.057 1.92062V1.90585Z" fill="#67BBE7"/>
<path d="M163.721 2.55652C164.286 2.64521 164.773 2.46781 164.983 1.68436C165.061 1.34437 164.861 1.06353 164.717 1.12265C164.197 1.34439 163.456 0.886139 163.157 1.7435C162.991 2.21652 163.378 2.51217 163.721 2.55652Z" fill="#67BBE7"/>
<path d="M211.611 2.11312C210.778 1.63024 209.9 1.64502 208.977 2.15747C209.785 1.69922 210.615 2.64528 211.611 2.11312Z" fill="#67BBE7"/>
<path d="M193.959 3.53189C193.959 3.99014 194.102 4.41883 194.479 4.40405C194.811 4.38927 195.054 4.06405 195.054 3.56146C195.054 3.05887 194.789 2.85192 194.501 2.7041C194.069 2.73367 193.947 3.07365 193.947 3.53189H193.959Z" fill="#67BBE7"/>
<path d="M207.439 3.02893C207.362 3.42804 207.66 3.60544 207.937 3.54631C208.236 3.48718 208.391 3.16198 208.369 2.80721C208.325 2.20114 208.147 1.63943 207.561 1.60986C207.174 2.02376 207.517 2.5559 207.428 3.02893H207.439Z" fill="#67BBE7"/>
<path d="M208.169 8.58758C207.716 8.63193 207.262 8.7502 207.118 9.4154C207.063 9.69625 207.262 9.87363 207.461 9.84407C207.904 9.79972 208.313 9.59277 208.535 9.06062C208.501 8.73541 208.369 8.54324 208.158 8.57281L208.169 8.58758Z" fill="#67BBE7"/>
<path d="M222.104 4.8181C221.407 4.78854 221.462 5.67545 221.174 6.14848C220.355 5.48329 219.525 5.09896 218.706 6.10414C218.584 6.25196 218.529 6.56238 218.518 6.79889C218.518 6.88759 218.75 7.10932 218.783 7.07976C219.547 6.45891 220.742 8.11451 221.252 6.25197C221.761 6.13371 222.281 6.04501 222.303 5.15808C222.303 5.03983 222.17 4.8181 222.104 4.8181Z" fill="#67BBE7"/>
<path d="M203.798 1.99417C204.074 1.97939 204.318 1.84634 204.351 1.43245C204.384 1.0629 204.307 0.722911 203.953 0.811603C203.687 0.885514 203.51 1.15158 203.466 1.52114C203.421 1.84634 203.598 1.94983 203.809 1.99417H203.798Z" fill="#67BBE7"/>
<path d="M213.327 2.49677C213.537 2.49677 213.67 2.34896 213.659 2.03853C213.604 1.77246 213.471 1.60986 213.272 1.60986C213.05 1.60986 212.917 1.80202 212.94 2.08288C212.962 2.36374 213.128 2.48199 213.327 2.49677Z" fill="#67BBE7"/>
<path d="M211.932 6.60673C211.744 6.72498 211.633 6.94671 211.678 7.22757C211.722 7.52321 211.877 7.65626 212.098 7.538C212.286 7.43453 212.364 7.19802 212.353 6.91716C212.286 6.6363 212.154 6.47369 211.932 6.60673Z" fill="#67BBE7"/>
<path d="M220.156 4.52198C220.366 4.46285 220.51 4.25592 220.488 3.98984C220.466 3.70898 220.278 3.62029 220.079 3.66464C219.868 3.70898 219.713 3.87158 219.747 4.16722C219.78 4.44808 219.946 4.53676 220.156 4.52198Z" fill="#67BBE7"/>
<path d="M199.138 1.87631C199.238 1.8024 199.415 1.75806 199.437 1.65459C199.503 1.40329 199.415 1.16677 199.194 1.13721C199.094 1.13721 198.928 1.24068 198.895 1.34415C198.828 1.59545 198.917 1.8024 199.138 1.87631Z" fill="#67BBE7"/>
<path d="M205.734 2.00881C205.845 1.94968 206.044 1.89057 206.055 1.81666C206.089 1.50624 205.878 1.38796 205.69 1.3584C205.591 1.3584 205.402 1.46189 205.391 1.5358C205.358 1.84622 205.535 1.94968 205.746 2.00881H205.734Z" fill="#67BBE7"/>
<path d="M223.665 4.81803C223.576 4.80325 223.399 4.89194 223.377 4.98063C223.321 5.23193 223.421 5.43886 223.642 5.42408C223.72 5.42408 223.786 5.24671 223.853 5.14324C223.786 5.03976 223.742 4.84759 223.665 4.8328V4.81803Z" fill="#67BBE7"/>
<path d="M219.016 4.34473C218.905 4.2856 218.795 4.24126 218.673 4.18213C218.618 4.31517 218.562 4.44821 218.507 4.58125C218.618 4.64038 218.75 4.75863 218.828 4.71428C218.916 4.66994 218.95 4.463 219.016 4.32996V4.34473Z" fill="#67BBE7"/>
<path d="M176.217 1.44756C176.162 1.2554 176.051 1.18147 175.929 1.31451C175.852 1.4032 175.818 1.56582 175.763 1.69886C175.863 1.7432 175.995 1.87624 176.062 1.83189C176.139 1.77276 176.161 1.5806 176.206 1.44756H176.217Z" fill="#67BBE7"/>
<path d="M187.639 4.90635C187.639 4.90635 187.573 4.78809 187.528 4.78809C187.484 4.78809 187.44 4.84721 187.407 4.87677C187.44 4.92112 187.473 4.96547 187.506 4.99503C187.55 4.96547 187.595 4.93591 187.639 4.90635Z" fill="#67BBE7"/>
<path d="M217.533 6.91656C217.533 6.91656 217.533 7.06438 217.566 7.09394C217.599 7.13829 217.688 7.16785 217.721 7.13828C217.854 7.02003 217.832 6.91655 217.677 6.85742C217.632 6.85742 217.588 6.90177 217.533 6.93134V6.91656Z" fill="#67BBE7"/>
<path d="M183.123 10.9229C183.123 11.1002 183.123 11.2628 183.123 11.4402C183.289 11.3811 183.588 11.3368 183.588 11.2629C183.61 10.8046 183.3 10.982 183.123 10.9229Z" fill="#67BBE7"/>
</svg>
