<svg width="259" height="17" viewBox="0 0 259 17" fill="none" xmlns="http://www.w3.org/2000/svg">
<path d="M257.266 8.17971C256.922 9.24409 255.548 9.62175 256.001 11.3041C256.153 11.8535 255.561 12.523 254.874 12.5574C254.778 12.6089 254.681 12.6432 254.571 12.6947C254.613 12.5745 254.64 12.4544 254.681 12.3342C254.613 11.596 254.819 10.8063 254.406 10.1196C254.283 10.4973 254.31 11.1668 253.801 10.9951C253.43 10.875 253.678 10.3771 253.733 10.0509C252.756 9.55309 252.152 9.94794 251.932 11.184C251.794 11.9222 252.014 12.8492 251.052 13.2269C250.543 12.3342 250.309 11.3213 250.185 10.2398C250.117 9.63893 249.938 9.05524 249.553 8.6604C249.14 8.23121 248.632 8.14536 248.206 8.59171C247.807 9.00373 247.986 9.48441 248.302 9.87926C248.604 10.2569 248.81 10.6518 248.769 11.2011L248.687 11.39L248.81 11.2526C249.608 11.9737 249.952 12.8664 249.058 13.6904C248.261 14.4286 247.697 13.6904 247.284 12.8492C247.119 12.5059 246.982 12.1453 246.831 11.7848L246.679 11.6647L246.789 11.8363C245.882 14.5144 243.778 15.4586 241.358 14.2741C241.73 14.1883 242.073 14.0338 242.321 13.6561C242.555 13.7248 242.775 13.8449 243.008 13.8449C243.132 13.8449 243.366 13.6904 243.38 13.5874C243.421 13.1582 243.132 13.1582 242.912 13.2097C242.692 13.2784 242.486 13.4501 242.28 13.5874C241.963 13.7934 241.647 14.0166 241.331 14.2226C240.63 14.7548 239.942 15.2011 239.062 15.2698C238.279 15.3385 238.072 15.4758 238.265 14.2741C238.375 13.5874 236.477 13.1582 235.886 13.7591C234.786 14.8807 234.039 14.5316 233.645 12.7119C232.861 13.4329 233.769 15.3213 232.27 15.4415C231.019 15.5445 230.483 14.7204 230.167 13.4501C229.259 13.4501 228.915 14.4458 228.256 14.7719C227.211 15.287 227.444 14.2913 227.348 13.6732C227.183 13.4844 227.018 13.2956 226.839 13.1067C226.344 13.6389 226.881 14.8578 225.781 15.0809C224.461 15.3556 223.168 16.1282 221.945 14.8234C222.11 14.6174 222.275 14.4286 222.44 14.2398C222.577 14.1883 222.715 14.1539 222.838 14.0853C222.866 14.0853 222.88 13.9822 222.907 13.9307C222.66 13.7934 222.55 14.0681 222.412 14.2054C222.261 14.4114 222.096 14.6174 221.945 14.8234C220.996 14.7376 221.051 13.4329 220.432 12.9694C221.436 10.9608 223.1 10.2398 224.859 9.6561C224.433 9.51876 224.035 9.46726 223.65 9.51876C221.711 9.8106 221.683 9.79344 221.285 7.32135C221.161 6.54882 220.776 6.3428 220.212 6.68614C219.731 6.97799 219.566 7.56168 219.429 8.14537L219.319 8.29987L219.47 8.17971C219.772 8.05954 220.267 7.40717 220.254 8.40287C220.254 9.05523 220.226 12.0767 220.418 12.6089C220.446 12.6775 220.377 12.7977 220.363 12.8835C220.13 13.1239 219.827 13.2269 219.882 13.7934C220.061 15.493 220.006 15.5445 218.714 14.7376C218.329 14.4973 218.054 14.5659 217.861 14.8578C216.981 16.1968 216.115 15.8192 215.153 14.9951C214.864 14.7548 214.355 14.8578 213.956 14.8063C213.874 14.5659 213.791 14.3428 213.695 14.1024C213.599 14.2054 213.489 14.3084 213.393 14.4114C213.558 14.5659 213.736 14.7204 213.901 14.8749C213.984 16.1625 213.255 16.3685 212.664 15.802C211.605 14.7891 210.299 13.8277 210.464 11.7677C209.79 12.3685 209.323 13.0037 210.189 13.8964C210.67 14.3771 211.069 14.8578 210.574 15.6303C210.244 16.1453 209.735 15.9393 209.337 16.0767C207.343 16.7118 205.789 14.978 203.988 14.8063C204.03 14.9436 204.071 15.0981 204.098 15.2526C204.387 15.3556 204.717 15.4243 204.799 15.8707C204.827 16.008 204.717 16.2998 204.621 16.3342C204.098 16.5058 203.988 15.9908 203.851 15.5617C202.297 15.6303 200.757 15.8707 199.259 16.3342C198.021 16.7119 196.852 16.6432 195.89 15.5788C195.381 15.0295 195.23 15.3728 194.983 15.7848C194.625 16.3857 194.103 16.8492 193.511 16.6775C191.545 16.111 189.607 16.9522 187.654 16.7634C186.898 16.6947 186.183 16.5917 185.523 16.111C184.272 15.2011 184.272 14.4801 185.537 13.0037L185.688 13.1411L185.564 12.9694C184.602 12.4029 184.024 12.7119 183.86 14.0509C183.571 16.3513 182.911 17.2784 181.192 16.6088C179.075 15.7848 176.985 16.9865 174.854 16.0252C173.781 15.5445 172.351 16.8835 171.004 16.2998C170.715 16.1797 170.22 16.42 170.055 16.214C168.942 14.7891 167.965 14.9264 166.948 16.3513C166.673 16.7462 166.192 16.6432 165.779 16.6775C164.446 16.7977 163.222 15.6646 161.792 16.2998C161.311 16.5058 161.118 15.287 160.747 14.7719C160.651 14.1711 161.737 14.2913 161.297 13.8277C160.981 13.5016 160.087 13.6732 160.678 14.8063C160.376 16.1282 159.867 16.7805 158.561 16.5745C157.035 16.3342 155.578 17.0895 153.941 15.8707C152.979 15.1668 151.15 16.0767 149.762 16.4887C148.827 16.7634 148.648 15.9393 148.235 15.39L148.07 15.287L148.194 15.4415C147.782 16.6947 146.916 16.7633 145.994 16.7805C145.018 16.7805 144.056 16.8149 143.203 16.0938C142.805 15.7505 142.722 15.3041 142.97 14.8406C143.272 14.2569 143.643 13.7247 143.753 13.0209C143.918 12.832 144.097 12.6432 144.262 12.4372L144.482 12.4029L144.688 12.4544C145.059 12.8492 145.417 12.8321 145.761 12.42L145.857 12.2312L145.733 12.3857C145.403 12.3857 145.059 12.3857 144.729 12.3857C144.564 12.1797 144.399 12.1625 144.234 12.3857C144.069 12.5745 143.891 12.7805 143.726 12.9694C143.093 13.0037 142.076 13.8278 141.677 14.4286C141.278 15.0295 141.388 16.2827 140.577 16.2655C139.574 16.2312 138.57 17.2612 137.69 16.5917C136.851 15.9393 136.164 16.5058 135.421 16.4887C134.596 16.4543 133.826 16.9522 132.974 16.626C130.719 15.7505 128.409 16.42 126.127 16.3513C124.876 16.317 123.996 15.8363 123.157 14.8749C122.786 17.2784 121.425 16.0251 120.476 15.8363C119.555 15.6646 118.689 15.4243 117.795 15.8707C116.392 16.5573 115.073 15.2183 113.67 15.6303C113.533 15.6646 113.203 15.3556 113.134 15.1153C113.01 14.7033 113.45 13.6904 112.501 14.6518C111.072 16.111 108.885 16.0767 107.428 14.8234L107.552 14.6689L107.401 14.7719C107.112 14.978 106.754 15.4415 106.562 15.3556C104.623 14.4801 102.63 15.2011 100.691 14.8921C99.4535 14.6861 97.9136 16.0251 96.9649 13.9822C96.8412 14.0852 96.6487 14.1711 96.6212 14.3084C96.2087 15.802 95.0263 15.3728 94.2838 15.4071C88.6467 15.6303 82.9958 15.3385 77.3724 14.9093C76.5612 14.8406 75.805 14.7891 74.9663 14.8406C73.1376 14.9436 71.1578 15.4243 69.5903 13.6217L69.7279 13.4672L69.5903 13.6046C67.7617 15.1324 65.6993 15.0123 63.6232 14.9264C62.9358 14.8921 62.7295 14.2226 62.3446 13.7762C62.0421 14.2398 61.7533 14.9608 61.2309 14.8578C59.251 14.4629 57.0924 15.7505 55.2775 13.9822C54.6588 13.3814 54.645 14.1711 54.37 14.3428C52.7889 15.39 51.084 15.1325 49.7091 13.6217L49.8191 13.4672L49.6678 13.5702C47.7155 14.9265 45.6806 14.3943 43.6595 13.9479C43.1782 13.8449 42.6695 13.2612 42.2708 13.3814C39.4522 14.2913 36.6749 13.5874 33.8976 13.1239C31.2302 12.6775 28.4667 12.9007 25.9093 12.317C22.2108 11.4758 18.4023 12.3685 14.855 11.0638C12.5314 10.2054 9.87781 10.8578 7.85668 8.78055L7.98042 8.6089L7.82918 8.74624C6.743 7.8192 5.45058 7.47585 4.24066 6.90932C3.14072 6.39431 2.19203 5.57028 1.25709 4.76341C0.50089 4.11106 0.308403 3.21835 0.748376 2.10248C1.2021 0.952271 1.83456 1.29563 2.60451 1.4158C6.48177 2.06815 10.3865 3.16686 14.2363 2.94369C16.7249 2.80635 19.0485 3.61321 21.4271 3.42437C23.1457 3.28703 24.8506 3.4587 26.528 3.52737C28.7141 3.6132 31.0652 2.9952 33.1001 4.64326C33.3201 4.81493 33.6088 5.00376 33.7601 4.79776C35.465 2.63468 37.6098 4.00804 39.3835 4.16255C41.7483 4.36856 44.1269 4.31706 46.5055 4.62607C48.6917 4.90075 48.7191 4.69474 48.6229 7.39001C48.6229 7.64752 48.6504 7.78486 48.9529 7.85353C49.6403 7.28701 48.8704 5.58746 50.0666 5.31278C49.8878 5.15827 49.7091 5.00376 49.5166 4.84926C49.8328 4.40291 50.0391 4.76341 50.2591 5.00375C51.9914 4.52307 52.7339 4.57458 55.6625 5.36428C56.4324 3.81922 57.8073 6.56598 58.5498 4.76341C60.7496 4.47157 62.9633 4.33424 65.1769 4.45442C66.7718 4.54025 65.3144 6.42864 66.2768 7.01232C66.6618 6.30847 67.6242 6.3428 67.803 5.3471C67.9817 4.43723 68.5454 4.88359 68.9029 4.66041C70.0578 3.97372 70.4153 6.05095 71.2127 5.63894C72.0789 5.19259 72.5739 5.07241 73.3851 5.87928C74.3201 6.82348 73.7013 5.51878 73.8388 5.22694C74.1963 4.40291 74.7463 4.59176 75.3375 4.8321C76.4374 5.27845 77.4411 5.43293 78.6235 4.67757C79.9572 3.81921 81.5109 5.0381 82.982 4.69476C83.0783 4.67759 83.3395 4.98658 83.3258 5.02091C82.4046 7.32133 84.4944 5.86213 84.7419 6.70333C84.7557 6.772 84.8794 6.80632 84.9482 6.85783C85.1544 6.51448 85.4156 6.15396 85.6631 6.68614C85.7731 6.90932 85.3744 7.08099 85.1406 7.16682C85.5256 8.40287 85.9793 8.23122 86.4056 7.21835C86.763 6.37715 86.5568 5.2441 87.5742 4.76341C88.8941 4.14539 90.1866 4.76341 91.479 4.67757C91.699 4.67757 91.919 5.14109 91.7815 5.3471C91.534 5.70761 91.1628 5.93078 90.7778 6.25696C91.4102 6.42863 92.2352 6.42864 92.4139 5.99946C92.9639 4.69475 93.8438 4.90077 94.7238 4.8321C97.0749 4.66042 99.4122 4.72907 101.763 4.86641C103.248 4.96942 104.073 5.55311 104.403 7.28701C104.458 7.59602 104.417 8.14537 104.898 8.14537C104.981 7.9737 105.077 7.8192 105.132 7.64753C105.393 6.84067 104.568 5.72477 105.421 5.15825C106.218 4.62607 107.263 4.35141 108.047 4.9866C109.16 5.8793 110.082 5.51878 111.154 4.66041C111.47 5.84496 110.852 6.80633 111.154 7.80203C111.333 8.38572 111.498 8.72907 111.993 8.6089C112.818 8.40289 112.185 7.92219 112.103 7.54451C111.718 5.5531 111.883 5.14109 113.533 5.2441C115.43 5.36427 117.3 4.79775 119.197 5.0381C119.665 5.0896 120.297 4.8321 120.517 5.50162C120.737 6.22265 120.325 6.84066 119.885 7.33851C119.541 7.73335 118.922 7.73335 118.744 8.62605C121.081 10.4115 123.267 8.00802 125.536 8.21403C124.051 7.4415 122.373 8.91791 120.943 7.56169C120.888 6.58315 121.15 5.57027 121.865 5.2956C122.855 4.90075 124.037 4.54024 124.972 4.86641C125.756 5.14109 124.738 5.63894 124.491 6.25696C125.247 5.93078 126.306 7.08101 126.471 5.12394C126.512 4.64325 127.007 4.90075 127.309 4.86641C130.142 4.4544 132.988 4.40289 135.834 4.54023C135.916 6.08529 134.94 5.62178 134.445 5.99946C134.858 6.42864 135.573 6.23981 135.82 6.99517C135.339 7.39001 134.844 7.80202 134.363 8.19687C133.125 7.85353 131.915 7.80202 130.774 8.67755C131.998 8.78056 133.263 9.24408 134.404 8.28271C134.981 8.04237 135.655 7.95653 135.875 7.04667C137.621 5.05526 139.739 4.29989 142.076 4.24839C142.488 4.24839 143.107 4.02523 143.121 4.55742C143.148 5.62179 142.901 6.70331 142.791 7.78485C142.722 8.54021 142.337 8.78055 141.787 8.78055C141.883 8.31704 141.993 7.88786 141.65 7.47585C141.113 6.82349 141.443 6.29131 141.815 5.75912L141.897 5.58744L141.773 5.70762C141.292 6.0338 140.701 5.19259 140.233 5.87928C140.866 6.77198 140.453 8.47156 141.773 8.79774C141.773 8.98658 141.773 9.19258 141.773 9.38142C141.072 9.41575 140.44 9.57026 140.288 10.6175L140.165 10.7891L140.316 10.6518C140.811 10.2398 141.306 9.82777 141.801 9.43292C142.433 9.29558 143.052 9.19258 143.63 8.79774C144.413 8.26555 144.922 7.7677 143.863 6.89217C143.808 6.84067 144.069 6.22263 144.179 5.86212C143.987 5.60461 143.685 5.20976 143.973 5.00375C144.331 4.76341 144.276 5.38144 144.427 5.62178C146.352 3.85355 148.62 4.05957 150.834 3.97373C151.013 3.97373 151.274 4.28273 151.357 4.52307C151.535 5.05526 151.137 5.14109 150.834 5.2956C149.432 6.03379 150.559 5.89646 150.999 6.2398C151.343 6.51448 151.398 7.26985 151.659 7.75053C151.728 7.8707 152.126 7.76769 152.333 7.66469C152.484 7.59602 152.883 7.45868 152.511 7.09817C151.453 6.06813 152.044 5.77627 152.951 5.63894C153.309 5.58743 153.68 5.57029 154.588 5.50162C153.804 5.31278 153.57 5.27842 153.336 5.20975C152.951 5.10675 152.443 5.15827 152.511 4.42007C152.566 3.92222 152.965 3.88787 153.268 3.87071C154.175 3.83637 155.083 3.80206 155.99 3.83639C156.664 3.87073 157.227 3.88789 156.939 5.22694C156.76 6.10247 157.984 5.08958 158.204 6.25696C157.846 7.83635 156.636 6.89215 155.605 6.82348C156.824 8.54021 158.213 8.83207 159.771 7.69903C160.431 7.69903 160.692 8.43721 161.16 8.78055C161.476 11.1153 161.27 11.596 159.579 11.8192C158.52 11.9565 157.434 11.8535 156.347 11.905C155.578 11.9393 154.753 11.699 154.079 12.6604C155.564 11.905 156.952 12.832 158.369 12.729C160.28 12.5745 162.397 12.5917 162.521 9.19258C162.521 8.84923 163.016 8.64323 162.768 8.04237C162.328 8.50589 161.847 8.90073 161.228 8.72905C161.228 8.43721 161.187 8.14538 161.256 7.88787C161.545 6.875 161.517 6.2913 160.486 6.96082C160.225 7.1325 159.991 7.39002 159.744 7.61319C158.822 6.75483 159.359 5.86213 159.744 4.9866C159.235 4.55742 158.809 5.38145 158.327 5.07244C158.19 4.9866 158.011 4.86642 157.956 4.71191C157.86 4.42007 157.956 4.0939 158.19 3.97373C158.726 3.73339 159.372 3.21835 159.826 3.39003C162.108 4.23122 164.501 2.44583 166.728 3.95655C167.086 4.19689 167.319 3.73337 167.608 3.63037C168.969 3.08101 168.983 3.08103 170.44 4.55742C170.798 4.91793 171.004 4.67759 171.279 4.45442C172.681 3.21837 174.565 2.78919 177.04 3.21837C176.215 4.33424 175.5 5.46729 174.62 6.35999C174.221 6.772 174.001 6.90932 174.414 7.39001C174.634 7.63035 174.799 7.97369 175.225 7.78485C176.71 7.18399 176.724 7.20118 177.012 8.84924C177.37 8.57456 177.714 8.31704 178.057 8.05953C178.126 8.00803 178.181 7.93937 178.25 7.90503C178.277 7.90503 178.374 8.00804 178.36 8.04237C178.332 8.12821 178.277 8.19688 178.236 8.28271C178.525 9.51876 178.924 8.71189 179.157 8.28271C179.487 7.68186 179.13 7.06383 178.869 6.61748C178.277 5.60461 177.989 4.47157 177.672 3.42437C178.154 2.29133 178.924 2.99517 179.501 2.8235C179.968 2.68616 180.188 3.2527 179.804 3.80205C179.597 4.09389 178.827 3.99089 179.281 4.76341C179.57 5.2441 180.051 5.79346 180.532 5.27844C181.261 4.47158 182.223 4.55742 183.035 4.07673C182.787 4.07673 182.54 4.07674 182.292 4.02523C181.893 3.9394 181.385 3.92222 181.44 3.23553C181.495 2.54883 182.031 2.65184 182.402 2.6175C185.097 2.34283 187.778 1.77632 190.487 2.49735C192.301 1.48448 194.089 2.08532 196.302 2.18832C195.381 3.68187 194.226 2.77201 193.649 3.71621C194.116 5.20976 194.158 5.26126 194.969 4.35139C195.711 3.52736 196.344 4.12823 197.017 4.42007C197.43 4.09389 197.829 3.78487 198.255 3.44153C197.952 2.48016 197.375 3.56172 197.031 3.16687C196.866 2.97803 196.674 2.75485 196.605 2.49735C196.522 2.18833 196.674 1.84498 196.962 1.84498C198.53 1.79348 200.097 0.866451 201.706 1.69048C201.39 3.35571 200.207 2.41149 199.671 3.06384C199.85 3.95654 201.183 3.09819 201.018 4.36857C200.881 5.41578 200.248 5.86212 199.396 5.86212C198.984 5.86212 198.571 5.86212 198.159 5.86212C198.049 5.91362 197.939 5.96512 197.842 6.01662C197.884 5.87928 197.925 5.75912 197.966 5.62178C197.897 5.07242 197.746 4.62609 197.182 4.69476C197.21 5.84496 197.182 6.94366 195.945 7.20117C195.409 7.30417 194.886 7.52736 194.35 7.69903C194.543 8.40289 194.391 9.10673 194.158 9.82776C195.038 9.79342 195.203 8.96941 195.615 8.5574C196.701 7.47586 197.801 5.98229 199.369 7.63035C199.864 8.14537 200.097 7.57885 200.372 7.28701C201.005 6.66898 201.431 5.70762 202.366 5.60462C202.586 4.90076 201.651 3.95654 202.503 3.49303C203.328 3.02951 204.277 2.97803 204.703 4.40292C205.129 3.45871 205.886 3.90504 206.449 3.68187C208.223 2.96084 209.942 2.92652 211.743 3.18403C212.568 3.3042 213.393 3.30421 214.19 2.92653C214.988 2.56601 215.826 2.41151 216.61 2.78919C217.449 3.2012 218.191 3.01235 219.002 2.7205C221.78 1.74197 223.663 3.59603 225.437 5.82778C225.492 5.89645 225.602 6.01663 225.574 6.05096C224.103 9.26124 227.114 9.43291 227.884 11.1153C228.173 10.7205 228.558 10.6346 228.957 10.6175C228.957 10.8235 228.957 11.0123 228.957 11.2183C229.3 11.2011 229.685 12.008 229.947 11.2698C230.043 11.0123 229.52 10.7548 229.19 10.669C229.108 10.6518 229.025 10.6346 228.943 10.6175C228.998 9.31275 228.338 8.95224 227.431 8.7634C226.936 8.66039 226.482 8.23121 226.578 7.52735C226.688 6.77199 227.293 6.89217 227.774 6.84067C227.774 6.56599 227.774 6.27413 227.829 6.01662C227.829 5.98228 228.173 5.94795 228.214 6.01662C228.448 6.41147 228.214 6.7205 228.036 7.02951C229.727 8.28272 229.575 5.77627 230.387 5.20975C231.033 6.34279 231.445 7.42435 230.895 8.71189C230.593 8.95224 230.112 8.71189 229.947 9.24408C229.919 9.32991 230.112 9.58743 230.222 9.62176C230.758 9.77627 230.799 9.19258 230.978 8.81489C231.555 8.29988 231.872 7.33852 232.738 7.32135C233.178 7.9222 232.765 8.47156 232.751 9.03808C232.751 10.154 233.37 10.2741 234.126 10.0338C234.704 9.84494 235.364 9.7591 234.676 8.71189C234.291 8.12821 234.58 7.61318 234.979 7.14967C236.244 5.62178 236.23 5.62177 235.199 3.81921C235.116 3.6647 235.13 3.44153 235.089 3.23553C235.474 2.58317 236.244 3.59604 236.574 2.70334C236.381 1.81065 235.199 2.48018 235.144 1.39864C236.61 0.345713 238.251 0.391469 240.066 1.53596C238.76 1.86213 237.715 2.34282 237.605 3.92221C237.577 4.31705 237.536 4.8836 237.701 5.07244C238.237 5.63896 239.269 4.36856 239.722 6.15396C240.025 7.37284 241.441 6.90933 242.362 6.46299C243.201 6.05097 243.778 5.46728 244.15 4.23123C244.782 2.03382 247.078 1.94799 248.398 3.88789C248.549 3.88789 248.7 3.88789 248.852 3.88789C249.044 3.2527 249.594 2.78918 249.457 1.98232C249.292 1.05529 249.842 0.746266 250.392 0.523092C250.584 0.437255 250.887 0.488762 251.065 0.608933C251.409 0.849275 251.437 1.34712 251.258 1.6733C250.68 2.73767 250.172 3.97372 248.879 3.95655C248.7 4.24839 248.522 4.24839 248.357 3.95655C247.656 4.24839 246.391 3.1497 246.349 5.12394C245.964 5.27844 245.442 5.31276 245.236 5.63894C243.751 8.02519 241.73 9.00373 239.392 8.64321C238.141 8.45437 237.715 9.0209 237.564 10.2569C237.481 10.8921 237.11 11.5788 237.577 12.2655C238.347 12.4544 239.406 11.6303 239.874 13.1067C239.984 13.3299 240.094 13.5531 240.217 13.7591C240.3 13.6389 240.396 13.5187 240.479 13.4157C240.286 13.2956 240.107 13.1754 239.915 13.0552C240.121 9.7591 240.121 9.70759 242.775 9.67326C243.297 9.67326 243.737 8.7119 244.315 9.51876C244.081 10.3771 243.875 11.2527 242.898 11.184L242.747 11.081L242.857 11.2355C243.765 13.3127 244.507 10.3771 245.552 11.0466C245.909 11.2698 245.662 9.96511 245.538 9.38142C245.208 7.78486 244.933 6.22263 246.391 5.15825C246.858 5.12392 247.312 4.84925 247.642 5.62178C248.233 7.04666 249.182 7.45867 250.227 6.68614C250.515 6.48013 249.924 6.15396 249.787 5.82778C249.732 5.70761 249.69 5.57027 249.635 5.45009C249.745 5.5016 249.842 5.57028 249.952 5.62178C250.859 5.48444 251.918 4.54024 252.385 6.85783C252.729 5.67328 252.866 4.90075 253.155 4.24839C253.691 3.08101 255.011 2.87502 255.891 3.75055C256.111 3.95656 256.125 4.48873 255.988 4.48873C254.145 4.40289 255.451 6.72048 254.145 7.20117C255.465 7.64752 256.043 6.92649 256.565 6.15396C256.867 5.70761 257.032 4.9866 257.665 5.31278C258.311 5.63896 258.38 6.2913 258.229 7.06382C258.16 7.42434 258.339 7.92219 258.215 8.19687C257.981 8.67756 257.665 8.26554 257.39 8.09387C257.239 7.99087 257.459 7.51018 257.074 7.66469C257.156 7.8192 257.252 7.99087 257.335 8.14537L257.266 8.17971ZM43.2607 7.42435L43.1232 7.57885L42.9995 7.73335L43.1507 7.61319L43.2607 7.42435ZM48.3342 10.0853C48.3342 10.0853 48.0592 10.0338 47.9904 10.0853C47.8255 10.257 47.6605 10.4801 47.5917 10.7205C47.5367 10.9093 47.7017 10.9951 47.8942 10.9093C48.1142 10.669 48.4029 10.4973 48.3479 10.0509L48.3342 10.0853ZM49.4479 9.6046C49.3654 9.34709 49.2966 9.36425 49.2554 9.67326C49.2554 9.7591 49.2829 9.84492 49.2966 9.93076C49.3379 9.91359 49.4204 9.91359 49.4341 9.87926C49.4479 9.79342 49.4616 9.69044 49.4341 9.6046H49.4479ZM53.1876 10.9608L53.0501 10.8578L53.0226 11.0123L53.1876 10.9608ZM55.2775 10.2569C55.36 10.0509 55.2225 9.93077 55.0163 9.9651C54.7275 10.1196 54.3426 10.1711 54.3975 10.7033C54.3975 10.7891 54.7138 10.9265 54.7963 10.8578C54.9888 10.7033 55.1813 10.4973 55.2912 10.2398L55.2775 10.2569ZM57.1886 7.40719L57.0649 7.56169C56.9136 7.49302 56.7761 7.39 56.6249 7.35566C56.4049 7.32133 56.1849 7.35568 55.965 7.37285C55.9787 7.52735 55.965 7.81921 56.0199 7.83637C56.2399 7.88788 56.4737 7.92221 56.6799 7.88787C56.8174 7.85354 56.9411 7.68185 57.0649 7.57885L57.1886 7.40719ZM61.1759 6.80633L61.0384 6.90932L60.9559 7.09817L61.0796 6.96082L61.1759 6.80633ZM63.6507 6.06812L63.5132 5.9823V6.11964L63.6507 6.06812ZM64.5307 10.0509C64.3932 9.7591 64.1732 9.6046 63.912 9.7076C63.6782 9.79344 63.417 10.0166 63.5957 10.3084C63.692 10.4629 64.0494 10.4286 64.2832 10.4286C64.4894 10.4286 64.5719 10.2741 64.5169 10.0509H64.5307ZM73.1101 9.77626C72.8902 9.62175 72.6427 9.72477 72.5052 9.98228C72.3264 10.3085 72.5189 10.4973 72.7252 10.6346C72.9314 10.772 73.1514 10.875 73.3164 10.5316C73.3714 10.2398 73.3439 9.94795 73.1101 9.79344V9.77626ZM74.1688 11.9394C74.1276 12.1282 74.0863 12.317 74.0588 12.4887C74.0313 12.6775 74.0038 12.8664 73.9763 13.0552L73.8526 13.2097L74.0038 13.1067C74.0863 12.9522 74.1963 12.7977 74.2513 12.626C74.3063 12.4029 74.4576 12.111 74.1551 11.9394H74.1688ZM76.3137 8.90074L76.2724 8.71189L76.1899 8.86639L76.3137 8.90074ZM80.1084 11.4586C80.0122 11.1325 79.7372 10.7891 79.586 10.9436C79.311 11.2355 79.091 11.6818 78.9948 12.111C78.926 12.42 79.2973 12.5745 79.5035 12.5402C80.0122 12.4544 80.026 11.905 80.1084 11.4586ZM80.1772 7.68185H77.1386C78.2661 8.95223 79.2285 7.93936 80.1772 7.68185ZM81.7446 11.0638C81.6759 10.9093 81.6209 10.7033 81.5109 10.5831C81.3596 10.4286 81.1946 10.5316 81.2084 10.772C81.2084 10.9436 81.3321 11.1325 81.4284 11.2355C81.5796 11.39 81.7033 11.3041 81.7309 11.0638H81.7446ZM85.5944 12.6432L85.4981 12.4372C85.1819 12.214 84.8657 11.9908 84.5357 11.7677C84.3294 11.3213 85.3331 11.1668 84.7144 10.6518C84.6044 10.5488 84.3294 10.4973 84.2744 10.566C84.0132 10.9093 84.1095 11.287 84.3157 11.6303C84.3707 11.7162 84.4257 11.7848 84.4669 11.8535C84.7144 12.2484 85.0581 12.3857 85.4431 12.4715L85.5669 12.626L85.5944 12.6432ZM88.4404 12.1282C88.4404 12.1282 88.3029 12.0595 88.2342 12.0252C88.1655 12.0423 88.0417 12.0424 88.028 12.0939C87.973 12.2655 88.083 12.3342 88.2892 12.2655C88.3442 12.2483 88.3854 12.1797 88.4404 12.1282ZM90.5441 10.5145L90.3928 10.6175C90.2141 10.8063 90.0491 10.978 89.8703 11.1668C89.7603 11.2698 89.6366 11.2698 89.5266 11.1668C89.4716 10.978 89.4304 10.7891 89.3754 10.6175C89.2791 10.2741 89.2654 9.69043 88.8392 9.9136C88.4954 10.0853 88.5779 10.6175 88.8392 10.9093C89.0041 11.0981 89.2654 11.1496 89.4854 11.2526C89.6229 11.5445 89.7741 11.4758 89.9253 11.2698C90.1041 11.081 90.2691 10.875 90.4478 10.6861L90.5578 10.5316L90.5441 10.5145ZM91.1353 8.36856C91.204 8.17971 91.0803 8.05954 90.8878 8.14537C90.7503 8.21404 90.6265 8.31705 90.4891 8.42005C90.5991 8.48872 90.709 8.62606 90.7915 8.6089C90.9153 8.57456 91.094 8.48871 91.149 8.35137L91.1353 8.36856ZM91.4927 13.9307L91.3415 13.9822L91.4927 14.0681V13.9307ZM92.5377 10.978L92.4002 10.875L92.3727 11.0123L92.5377 10.978ZM94.9163 7.90503C94.3113 7.61319 93.7888 7.59601 93.4176 8.40287C94.0638 8.86639 94.5038 8.47155 94.9163 7.90503ZM98.8623 10.978C98.3398 10.4801 97.9136 11.3728 97.4461 11.0981C95.5075 9.96511 96.1537 11.5273 96.3737 12.7462C97.0611 11.7848 98.1611 11.8363 98.8623 10.978ZM99.7147 7.68185C99.4535 7.85352 99.206 8.00804 98.9448 8.17971C98.8348 7.56169 98.8623 6.87499 98.4361 6.37714L98.2986 6.22264L98.4361 6.3943C98.7935 6.92649 97.2399 8.23121 98.931 8.23121C99.1923 8.50589 99.4672 8.72906 99.7147 8.23121C99.7835 8.09387 99.7147 7.87069 99.7147 7.68185ZM100.54 11.6818C100.526 11.5445 100.457 11.4072 100.416 11.2698C100.333 11.0638 100.251 10.875 100.182 10.669C100.237 10.8921 100.306 11.1153 100.361 11.3385C100.443 11.5102 100.457 11.6647 100.388 11.8535L100.292 12.0252L100.43 11.905C100.43 11.905 100.54 11.7505 100.54 11.699V11.6818ZM100.952 5.99946L100.801 6.06812L100.952 6.1368V5.99946ZM102.313 12.1454C102.286 11.8363 102.19 11.7848 102.093 12.008C102.052 12.0767 102.066 12.1968 102.093 12.2999C102.093 12.3514 102.19 12.3857 102.231 12.42C102.258 12.3342 102.327 12.2483 102.313 12.1625V12.1454ZM103.166 8.26556C103.166 8.26556 103.097 8.07671 103.07 8.07671C103.001 8.07671 102.946 8.16254 102.877 8.19687C102.877 8.28271 102.836 8.40289 102.85 8.42005C103.001 8.55739 103.125 8.48871 103.166 8.24837V8.26556ZM105.682 10.5488C104.362 10.8463 103.67 11.7848 103.606 13.3642C104.609 12.4715 105.256 11.7505 105.682 10.5488ZM106.507 14.1196L106.369 14.2398L106.273 14.3943L106.397 14.2741L106.507 14.1024V14.1196ZM107.455 6.70333C107.455 6.51449 107.236 6.17115 107.071 6.11964C106.686 5.99947 106.534 6.34281 106.562 6.75483C106.576 7.04667 106.741 7.25267 107.098 7.25267C107.208 7.09816 107.455 6.90933 107.455 6.70333ZM110.81 11.39C110.659 11.3042 110.508 11.2698 110.343 11.2183C109.958 10.772 109.532 10.6346 108.913 10.9265C109.435 11.0638 109.862 11.184 110.288 11.3041C110.37 11.4758 110.425 11.6647 110.522 11.8192C110.714 12.1625 111.085 12.4544 111.292 12.0939C111.525 11.6647 111.072 11.5273 110.797 11.39H110.81ZM113.684 11.5273C113.601 11.0295 113.368 11.1153 113.134 11.2526C112.996 11.3385 112.79 11.5102 112.804 11.6303C112.804 11.9737 113.038 12.1625 113.299 12.1282C113.588 12.0939 113.67 11.802 113.684 11.5445V11.5273ZM114.976 12.8664L114.853 13.0209L114.729 13.1754L114.894 13.0552L114.976 12.8664ZM116.324 8.33421C116.172 8.28271 116.007 8.2312 115.856 8.16253C115.76 8.00802 115.664 7.83637 115.54 7.69903C115.265 7.37285 114.976 7.26985 114.715 7.69903C114.633 7.8192 114.674 8.04237 114.646 8.23121C114.88 8.23121 115.114 8.23121 115.348 8.23121C115.513 8.23121 115.677 8.19688 115.842 8.17971C115.994 8.24838 116.049 8.72906 116.31 8.33421H116.324ZM117.121 10.7205C116.997 10.2054 116.64 10.3085 116.337 10.463C115.65 10.8406 116.021 11.0295 116.434 11.2526C117.19 11.6647 116.392 12.4887 116.805 13.1582C117.396 12.2484 117.314 11.4758 117.135 10.7376L117.121 10.7205ZM119.555 13.7076C119.555 13.7076 119.28 13.5359 119.184 13.5874C118.895 13.7076 118.579 13.8621 118.689 14.3428C118.702 14.4458 118.936 14.4629 119.074 14.5316C119.349 14.3428 119.624 14.1539 119.569 13.7076H119.555ZM126.292 12.9866C126.099 12.1797 125.467 12.729 125.109 12.4372C125.041 12.3857 124.958 12.3685 124.889 12.3342C124.326 10.463 124.312 10.4458 123.143 11.3041C122.566 11.7333 122.03 12.2484 121.205 12.9522C122.635 12.8664 123.776 13.0724 124.834 12.3857C125.151 12.9522 125.426 13.6046 126.141 13.2097C126.209 13.1754 126.292 13.0381 126.278 12.9866H126.292ZM129.042 8.64321C129.028 8.91789 129.124 8.9694 129.289 8.7634C129.33 8.71189 129.344 8.60888 129.372 8.54021C129.303 8.50588 129.248 8.48872 129.193 8.47155C129.138 8.54022 129.042 8.59171 129.042 8.64321ZM128.024 11.3213C128.024 11.2012 127.859 11.081 127.777 10.978C127.68 11.0981 127.516 11.2183 127.502 11.3385C127.474 11.596 127.461 11.9737 127.832 11.7677C127.942 11.7162 128.038 11.4758 128.024 11.3213ZM128.753 6.10246L128.904 6.05096L128.767 5.96512V6.10246H128.753ZM130.912 11.0466L130.774 11.1668C130.54 11.2183 130.307 11.287 130.073 11.3041C129.495 11.3556 128.945 11.4587 128.767 12.2827C128.739 12.42 128.835 12.7119 128.932 12.7462C129.619 13.0209 130.183 12.7977 130.568 12.0252C130.692 11.7848 130.747 11.493 130.829 11.2183L130.925 11.0466H130.912ZM131.833 12.935C131.833 12.935 131.819 12.7805 131.805 12.7119C131.736 12.7119 131.64 12.7119 131.599 12.7634C131.448 12.9522 131.475 13.0896 131.668 13.1067C131.723 13.1067 131.805 13.0037 131.833 12.935ZM132.328 14.7719C132.328 14.7719 132.314 14.6174 132.3 14.5488C132.231 14.5488 132.135 14.5488 132.108 14.6003C131.956 14.7891 131.984 14.9265 132.176 14.9436C132.231 14.9436 132.314 14.8578 132.341 14.7719H132.328ZM134.143 11.2526C134.005 11.5445 133.909 11.6475 133.895 11.7677C133.881 12.0595 133.868 12.3685 133.909 12.6604C133.95 12.9522 134.088 12.9351 134.129 12.6089C134.17 12.2312 134.129 11.8192 134.129 11.2355L134.143 11.2526ZM135.806 9.62176L135.655 9.69042L135.806 9.7591V9.62176ZM137.882 12.2655L137.731 12.3685L137.649 12.5574L137.772 12.42L137.869 12.2655H137.882ZM139.147 7.81919C139.024 7.93936 138.9 8.04236 138.776 8.16253C138.584 7.99086 138.35 7.8707 138.199 7.66469C137.951 7.35568 137.635 7.06384 137.401 7.45869C136.961 8.17972 137.676 8.16254 137.924 8.38571C138.212 8.64322 138.542 8.43721 138.831 8.24837C138.872 8.04236 139.299 8.24839 139.147 7.83637V7.81919ZM147.603 5.38144L147.74 5.48444L147.768 5.32994L147.603 5.38144ZM147.96 12.0252C147.919 11.8707 147.411 12.1625 147.177 12.42L147.081 12.5745L147.218 12.4715C147.287 12.4372 147.383 12.4372 147.438 12.3685C147.603 12.1797 148.084 12.523 147.96 12.0252ZM150.298 8.14537C149.143 6.20547 147.754 7.97371 146.269 7.08101C147.617 9.41576 148.868 9.15824 150.298 8.14537ZM150.848 9.27842C150.724 9.38142 150.573 9.4501 150.504 9.6046C150.449 9.70761 150.518 9.91359 150.532 10.0681C150.655 9.9651 150.807 9.89642 150.875 9.74192C150.93 9.63891 150.862 9.43292 150.848 9.27842ZM157.296 15.3041L157.145 15.4243L157.049 15.6132L157.172 15.4586L157.282 15.3041H157.296ZM172.599 5.12394C172.599 5.12394 172.75 5.22693 172.791 5.1926C172.833 5.15826 172.846 5.03809 172.874 4.95226C172.819 4.88359 172.778 4.78057 172.723 4.78057C172.489 4.7634 172.448 4.90075 172.613 5.10675L172.599 5.12394ZM172.819 8.6604L172.86 8.86639L172.943 8.69474L172.819 8.6604ZM170.853 5.89646C171.169 6.89216 170.715 7.59601 171.142 8.24837C171.843 8.28271 172.2 7.61318 172.778 7.11532C172.186 6.73764 171.664 6.41148 170.853 5.89646ZM163.841 9.41576L163.951 9.45008L163.923 9.26124L163.841 9.41576ZM163.47 4.69476C163.14 4.64325 162.865 4.79775 162.645 5.0896C162.493 5.0896 162.328 5.0896 162.177 5.0896C162.067 4.98659 161.971 4.86642 161.861 4.76341C161.82 4.72908 161.751 4.78059 161.682 4.79776C161.833 4.90076 161.998 5.02093 162.15 5.12394C162.315 5.34711 162.493 5.32995 162.672 5.12394C162.892 4.86643 163.36 5.26126 163.47 4.67757V4.69476ZM164.954 11.7677C164.982 11.2698 164.858 10.9265 164.624 10.9608C163.951 11.0466 163.332 11.3213 163.291 12.3342C163.291 12.6089 163.401 12.8835 163.456 13.1582C163.58 12.0938 164.611 12.3514 164.941 11.7677H164.954ZM166.756 12.2312L166.632 12.3857C166.398 12.6089 165.807 12.3857 165.999 13.1239C166.219 12.8835 166.439 12.6604 166.659 12.42L166.742 12.2312H166.756ZM167.663 5.1411C167.732 4.95226 168.117 5.17543 168.007 4.76341C167.883 4.88358 167.759 4.98658 167.636 5.10675C167.154 5.03809 166.659 5.03808 166.178 4.91791C164.941 4.6089 164.858 6.13679 164.198 6.73764C164.019 6.90931 163.937 7.26984 164.143 7.52735C164.789 8.35138 165.546 7.69902 166.206 7.57885C167.264 7.40718 167.567 6.30847 167.663 5.1411ZM168.378 13.7591C168.378 13.7591 168.337 13.5874 168.309 13.5016C168.24 13.5359 168.158 13.5531 168.103 13.6217C167.952 13.8277 168.007 13.9479 168.227 13.9479C168.282 13.9479 168.323 13.8278 168.378 13.7591ZM169.354 7.83637C169.478 7.73337 169.684 7.49302 169.657 7.42435C169.478 6.99517 169.285 7.30418 169.12 7.45869C168.942 7.64753 168.79 7.88786 168.625 8.11103C168.117 8.36854 167.251 8.0767 167.333 9.34708C168.048 9.34708 168.24 8.54021 168.694 8.21403C168.914 8.09386 169.148 7.99088 169.354 7.83637ZM174.441 12.111C174.4 11.5273 174.001 11.3556 173.616 11.1668C173.575 10.978 173.575 10.772 173.616 10.566C173.781 10.36 173.988 10.1883 174.111 9.94794C174.208 9.74193 174.043 9.58743 173.905 9.7591C173.74 9.94794 173.685 10.257 173.575 10.5145C172.214 10.8921 170.839 11.2698 169.478 11.6475C170.949 12.1453 172.338 12.1969 173.603 11.184C173.644 11.5788 173.658 11.9737 173.74 12.3342C173.823 12.6775 173.946 13.141 174.345 12.8835C174.455 12.8149 174.469 12.3513 174.441 12.0767V12.111ZM176.174 11.7505C176.146 11.5788 176.036 11.4243 175.968 11.2526C175.803 11.1668 175.706 11.2527 175.734 11.5102C175.761 11.6818 175.816 11.905 175.926 11.9909C176.077 12.111 176.215 11.9909 176.174 11.7505ZM180.395 13.5531C179.694 13.7419 179.295 14.2054 179.02 14.9436C179.639 14.8235 180.436 14.8578 180.395 13.5531ZM180.711 11.2526C180.518 10.3084 180.037 10.4973 179.542 10.6518C179.089 10.8063 178.401 10.8578 178.566 11.6132C178.745 12.4715 179.501 12.2655 180.037 12.1797C180.477 12.1282 180.766 11.7848 180.711 11.2355V11.2526ZM182.608 6.20546C182.512 6.10246 182.402 5.91362 182.306 5.91362C182.168 5.91362 181.935 6.01663 181.893 6.1368C181.783 6.53165 182.003 6.65181 182.278 6.58314C182.402 6.54881 182.498 6.3428 182.608 6.20546ZM183.543 3.85355L183.392 3.63037L183.2 3.75055C183.31 3.80205 183.42 3.85355 183.53 3.85355H183.543ZM184.134 11.39L183.97 11.4243L184.107 11.5273L184.134 11.39ZM184.822 4.04239C184.409 3.99089 183.997 3.92221 183.585 3.87071C183.956 4.31706 184.368 4.50591 184.822 4.04239ZM185.743 8.98658C185.702 8.59173 185.606 8.16255 185.276 8.07671C185.152 8.04238 184.863 8.38572 184.808 8.6089C184.698 9.03808 184.932 9.38141 185.262 9.48442C185.523 9.57025 185.688 9.29559 185.757 8.98658H185.743ZM189.18 11.1153C188.795 10.0853 188.465 11.0123 188.108 11.1496C187.544 11.3728 186.857 11.7677 187.077 12.4715C187.324 13.2441 187.998 12.8835 188.479 12.4372C188.438 12.3685 188.342 12.2999 188.342 12.2484C188.369 12.0595 188.465 12.0767 188.589 12.2999C189.167 12.1797 189.455 11.8535 189.18 11.0981V11.1153ZM188.355 8.19687L188.314 7.99087L188.232 8.16253L188.355 8.19687ZM190.225 7.93937C190.088 7.85354 189.964 7.73337 189.827 7.69903C189.62 7.6647 189.51 7.8192 189.607 7.99087C189.689 8.12821 189.854 8.23122 190.005 8.26556C190.198 8.31706 190.28 8.16255 190.239 7.93937H190.225ZM189.84 6.35999L189.785 6.17114L189.73 6.3428H189.84V6.35999ZM191.449 3.44153C191.174 3.28702 190.899 3.13253 190.624 2.97803C189.868 3.57888 189.029 3.33854 188.218 3.40721C187.421 3.47588 186.541 3.16687 185.881 4.02523C186.266 4.78059 187.709 3.95655 187.476 5.62178C186.829 6.06813 186.183 5.36427 185.207 5.48444C186.197 6.41147 186.829 7.85353 187.531 5.70762C188.617 4.42007 189.717 3.21835 191.449 3.44153ZM192.535 5.72478C192.37 5.5016 192.233 5.27844 192.054 5.0896C191.834 4.86642 191.6 4.95225 191.435 5.1926C191.353 5.31277 191.339 5.51879 191.298 5.69046C191.518 5.69046 191.752 5.69046 191.972 5.69046C192.123 5.69046 192.274 5.75913 192.439 5.79346C192.645 6.35998 192.59 6.94366 192.494 7.52735L192.384 7.68185L192.535 7.57885C193.8 6.96083 193.168 6.3428 192.535 5.72478ZM194.763 11.802C194.611 12.0939 194.488 12.317 194.378 12.5574C194.061 13.2612 194.13 13.6389 194.488 13.3814C194.983 13.0209 194.996 12.4715 194.776 11.802H194.763ZM200.125 10.7376L200.042 10.5488C199.946 10.3599 199.85 10.1883 199.754 9.99944C199.836 10.2054 199.919 10.3943 200.001 10.6003L200.125 10.7376ZM203.713 5.46728C204.14 5.51878 204.332 5.27843 204.304 4.76341C204.112 5.00376 203.92 5.2441 203.713 5.46728ZM202.558 7.25267C203.37 7.61318 202.916 6.51448 203.177 6.1883C203.218 6.1368 203.218 6.01662 203.232 5.91362C203.026 5.91362 202.82 5.91362 202.613 5.91362C202.421 6.35997 201.843 6.9265 202.558 7.23551V7.25267ZM201.06 9.39858C201.197 9.50158 201.321 9.34708 201.335 9.10674C201.28 8.95223 201.225 8.79772 201.17 8.64321C201.06 8.74621 200.881 8.84922 200.853 8.96939C200.84 9.08957 200.95 9.31275 201.06 9.38142V9.39858ZM210.354 4.67757C208.718 3.92221 207.398 5.10676 205.968 5.67328C205.858 5.57027 205.762 5.39861 205.652 5.36428C205.473 5.31278 205.418 5.45012 205.556 5.55312C205.666 5.63896 205.817 5.63894 205.954 5.67328C205.789 9.46725 203.37 10.772 201.06 12.1969C201.747 12.9865 202.283 12.1969 202.861 12.008C203.906 11.699 204.442 12.1453 204.401 13.5016C204.071 13.6904 203.548 13.4501 203.411 13.9994C203.315 14.4114 203.7 14.6003 203.961 14.7891C204.126 14.3771 204.291 13.9823 204.442 13.5702C205.404 12.4887 205.377 10.4115 206.944 9.94794L207.082 10.0853L206.986 9.89644C205.844 8.40289 205.899 6.99516 207.261 6.1883C208.25 5.60461 209.227 4.95226 210.34 4.66041L210.354 4.67757ZM212.499 8.42005C211.702 8.07671 211.193 8.38572 210.712 8.7634C210.505 8.9179 209.942 9.0724 210.464 9.48442C211.523 10.3084 210.258 11.0123 210.464 11.7677C211.028 11.9565 212.238 12.0767 211.867 11.5102C210.808 9.93078 212.32 9.38141 212.513 8.43721L212.499 8.42005ZM215.496 11.8878C215.496 11.8878 215.414 11.7162 215.359 11.6818C215.304 11.6475 215.235 11.7162 215.166 11.7333C215.166 11.8192 215.166 11.9394 215.208 11.9909C215.373 12.1797 215.496 12.1453 215.496 11.8878ZM217.655 4.95226C215.936 3.85355 214.245 5.74195 212.87 4.19689C212.829 4.93508 212.623 5.62179 212.911 6.27414C212.746 6.46298 212.568 6.65181 212.403 6.82348C211.715 6.82348 210.945 5.81063 210.272 7.08101C211.083 7.47586 211.784 7.52734 212.444 6.87498C212.609 6.68614 212.774 6.4973 212.939 6.30846C213.283 6.06812 213.709 5.46728 214.011 5.84496C215.593 7.69903 216.362 5.81062 217.641 4.95226H217.655ZM221.601 3.73337C221.092 3.99088 221.01 4.54023 220.858 5.02091C220.776 5.20975 220.377 4.95226 220.515 5.41578C220.652 5.31278 220.776 5.1926 220.913 5.0896C221.188 4.71192 221.752 4.5574 221.615 3.73337H221.601ZM223.086 5.75912C223.017 5.60461 222.976 5.38144 222.866 5.32994C222.673 5.22693 222.398 5.17543 222.385 5.57028C222.385 5.69045 222.577 5.82779 222.673 5.94796C222.811 5.87929 222.948 5.82779 223.072 5.75912H223.086ZM225.506 12.5059L225.423 12.3514C225.203 12.1282 225.423 11.3213 224.791 11.6132C224.983 11.8707 225.176 12.1453 225.368 12.4029L225.506 12.5059ZM228.847 11.1496C228.558 11.2011 228.256 11.2526 227.967 11.3041C227.761 11.6475 227.568 12.008 227.362 12.3514C227.238 12.523 227.128 12.6775 227.004 12.8492C227.114 12.9007 227.238 12.935 227.362 12.9694C227.376 13.141 227.403 13.3127 227.431 13.4844C228.929 13.6389 228.723 12.2484 228.847 11.1496ZM231.583 13.1582C231.638 12.9007 231.555 12.7977 231.377 12.935C231.322 12.9694 231.267 13.0724 231.253 13.1582C231.253 13.1926 231.349 13.2441 231.404 13.2956C231.473 13.2441 231.569 13.2097 231.583 13.1582ZM231.913 11.3728L231.748 11.4243L231.899 11.5445L231.927 11.3728H231.913ZM233.893 11.3385L233.728 11.39L233.879 11.493V11.3385H233.893ZM237.22 7.02951L237.357 6.92648C237.577 6.65181 238.059 7.06384 238.155 6.46299C237.88 6.60032 237.591 6.73764 237.316 6.87498L237.234 7.02951H237.22ZM251.835 8.33421L251.67 8.40287L251.822 8.48871V8.33421H251.835ZM254.434 9.14108L254.283 9.24408C254.145 9.45008 254.008 9.6561 253.856 9.84494C253.966 9.84494 254.076 9.8106 254.173 9.7591C254.214 9.6046 254.269 9.45008 254.324 9.29558L254.434 9.14108Z" fill="#010001"/>
</svg>
