<svg width="78" height="74" viewBox="0 0 78 74" fill="none" xmlns="http://www.w3.org/2000/svg">
<path d="M38.9576 37.4294C40.7415 34.5151 43.1471 32.3153 46.0656 30.6007C48.5289 29.1578 48.6918 29.3839 47.1763 26.4412C44.8487 21.9124 42.3072 17.9207 38.1708 14.931C35.2352 12.8063 32.0166 11.4599 28.2741 12.0378C24.212 12.6642 16.4059 16.9117 14.2755 20.5229C17.9191 21.094 21.5815 23.2847 24.8486 24.9116C27.3404 26.1529 33.9321 29.8108 28.0612 31.8586C24.1171 33.2299 18.1408 29.825 14.301 28.8619C12.3012 28.3532 10.2772 27.8416 8.22928 27.6406C6.21454 27.4486 4.01623 28.0228 2.32359 26.6604C-0.536693 24.3638 1.31798 18.3219 1.37967 15.1491C1.44432 11.8738 0.104118 3.86119 3.55324 1.74222C11.6816 -3.2443 8.33793 16.1378 9.43887 16.3875C10.8022 16.6944 15.1809 10.0994 16.444 8.96773C19.8866 5.87764 24.3008 3.68277 28.9511 3.2521C37.9743 2.41503 46.0301 8.72018 50.9075 15.7176C52.2506 17.6441 53.4038 19.7185 54.4393 21.8321C55.2726 23.5236 55.844 26.3341 57.1145 27.7027C58.2672 28.9537 60.1734 29.1518 61.7058 29.7542C64.1582 30.721 65.9896 32.032 67.8544 33.9009C73.8863 39.9688 77.7936 49.0116 76.8753 57.6889C76.6802 59.5709 76.1599 62.4122 74.3328 63.4687C73.356 64.0332 70.7141 64.312 70.6711 62.6895C70.6588 62.2371 72.5672 60.9996 72.8564 60.3299C73.6125 58.5863 73.029 55.7938 72.6601 54.0327C71.4206 48.1644 66.607 36.2057 59.4739 35.4011C60.1555 35.4762 60.6764 45.5039 60.7222 46.5926C60.8628 50.0307 60.8465 53.6257 60.1788 57.0219C58.9034 63.4887 55.4 71.4375 48.5096 73.4075C31.7646 78.2085 32.565 45.4792 38.9576 37.4294C37.7189 38.9953 40.8108 34.3914 38.9576 37.4294ZM44.7844 66.6809C48.9275 70.9945 52.6473 55.6385 52.8273 53.7987C53.1003 51.0541 53.7023 37.2016 50.4504 35.7285C48.9421 35.0507 44.8461 40.1618 44.0746 41.3595C42.592 43.6645 41.725 46.7713 41.2439 49.4557C40.6184 52.9455 40.2478 65.3321 44.7694 66.6839C45.5419 67.4857 43.602 66.3377 44.7694 66.6839L44.7844 66.6809Z" fill="#67BBE7"/>
</svg>
