<svg width="154" height="35" viewBox="0 0 154 35" fill="none" xmlns="http://www.w3.org/2000/svg">
<path d="M18.1562 0.833385C27.5681 1.12684 34.9749 8.88912 34.6818 18.1435C34.3833 27.3979 26.489 34.6808 17.0771 34.3926C7.66057 34.0992 0.253305 26.3489 0.551546 17.0944C0.840127 7.9844 8.48654 0.781269 17.7076 0.833385C17.854 0.834148 18.0091 0.828883 18.1562 0.833385ZM53.0456 10.1167C57.8548 10.1167 61.5654 13.2439 62.1269 17.7795H57.2445C56.8783 15.631 55.2427 14.151 53.0944 14.151C50.5068 14.151 48.8712 16.1085 48.8712 19.0208C48.8712 21.957 50.5068 23.9384 53.0944 23.9384C55.2183 23.9384 56.8539 22.4583 57.2445 20.286H62.1269C61.541 24.8694 57.8548 27.9727 53.0456 27.9727C48.0656 27.9727 44.1352 24.0577 44.1352 19.0208C44.1352 14.0078 48.0656 10.1167 53.0456 10.1167ZM94.0578 10.4748C97.8904 10.4748 100.283 12.1219 100.283 15.1059C100.283 16.6098 99.4772 17.7795 98.0125 18.6389C99.7946 19.3789 100.795 20.6441 100.795 22.4583C100.795 25.681 98.3543 27.6146 94.2775 27.6146H87.0271V10.4748H94.0578ZM112.22 10.4748L118.641 27.6146H113.661L112.586 24.4397H106.435L105.336 27.6146H100.673L107.167 10.4748H112.22ZM124.841 10.4748L131.31 20.3815V10.4748H135.534V27.6146H131.091L124.109 16.9201V27.6146H119.886V10.4748H124.841ZM142.955 10.4748V17.684L148.423 10.4748H153.672L147.496 18.5195L153.843 27.6146H148.228L142.955 19.8802V27.6146H138.341V10.4748H142.955ZM66.3746 10.4748L68.7425 20.6918L71.5255 10.4748H76.1882L78.8733 20.7382L81.2659 10.4748H85.7821L81.3147 27.6146H76.6764L73.8202 16.944L70.964 27.6146H66.3013L61.8583 10.4748H66.3746ZM17.7316 2.43169C9.35845 2.38309 2.43886 8.94279 2.17684 17.275C2.05308 21.1412 3.3856 24.7064 5.68182 27.4739L28.186 6.53756C25.5416 4.09451 22.0333 2.55439 18.1304 2.43169C17.9968 2.42771 17.8645 2.43246 17.7316 2.43169ZM93.9113 20.5486H91.2016V24.0577H93.9113C95.6445 24.0577 96.4501 23.3893 96.4501 22.2912C96.4501 21.2409 95.6445 20.5486 93.9113 20.5486ZM109.559 15.4401L107.68 20.8828H111.39L109.559 15.4401ZM93.6916 14.0316H91.2016V16.9917H93.6916C95.2295 16.9917 95.9375 16.4188 95.9375 15.4878C95.9375 14.6046 95.2295 14.0316 93.6916 14.0316Z" fill="#B0B0B0"/>
</svg>
