<svg width="118" height="37" viewBox="0 0 118 37" fill="none" xmlns="http://www.w3.org/2000/svg">
<path fill-rule="evenodd" clip-rule="evenodd" d="M30.9885 0.712646C34.8511 0.712646 37.9824 3.73745 37.9824 7.46874V21.6565C37.9824 25.3878 34.8511 28.4126 30.9885 28.4126H22.5957V29.7638C22.5957 33.4951 19.4644 36.5199 15.6018 36.5199H7.90843C4.04579 36.5199 0.91449 33.4951 0.91449 29.7638V22.3321C0.91449 18.6008 4.04579 15.576 7.90843 15.576H9.17401V21.7852C9.17401 25.4533 12.2001 28.4386 15.9722 28.5387L16.168 28.5413L22.5954 28.541L22.5957 28.4126H16.3012L22.595 28.4119V22.2848L22.5957 22.3321V28.4126L22.8622 28.4121L22.8628 22.0742C22.8628 18.4061 19.8367 15.4208 16.0646 15.3207L15.8688 15.3181H9.30722V7.46874C9.30722 3.73745 12.4385 0.712646 16.3012 0.712646H30.9885ZM54.6895 12.3007C58.5614 12.3007 60.4637 14.1816 61.2023 16.6462C61.2247 16.7111 61.1799 16.7975 61.0904 16.7975H58.4495C58.2481 16.7975 58.2033 16.7111 58.1809 16.6462C57.5095 15.3274 56.1667 14.6788 54.6895 14.6788C52.0039 14.6788 50.3925 16.8408 50.3925 20.1269C50.3925 23.5212 51.9143 25.5751 54.6895 25.5751C56.9052 25.5751 58.8971 24.7103 59.0538 21.6187V21.4025C59.0538 21.3376 59.0314 21.316 58.9642 21.316H54.7791C54.7119 21.316 54.6895 21.2728 54.6895 21.2079V19.0676C54.6895 19.0027 54.7119 18.9595 54.7791 18.9595H61.4037C61.4709 18.9595 61.5156 19.0027 61.5156 19.0676V27.6505C61.5156 27.7154 61.4709 27.737 61.4037 27.737H59.3671C59.2999 27.737 59.2776 27.7154 59.2552 27.6505L59.0314 26.5263C59.009 26.4398 58.9195 26.3966 58.8076 26.4831C57.7557 27.3046 56.5024 27.9532 54.6895 27.9532C50.191 27.9532 47.5949 24.7103 47.5949 20.1269C47.5949 15.5652 50.191 12.3007 54.6895 12.3007ZM70.9379 12.5169C73.4669 12.5169 75.6602 14.5707 75.6602 17.2083C75.6602 19.0244 74.6531 20.5377 73.2207 21.316C73.1983 21.3376 73.1983 21.3593 73.2207 21.4025L76.063 27.5857C76.1078 27.6721 76.0407 27.737 75.9511 27.737H73.3774C73.3326 27.737 73.2878 27.6938 73.2654 27.6721L70.6693 22.0078C70.6245 21.9214 70.5574 21.8997 70.4903 21.8997H67.0436C66.9765 21.8997 66.9541 21.9214 66.9541 21.9862V27.6289C66.9541 27.6938 66.9094 27.737 66.8422 27.737H64.3803C64.3132 27.737 64.2684 27.6938 64.2684 27.6289V12.625C64.2684 12.5601 64.3132 12.5169 64.3803 12.5169H70.9379ZM88.999 12.5169C89.0662 12.5169 89.1109 12.5601 89.1109 12.625V14.7869C89.1109 14.8518 89.0662 14.895 88.999 14.895H80.7406C80.6734 14.895 80.6287 14.9383 80.6287 15.0031V18.7217C80.6287 18.7865 80.6734 18.8298 80.7406 18.8298H87.88C87.9471 18.8298 87.9919 18.873 87.9919 18.9379V21.0998C87.9919 21.1647 87.9471 21.2079 87.88 21.2079H80.7406C80.6734 21.2079 80.6287 21.2512 80.6287 21.316V25.2508C80.6287 25.3156 80.6734 25.3589 80.7406 25.3589H88.999C89.0662 25.3589 89.1109 25.4021 89.1109 25.467V27.6289C89.1109 27.6938 89.0662 27.737 88.999 27.737H78.0549C77.9878 27.737 77.943 27.6938 77.943 27.6289V12.625C77.943 12.5601 77.9878 12.5169 78.0549 12.5169H88.999ZM102.36 12.5169C102.427 12.5169 102.472 12.5601 102.472 12.625V14.7869C102.472 14.8518 102.427 14.895 102.36 14.895H94.1018C94.0347 14.895 93.9899 14.9383 93.9899 15.0031V18.7217C93.9899 18.7865 94.0347 18.8298 94.1018 18.8298H101.241C101.308 18.8298 101.353 18.873 101.353 18.9379V21.0998C101.353 21.1647 101.308 21.2079 101.241 21.2079H94.1018C94.0347 21.2079 93.9899 21.2512 93.9899 21.316V25.2508C93.9899 25.3156 94.0347 25.3589 94.1018 25.3589H102.36C102.427 25.3589 102.472 25.4021 102.472 25.467V27.6289C102.472 27.6938 102.427 27.737 102.36 27.737H91.4161C91.349 27.737 91.3042 27.6938 91.3042 27.6289V12.625C91.3042 12.5601 91.349 12.5169 91.4161 12.5169H102.36ZM108.112 12.5169C108.179 12.5169 108.224 12.5817 108.246 12.625L114.379 23.9968C114.446 24.1482 114.602 24.1049 114.602 23.9968V12.625C114.602 12.5601 114.647 12.5169 114.714 12.5169H117.176C117.243 12.5169 117.288 12.5601 117.288 12.625V27.6289C117.288 27.6938 117.243 27.737 117.176 27.737H113.842C113.774 27.737 113.707 27.6721 113.685 27.6289L107.575 16.2571C107.508 16.1057 107.351 16.149 107.351 16.2571V27.6289C107.351 27.6938 107.306 27.737 107.239 27.737H104.755C104.71 27.737 104.665 27.6938 104.665 27.6289V12.625C104.665 12.5601 104.71 12.5169 104.777 12.5169H108.112ZM70.7141 14.895H67.0436C66.9765 14.895 66.9541 14.9383 66.9541 14.9815V19.4135C66.9541 19.4784 66.9989 19.5216 67.066 19.5216H70.8036C71.945 19.5216 72.9969 18.4622 72.9969 17.2083C72.9969 15.9328 71.9002 14.895 70.7141 14.895Z" fill="#B0B0B0"/>
</svg>
