<svg width="98" height="42" viewBox="0 0 98 42" fill="none" xmlns="http://www.w3.org/2000/svg">
<path d="M39.2864 23.9319C39.2355 24.311 39.1744 24.6901 39.0981 25.0639C35.3943 28.4806 31.7159 32.0686 28.2054 35.3036C25.7277 37.6039 23.3313 39.738 21.0521 41.6644C20.5514 41.7143 20.041 41.7442 19.5261 41.7541L19.1391 41.7579H19.0831C21.9373 39.5199 25.0052 36.934 28.2054 34.0418C31.7769 30.8536 35.5062 27.3071 39.2864 23.9319ZM39.2864 20.4818V21.4209C35.5259 24.7616 31.7855 28.3075 28.2251 31.4738C24.0046 35.2712 20.0141 38.5452 16.4587 41.1828C15.8287 41.0905 15.2036 40.9673 14.5935 40.8134C19.34 37.5791 23.886 34.0451 28.2051 30.2319C31.7855 27.1529 35.5059 23.725 39.2864 20.4818ZM38.164 27.9572C37.9755 28.5278 37.7672 29.0562 37.5391 29.5846C34.4 32.7655 31.2957 36.0257 28.3202 39.0006C27.859 39.4761 27.4028 39.9358 26.9366 40.3797C26.2049 40.6939 25.4564 40.9621 24.6951 41.1828C25.8853 40.0732 27.0953 38.9143 28.3252 37.706C31.499 34.6466 34.8067 31.2491 38.164 27.9572ZM39.1692 17.6066C39.2151 17.8825 39.2558 18.1687 39.2864 18.4497C35.487 21.5972 31.7132 24.944 28.1481 27.9281C23.7261 31.7173 19.0778 35.2325 14.2292 38.4539C13.4041 39.0109 12.6045 39.5218 11.8406 40.0328C11.2447 39.7875 10.6692 39.5525 10.1039 39.2766C11.3822 38.4692 12.7675 37.6466 14.2343 36.7217C19.0925 33.6972 23.7411 30.3462 28.1481 26.6915C31.6979 23.8404 35.4107 20.6315 39.1692 17.6066ZM39.0681 15.3065C39.1442 15.5816 39.2204 15.8359 39.2864 16.1007C35.6717 19.0594 32.1079 22.1582 28.6912 24.9249C24.2991 28.5976 19.6761 31.9719 14.8521 35.026C12.5828 36.4587 10.5419 37.6473 8.75999 38.8827C8.2557 38.5574 7.76834 38.2114 7.29789 37.8446C9.38951 36.3237 11.9431 35.0053 14.8318 33.2819C19.6727 30.4138 24.3061 27.1942 28.6963 23.648C32.0419 21.0163 35.5144 18.0991 39.0681 15.3065ZM37.8552 13.0064C37.9598 13.2326 38.0644 13.4948 38.164 13.7467C34.8967 16.348 31.6743 19.0469 28.5813 21.458C24.2791 24.9406 19.7438 28.105 15.0093 30.9276C11.488 33.0302 8.47972 34.5262 6.2036 36.5826C5.87289 36.2865 5.56449 35.9772 5.27076 35.6521L5.05309 35.4053L5.32702 35.1226C7.67785 32.8143 11.0099 31.3954 14.9943 29.1694C19.7402 26.5464 24.2828 23.5489 28.5813 20.2037C31.5796 17.9468 34.6925 15.4277 37.8552 13.0064ZM36.0713 10.7063C36.2077 10.9378 36.3491 11.1745 36.4804 11.4163C33.5666 13.6186 30.6831 15.8619 27.8955 17.9201C23.5314 21.2344 18.928 24.2083 14.1244 26.8165C10.0845 29.029 6.70614 30.4492 4.32764 32.78C3.86119 33.2406 3.43693 33.7435 3.06011 34.2825C2.75207 33.9223 2.50463 33.5518 2.24708 33.1711C2.78289 32.1616 3.4928 31.2588 4.34279 30.5058C6.71624 28.3807 10.0896 27.1561 14.1295 25.0979C18.933 22.681 23.5323 19.8638 27.8804 16.6749C30.5164 14.8226 33.2787 12.7387 36.0713 10.7063ZM89.6413 16.6912C94.1264 16.6912 97.4599 19.7963 97.9145 24.4541H92.399C92.3081 22.622 91.2474 21.4731 89.6716 21.4731C87.8533 21.4731 86.7926 22.9015 86.7926 25.3546C86.7926 27.8698 87.823 29.2671 89.6716 29.2671C91.2777 29.2671 92.2778 28.1492 92.399 26.2551H97.9145C97.4599 31.037 94.2779 34.018 89.6413 34.018C84.7925 34.018 81.4287 30.447 81.4287 25.3546C81.4287 20.3863 84.944 16.6912 89.6413 16.6912ZM52.1238 27.0624C54.0634 27.0624 55.3968 28.4597 55.3968 30.4781C55.3968 32.4654 54.0634 33.8627 52.1238 33.8627C50.1843 33.8627 48.8206 32.4654 48.8206 30.4781C48.8206 28.4597 50.1843 27.0624 52.1238 27.0624ZM62.2457 17.0017V33.7075H57.0635V17.0017H62.2457ZM74.4888 16.6912C77.7012 16.6912 79.974 18.8958 79.974 22.9636V33.7075H74.7919V24.7335C74.7919 22.622 74.0646 21.4731 72.4887 21.4731C71.2159 21.4731 70.0643 22.4047 70.0643 24.9198V33.7075H64.8822V17.0017H69.6401V19.02C70.9129 17.5606 72.4281 16.6912 74.4888 16.6912ZM34.8576 7.8311C35.0244 8.05296 35.1912 8.27822 35.358 8.5069C32.9364 10.2681 30.5498 12.0395 28.2383 13.6573C23.9105 16.7976 19.3428 19.5763 14.5793 21.9666C10.5817 23.9889 7.22451 25.2279 4.88298 27.3577C3.66616 28.4546 2.73874 29.8472 2.18621 31.4073C2.0161 31.1155 1.84598 30.8186 1.68588 30.5114C2.1125 28.3745 3.24714 26.4539 4.89799 25.0743C7.24953 23.1493 10.5867 22.0946 14.5893 20.2413C19.3585 18.0581 23.9293 15.4471 28.2483 12.4388C30.3997 10.9746 32.6112 9.40285 34.8576 7.8311ZM31.1598 3.80589C31.4451 4.00968 31.7204 4.22392 31.9908 4.44338C30.8895 5.18016 29.7932 5.90125 28.717 6.58577C24.3979 9.46697 19.8353 11.9297 15.0863 13.943C11.0917 15.6361 7.75286 16.5348 5.40516 18.3271C4.13169 19.2887 3.14714 20.5857 2.51185 22.4466C3.03215 21.6934 3.64706 21.0746 4.34524 20.5535C6.74717 18.7858 10.1456 17.8784 14.234 16.1632C19.093 14.129 23.7554 11.6318 28.1601 8.70438C29.7342 7.69729 31.3542 6.64823 33.0151 5.53098C33.24 5.74604 33.4597 5.97159 33.6744 6.19714C31.8039 7.49797 29.9641 8.78306 28.1601 9.97899C23.7467 13.0385 19.0859 15.7041 14.2289 17.9466C10.1456 19.8296 6.73184 20.9154 4.32991 22.9086C3.2656 23.7759 2.40037 24.8767 1.76771 26.3349C1.72255 26.9041 1.69583 27.5066 1.68818 28.1449L1.68588 28.5057L1.68567 26.5291C1.28792 27.4971 0.988988 28.6182 0.798045 29.9263L0.752565 30.2573L0.563477 29.8639C0.640641 27.2913 1.05307 25.3286 1.74812 23.8013C2.03936 19.6598 3.34011 17.3914 5.41517 15.9966C7.76287 14.4186 11.0867 13.7079 15.0913 12.1821C19.841 10.3667 24.4055 8.06133 28.717 5.30034C29.5212 4.82309 30.3355 4.32494 31.1598 3.80589ZM28.0589 2.0808C28.3146 2.20685 28.5659 2.33757 28.8143 2.47296L29.1847 2.67954L28.582 3.04718C24.2857 5.78039 19.7476 8.06703 15.0318 9.87487C11.0614 11.3927 7.7436 12.128 5.40719 13.7194C3.07079 15.3108 1.72075 18.0471 1.68588 23.3569C1.68588 22.3538 1.68588 21.3454 1.71079 20.3422C1.74068 15.2792 3.08573 12.774 5.42214 11.377C7.75855 9.97991 11.0614 9.44945 15.0467 8.10492C19.5683 6.57175 23.9285 4.55312 28.0589 2.0808ZM23.4087 0.930743C24.0366 1.066 24.649 1.23248 25.2563 1.42496C21.7561 3.27069 18.1016 4.80089 14.3355 5.99781C10.2337 7.31399 6.80617 7.85503 4.39761 9.24405C2.03206 10.6083 0.644489 13.0514 0.566433 17.914L0.564038 18.1253L0.578916 15.2163C0.564746 13.8841 0.718666 12.5554 1.03695 11.2626C1.83681 9.79425 2.80596 8.42691 3.92413 7.18914C4.08271 7.09423 4.24588 7.00742 4.41305 6.92902C6.82161 5.73249 10.2234 5.39434 14.3406 4.24462C17.4501 3.39945 20.4835 2.29091 23.4087 0.930743ZM59.6092 10.0772C61.579 10.0772 62.9427 11.3503 62.9427 13.1202C62.9427 14.8591 61.579 16.1322 59.6092 16.1322C57.6393 16.1322 56.2756 14.8591 56.2756 13.1202C56.2756 11.3503 57.6393 10.0772 59.6092 10.0772ZM19.0831 0.355713C17.5722 0.969381 16.127 1.46941 14.7576 1.86147C12.8626 2.44673 11.1092 2.8388 9.5427 3.23086C12.4607 1.39518 15.7398 0.40697 19.0831 0.355713Z" fill="#B0B0B0"/>
</svg>
