<svg width="116" height="36" viewBox="0 0 116 36" fill="none" xmlns="http://www.w3.org/2000/svg">
<path d="M4.03261 10.6236C10.926 10.6236 16.5142 16.1702 16.5142 23.0123C16.5142 29.8543 10.926 35.4009 4.03261 35.4009H0.288147V10.6236H4.03261ZM88.6076 13.2252C92.3521 13.2252 92.3521 13.2252 94.8484 15.864C97.3447 18.5028 97.3447 18.5028 97.3447 22.3681C97.3447 26.2581 97.3447 26.2581 94.8609 28.7854C92.3771 31.3127 92.3771 31.3127 88.6825 31.3127C84.938 31.3127 84.938 31.3127 82.3918 28.7111C79.8456 26.1094 79.8456 26.1094 79.8456 22.3185C79.8456 18.3046 79.8456 18.3046 82.2795 15.7649C84.7134 13.2252 84.7134 13.2252 88.6076 13.2252ZM49.5154 13.473L49.6216 13.4771C50.2509 13.5264 50.2508 13.5264 50.6887 14.1667L59.5755 26.4068V15.8516L59.5702 15.738C59.5219 15.2285 59.5219 15.2285 59.0388 14.749C58.5021 14.2163 58.5021 14.2163 58.5021 13.9685V13.8942L58.5055 13.8319C58.5463 13.473 58.5463 13.473 59.0763 13.473H61.997L62.0819 13.4755C62.5711 13.5054 62.5711 13.5054 62.5711 13.8942V13.9685L62.5674 14.0118C62.5264 14.2607 62.5264 14.2607 62.0344 14.749C61.4977 15.2817 61.4977 15.2817 61.4977 15.8516V30.0738L61.4936 30.1882C61.4649 30.5771 61.4649 30.5771 61.2356 30.8047C60.9735 31.0649 60.9735 31.0649 60.5241 31.0649H59.3509L59.2664 31.0604C58.7594 31.0058 58.7594 31.0058 58.2525 30.2968L48.7415 17.6356V28.6367L48.7462 28.7444C48.7926 29.2809 48.7926 29.2809 49.3032 29.7765C49.8649 30.3216 49.8649 30.3216 49.8649 30.5694V30.6437L49.8615 30.706C49.8207 31.0649 49.8207 31.0649 49.2907 31.0649H46.395L46.3101 31.0624C45.8209 31.0325 45.8209 31.0325 45.8209 30.6437V30.5694L45.825 30.5219C45.8662 30.272 45.8662 30.272 46.3201 29.7765C46.8194 29.2314 46.8194 29.2314 46.8194 28.6367V15.8764L46.8144 15.7582C46.7695 15.2297 46.7695 15.2297 46.3201 14.7614C45.8209 14.2411 45.8209 14.2411 45.8209 13.9933V13.8942L45.8243 13.8319C45.865 13.473 45.865 13.473 46.395 13.473H49.5154ZM70.8339 13.473L71.1206 13.4754C74.3885 13.5318 74.3885 13.5318 76.3383 14.8853C78.3728 16.2976 78.3727 16.2976 78.3977 19.0231C78.3977 20.5345 78.3977 20.5345 77.5115 21.8106C76.6253 23.0866 76.6253 23.0866 74.9778 23.7804L78.2479 28.6863L78.3599 28.8477C78.6494 29.2417 78.6494 29.2417 79.0343 29.5411C79.4961 29.9004 79.4961 29.9004 79.7707 30.111C80.0453 30.3216 80.0453 30.3216 80.0453 30.5694V30.6437L80.0419 30.706C80.0011 31.0649 80.0011 31.0649 79.4711 31.0649H74.2538L74.1661 31.062C73.7047 31.0298 73.7047 31.0298 73.7047 30.6437V30.5694L73.7091 30.5126C73.7405 30.3107 73.7405 30.3107 73.9917 30.0614C74.2788 29.7765 74.2788 29.7765 74.3911 29.5411C74.5035 29.3057 74.5035 29.3057 74.2538 28.6863L71.6327 24.375L68.8868 24.4246V28.6863L68.8921 28.7999C68.9404 29.3094 68.9404 29.3094 69.4235 29.7889C69.9602 30.3216 69.9602 30.3216 69.9602 30.5694V30.6437L69.9566 30.706C69.9141 31.0649 69.9141 31.0649 69.3611 31.0649H64.668L64.5803 31.062C64.1188 31.0298 64.1188 31.0298 64.1188 30.6437V30.5694L64.1227 30.522C64.1619 30.2732 64.1619 30.2732 64.5931 29.7889C65.0674 29.2562 65.0674 29.2562 65.0674 28.6863V15.8516L65.0627 15.738C65.02 15.2285 65.02 15.2285 64.5931 14.749C64.1188 14.2163 64.1188 14.2163 64.1188 13.9685V13.8694L64.1226 13.8061C64.1646 13.473 64.1646 13.473 64.668 13.473H70.8339ZM103.81 13.473L103.895 13.4753C104.384 13.5035 104.384 13.5035 104.384 13.8694V13.9685L104.381 14.0118C104.34 14.2607 104.34 14.2607 103.848 14.749C103.311 15.2817 103.311 15.2817 103.311 15.8516V22.3433L109.701 15.8764L109.778 15.8022C110.031 15.5434 110.031 15.5434 110.063 15.2941C110.101 15.0092 110.101 15.0092 109.964 14.8234C109.826 14.6375 109.826 14.6375 109.664 14.3897C109.502 14.142 109.502 14.142 109.502 13.9685V13.8694L109.505 13.8108C109.546 13.473 109.546 13.473 110.076 13.473H113.671L113.758 13.4757C114.22 13.506 114.22 13.506 114.22 13.8694V13.9685L114.215 14.0305C114.181 14.2473 114.181 14.2473 113.908 14.4641C113.596 14.7119 113.596 14.7119 113.022 15.0959C112.447 15.4799 112.447 15.4799 112.048 15.8764L108.453 19.4691L114.045 28.6615L114.155 28.8384C114.434 29.2685 114.434 29.2685 114.756 29.5783C115.143 29.9499 115.143 29.9499 115.343 30.1358C115.543 30.3216 115.543 30.3216 115.543 30.5694V30.6437L115.539 30.711C115.499 31.0649 115.499 31.0649 115.019 31.0649H109.726L109.639 31.062C109.177 31.0298 109.177 31.0298 109.177 30.6437V30.5694L109.182 30.5124C109.215 30.3092 109.215 30.3092 109.477 30.049C109.776 29.7517 109.776 29.7517 109.939 29.5287C110.101 29.3057 110.101 29.3057 109.876 28.7854L105.857 22.0707L103.311 24.6228V28.6615L103.316 28.7798C103.365 29.3094 103.365 29.3094 103.848 29.7889C104.384 30.3216 104.384 30.3216 104.384 30.5694V30.6437L104.381 30.706C104.34 31.0649 104.34 31.0649 103.81 31.0649H99.1421L99.0543 31.062C98.5929 31.0298 98.5929 31.0298 98.5929 30.6437V30.5694L98.5968 30.522C98.636 30.2732 98.636 30.2732 99.0672 29.7889C99.5415 29.2562 99.5415 29.2562 99.5415 28.6615V15.8516L99.5367 15.738C99.494 15.2285 99.494 15.2285 99.0672 14.749C98.5929 14.2163 98.5929 14.2163 98.5929 13.9685V13.8694L98.5967 13.8061C98.6386 13.473 98.6386 13.473 99.1421 13.473H103.81ZM87.2596 14.8357C85.5372 14.8357 85.5372 14.8357 84.5262 16.0746C83.5152 17.3135 83.5152 17.3135 83.5152 19.37C83.5152 21.8973 83.5152 21.8973 84.3265 24.2759C85.1378 26.6545 85.1378 26.6545 86.5856 28.1783C88.0335 29.7022 88.0335 29.7022 89.731 29.7022C91.4534 29.7022 91.4534 29.7022 92.5019 28.4385C93.5503 27.1749 93.5503 27.1749 93.5503 25.2175C93.5503 22.7893 93.5503 22.7893 92.7265 20.3983C91.9028 18.0072 91.9028 18.0072 90.4299 16.4215C88.9571 14.8357 88.9571 14.8357 87.2596 14.8357ZM33.3643 0.712646V25.49H28.9957C22.1024 25.49 16.5142 19.9434 16.5142 13.1013C16.5142 6.25925 22.1024 0.712646 28.9957 0.712646H33.3643ZM70.5843 14.9844H69.7355L69.6438 14.9878C68.8868 15.0463 68.8868 15.0463 68.8868 16.0994V21.2531L68.8891 21.3982C68.9149 22.1771 68.9149 22.1771 69.2238 22.5291C69.5608 22.9132 69.5608 22.9132 70.2847 22.9132H71.3581C72.781 22.9132 72.781 22.9132 73.6422 22.0336C74.5035 21.154 74.5035 21.154 74.5035 19.4443C74.5035 17.4126 74.5035 17.4126 73.3177 16.1985C72.132 14.9844 72.132 14.9844 70.5843 14.9844Z" fill="#B0B0B0"/>
</svg>
