<svg width="128" height="36" viewBox="0 0 128 36" fill="none" xmlns="http://www.w3.org/2000/svg">
<path d="M27.7884 0.712646C32.0514 0.712646 35.5073 4.16386 35.5073 8.42116C35.5073 11.0248 34.2148 13.327 32.2355 14.7226C32.6072 16.0921 32.8057 17.5331 32.8057 19.0204C32.8057 28.0671 25.4619 35.4009 16.4028 35.4009C7.34381 35.4009 0 28.0671 0 19.0204C0 9.97361 7.34381 2.63977 16.4028 2.63977C18.2962 2.63977 20.1146 2.96012 21.8067 3.54951C23.2216 1.81803 25.3757 0.712646 27.7884 0.712646ZM16.4028 5.85559C9.12227 5.85559 3.22019 11.7497 3.22019 19.0204C3.22019 26.2911 9.12227 32.1851 16.4028 32.1851C23.6834 32.1851 29.5855 26.2911 29.5855 19.0204C29.5855 17.9789 29.4644 16.9657 29.2355 15.9941C28.7668 16.0832 28.283 16.1297 27.7884 16.1297C23.5253 16.1297 20.0694 12.6784 20.0694 8.42116C20.0694 7.73923 20.158 7.07799 20.3245 6.4483C19.086 6.06303 17.7687 5.85559 16.4028 5.85559ZM55.4008 7.25761C57.6036 7.25761 59.509 7.73357 61.1171 8.6855C62.7252 9.63743 63.9584 10.9788 64.8167 12.7096C65.6751 14.4403 66.1042 16.4409 66.1042 18.7113C66.1042 20.9817 65.6751 22.9822 64.8167 24.713C63.9584 26.4438 62.7252 27.7852 61.1171 28.7371C59.509 29.689 57.6036 30.165 55.4008 30.165C53.2084 30.165 51.3082 29.689 49.7001 28.7371C48.092 27.7852 46.8588 26.4438 46.0005 24.713C45.1421 22.9822 44.713 20.9817 44.713 18.7113C44.713 16.4409 45.1421 14.4403 46.0005 12.7096C46.8588 10.9788 48.092 9.63743 49.7001 8.6855C51.3082 7.73357 53.2084 7.25761 55.4008 7.25761ZM120.381 12.7554C121.674 12.7554 122.827 12.9539 123.841 13.351C124.854 13.748 125.674 14.3156 126.299 15.0537C126.925 15.7919 127.305 16.6496 127.439 17.627L123.623 18.299L123.595 18.1395C123.468 17.512 123.149 17.0103 122.638 16.6344C122.085 16.2271 121.353 15.998 120.443 15.9471C119.564 15.9064 118.856 16.0413 118.318 16.3518C117.78 16.6624 117.512 17.0925 117.512 17.6423C117.512 17.9783 117.623 18.2531 117.845 18.4669C118.067 18.6807 118.494 18.8971 119.125 19.116C119.756 19.3349 120.743 19.6123 122.088 19.9483C123.442 20.2944 124.515 20.6813 125.306 21.1089C126.098 21.5365 126.671 22.0481 127.028 22.6437C127.385 23.2393 127.563 23.9698 127.563 24.8352C127.563 25.9347 127.287 26.8841 126.734 27.6833C126.18 28.4826 125.384 29.096 124.345 29.5236C123.305 29.9512 122.072 30.165 120.645 30.165C118.577 30.165 116.896 29.7068 115.604 28.7905C114.311 27.8742 113.525 26.5863 113.246 24.9268L117.062 24.3465L117.105 24.5205C117.311 25.2622 117.728 25.8482 118.357 26.2784C119.034 26.7416 119.885 26.9732 120.909 26.9732C121.798 26.9732 122.491 26.7976 122.987 26.4463C123.484 26.0951 123.732 25.614 123.732 25.0032C123.732 24.6061 123.636 24.3007 123.445 24.0869C123.254 23.8731 122.874 23.6618 122.305 23.4531C121.736 23.2444 120.79 22.967 119.466 22.6208C118.049 22.2543 116.93 21.8598 116.108 21.4373C115.286 21.0148 114.693 20.5159 114.332 19.9407C113.97 19.3654 113.789 18.6604 113.789 17.8255C113.789 16.8074 114.06 15.9166 114.603 15.153C115.146 14.3894 115.916 13.7989 116.914 13.3815C117.912 12.9641 119.068 12.7554 120.381 12.7554ZM71.7351 7.71576V15.0461L71.8959 14.8663C72.4962 14.2196 73.2183 13.712 74.062 13.3433C74.9824 12.9412 76.032 12.7401 77.2109 12.7401C79.0827 12.7401 80.5047 13.2059 81.4768 14.1375C82.4489 15.069 83.0797 16.1049 83.3693 17.2452C83.6588 18.3855 83.8036 19.4698 83.8036 20.4981V29.7068H80.0186V21.7656L80.0171 21.5455C79.966 17.9863 78.6635 16.2068 76.1096 16.2068C74.9824 16.2068 74.0465 16.586 73.3019 17.3445C72.5573 18.103 72.185 19.3985 72.185 21.2311V29.7068H68.4V7.71576H71.7351ZM105.179 12.8012C106.389 12.8012 107.426 13.0481 108.29 13.5419C109.153 14.0356 109.807 14.728 110.252 15.6188C110.697 16.5096 110.919 17.5557 110.919 18.7571V29.7068H107.18V19.6887L107.177 19.4815C107.144 18.4596 106.861 17.648 106.327 17.0467C105.758 16.4053 104.988 16.0846 104.016 16.0846C103.416 16.0846 102.876 16.222 102.395 16.4969C101.914 16.7718 101.537 17.1714 101.263 17.6957C100.989 18.2201 100.851 18.8386 100.851 19.5512V29.7068H97.1286V19.7345L97.1252 19.5236C97.0919 18.4835 96.8086 17.6604 96.2754 17.0543C95.7066 16.4078 94.931 16.0846 93.9486 16.0846C93.3177 16.0846 92.7645 16.2297 92.2888 16.5198C91.8131 16.81 91.4459 17.2172 91.1874 17.7415C90.9289 18.2659 90.7996 18.8691 90.7996 19.5512V29.7068H87.0301V13.2135H90.3342V15.0003L90.4901 14.8153C91.0212 14.2111 91.6699 13.7332 92.4361 13.3815C93.279 12.9946 94.1968 12.8012 95.1895 12.8012C96.3374 12.8012 97.325 13.0328 98.1524 13.496C98.9797 13.9593 99.6208 14.6032 100.076 15.4279C100.593 14.6032 101.301 13.9593 102.201 13.496C103.101 13.0328 104.094 12.8012 105.179 12.8012ZM55.3078 10.7243C53.8496 10.7243 52.6242 11.0577 51.6314 11.7245C50.6386 12.3914 49.8966 13.3255 49.4054 14.5269C48.9142 15.7282 48.6686 17.1383 48.6686 18.7571C48.6686 20.3759 48.9245 21.7809 49.4364 22.9721C49.9483 24.1632 50.7136 25.0821 51.7322 25.7286C52.7508 26.3751 54.0047 26.6983 55.4939 26.6983C56.9417 26.6983 58.1646 26.37 59.1625 25.7133C60.1605 25.0566 60.9077 24.1276 61.404 22.9262C61.9004 21.7249 62.1486 20.3199 62.1486 18.7113C62.1486 17.0823 61.8927 15.6697 61.3808 14.4734C60.8689 13.2772 60.101 12.3532 59.0772 11.7016C58.0534 11.0501 56.7969 10.7243 55.3078 10.7243Z" fill="#B0B0B0"/>
</svg>
